{"glyphs":{"0":{"ha":897,"x_min":56,"x_max":897,"o":"m 401 -11 q 202 45 283 -11 q 88 204 121 100 q 83 450 56 307 l 106 564 q 200 808 134 708 q 359 960 266 908 q 561 1011 452 1011 q 753 957 673 1011 q 865 801 833 903 q 868 553 897 699 l 843 428 q 683 101 800 214 q 401 -11 566 -11 m 412 200 q 494 224 458 200 q 555 295 530 249 q 595 408 581 342 l 636 608 q 642 716 650 675 q 607 775 633 757 q 541 794 581 794 q 455 770 492 794 q 393 701 418 747 q 354 586 368 654 l 315 386 q 312 278 302 319 q 348 219 321 237 q 412 200 374 200 z "},"1":{"ha":591,"x_min":107,"x_max":612,"o":"m 164 0 l 318 778 l 349 705 l 107 623 l 153 852 l 538 1000 l 612 1000 l 412 0 l 164 0 z "},"2":{"ha":821,"x_min":-1,"x_max":823,"o":"m -1 0 l 5 50 l 338 406 q 402 471 362 432 q 483 554 443 510 q 551 642 524 598 q 579 720 579 685 q 556 772 579 749 q 488 794 532 794 q 423 777 451 794 q 377 728 395 759 q 354 659 360 697 l 109 681 q 173 857 123 783 q 306 971 224 930 q 495 1011 388 1011 q 662 980 588 1011 q 779 891 736 949 q 823 747 823 832 q 797 624 823 680 q 727 518 770 568 q 633 419 684 468 q 532 317 582 370 l 437 216 l 432 211 l 566 216 l 722 216 l 681 0 l -1 0 z "},"3":{"ha":823,"x_min":12,"x_max":786,"o":"m 370 -11 q 185 27 268 -11 q 57 134 103 66 q 20 294 12 203 l 262 272 q 280 224 262 243 q 325 198 298 206 q 378 189 351 189 q 449 207 419 189 q 496 255 479 225 q 513 319 513 284 q 504 363 513 345 q 479 392 495 380 q 439 409 463 404 q 387 414 416 414 l 325 414 l 364 597 l 416 597 q 485 617 454 597 q 533 666 515 636 q 551 730 551 696 q 525 788 551 771 q 465 806 499 806 q 411 792 433 806 q 376 758 389 779 q 359 711 363 736 l 132 732 q 195 880 144 818 q 322 977 245 943 q 488 1011 399 1011 q 640 980 572 1011 q 747 891 707 948 q 786 756 786 834 q 760 641 786 693 q 687 551 734 589 q 579 493 641 513 q 447 472 518 472 l 447 542 q 612 511 545 543 q 714 422 680 479 q 749 295 749 366 q 696 134 749 203 q 558 27 644 65 q 370 -11 472 -11 z "},"4":{"ha":850,"x_min":-12,"x_max":838,"o":"m 403 0 l 510 536 l 541 697 l 538 697 l 433 575 l 277 397 l 277 392 l 821 392 l 782 192 l -12 192 l 16 330 l 618 1000 l 838 1000 l 637 0 l 403 0 z "},"5":{"ha":803,"x_min":36,"x_max":794,"o":"m 380 -11 q 215 22 289 -11 q 94 107 141 56 q 36 215 47 159 l 264 290 q 291 247 273 267 q 335 215 310 227 q 390 203 361 203 q 454 219 423 203 q 505 267 485 236 q 526 339 526 298 q 492 424 526 391 q 396 456 458 456 q 321 439 351 456 q 277 404 292 423 l 111 444 l 222 1000 l 794 1000 l 753 789 l 406 789 l 351 514 l 338 591 q 394 627 361 615 q 475 639 428 639 q 613 607 551 639 q 713 512 675 575 q 750 357 750 450 q 703 172 750 256 q 572 39 656 88 q 380 -11 489 -11 z "},"6":{"ha":806,"x_min":30,"x_max":762,"o":"m 370 -11 q 184 34 260 -11 q 69 148 109 78 q 30 293 30 218 q 52 411 30 355 q 107 517 74 467 q 172 608 140 567 l 476 1000 l 758 1000 l 454 600 l 427 623 q 440 633 431 630 q 473 636 450 636 q 626 598 562 636 q 726 495 690 560 q 762 347 762 430 q 709 164 762 245 q 568 36 657 83 q 370 -11 479 -11 m 379 197 q 457 217 423 197 q 511 268 492 236 q 530 337 530 300 q 517 392 530 367 q 479 432 505 416 q 414 447 453 447 q 336 428 370 447 q 281 377 301 408 q 262 307 262 345 q 275 252 262 277 q 314 212 288 227 q 379 197 340 197 z "},"7":{"ha":761,"x_min":40,"x_max":865,"o":"m 40 0 l 572 900 l 627 783 l 106 783 l 150 1000 l 865 1000 l 857 961 l 304 0 l 40 0 z "},"8":{"ha":861,"x_min":39,"x_max":831,"o":"m 389 -11 q 210 25 290 -11 q 85 124 131 61 q 39 267 39 186 q 74 393 39 336 q 167 491 108 450 q 302 555 227 533 q 459 578 377 578 q 638 543 564 578 q 751 447 712 507 q 791 311 791 387 q 759 182 791 241 q 670 80 726 123 q 542 13 614 37 q 389 -11 469 -11 m 400 183 q 485 205 451 183 q 536 259 519 227 q 553 317 553 290 q 519 386 553 357 q 431 414 486 414 q 347 392 381 414 q 295 338 313 370 q 277 278 277 307 q 293 230 277 252 q 336 196 308 208 q 400 183 363 183 m 464 443 q 307 477 372 443 q 207 571 242 512 q 172 703 172 630 q 221 862 172 793 q 351 971 269 932 q 530 1011 432 1011 q 686 978 618 1011 q 792 887 754 945 q 831 754 831 829 q 781 595 831 666 q 647 484 730 525 q 464 443 564 443 m 478 600 q 554 621 522 600 q 603 673 586 642 q 620 736 620 704 q 586 804 620 783 q 515 825 553 825 q 445 807 477 825 q 393 759 412 789 q 374 692 374 728 q 404 625 374 650 q 478 600 433 600 z "},"9":{"ha":806,"x_min":98,"x_max":829,"o":"m 490 1011 q 675 967 600 1011 q 790 852 751 922 q 829 707 829 783 q 807 590 829 646 q 752 484 785 533 q 687 392 720 434 l 383 1 l 101 1 l 405 400 l 433 378 q 419 368 429 371 q 386 364 410 364 q 234 402 298 364 q 133 506 169 440 q 98 653 98 571 q 150 836 98 755 q 291 964 202 917 q 490 1011 380 1011 m 480 803 q 402 784 436 803 q 348 733 368 764 q 329 663 329 701 q 342 609 329 634 q 381 569 355 584 q 446 553 407 553 q 524 573 490 553 q 578 624 558 592 q 597 693 597 656 q 584 748 597 723 q 545 788 571 773 q 480 803 519 803 z "},"A":{"ha":1019,"x_min":-73,"x_max":946,"o":"m -73 0 l 530 1000 l 747 1000 l 946 0 l 690 0 l 654 244 l 652 342 l 593 713 l 588 713 l 394 342 l 355 244 l 218 0 l -73 0 m 207 183 l 250 387 l 786 387 l 744 183 l 207 183 z "},"Á":{"ha":1019,"x_min":-73,"x_max":946,"o":"m -73 0 l 530 1000 l 747 1000 l 946 0 l 690 0 l 654 244 l 652 342 l 593 713 l 588 713 l 394 342 l 355 244 l 218 0 l -73 0 m 207 183 l 250 387 l 786 387 l 744 183 l 207 183 m 659 1046 l 539 1144 l 739 1355 l 882 1208 l 659 1046 z "},"Ă":{"ha":1019,"x_min":-73,"x_max":969,"o":"m -73 0 l 530 1000 l 747 1000 l 946 0 l 690 0 l 654 244 l 652 342 l 593 713 l 588 713 l 394 342 l 355 244 l 218 0 l -73 0 m 207 183 l 250 387 l 786 387 l 744 183 l 207 183 m 659 1063 q 527 1091 585 1063 q 444 1173 470 1119 q 433 1302 417 1226 l 569 1280 q 576 1224 562 1244 q 616 1196 590 1204 q 671 1188 642 1188 q 773 1217 727 1188 q 830 1302 819 1246 l 969 1280 q 906 1157 955 1205 q 792 1086 858 1109 q 659 1063 726 1063 z "},"Ắ":{"ha":1019,"x_min":-73,"x_max":950,"o":"m -73 0 l 530 1000 l 747 1000 l 946 0 l 690 0 l 654 244 l 652 342 l 593 713 l 588 713 l 394 342 l 355 244 l 218 0 l -73 0 m 207 183 l 250 387 l 786 387 l 744 183 l 207 183 m 672 1246 l 559 1330 l 721 1558 l 869 1432 l 672 1246 m 652 1061 q 519 1086 578 1061 q 429 1163 459 1112 q 414 1289 399 1214 l 550 1277 q 559 1222 545 1242 q 600 1192 574 1201 q 655 1183 626 1183 q 753 1211 709 1183 q 806 1294 796 1240 l 950 1283 q 891 1159 936 1208 q 785 1085 847 1109 q 652 1061 722 1061 z "},"Ặ":{"ha":1019,"x_min":-73,"x_max":969,"o":"m -73 0 l 530 1000 l 747 1000 l 946 0 l 690 0 l 654 244 l 652 342 l 593 713 l 588 713 l 394 342 l 355 244 l 218 0 l -73 0 m 207 183 l 250 387 l 786 387 l 744 183 l 207 183 m 413 -355 q 312 -314 353 -355 q 271 -212 271 -273 q 312 -112 271 -153 q 413 -71 353 -71 q 514 -112 473 -71 q 555 -212 555 -153 q 514 -314 555 -273 q 413 -355 473 -355 m 659 1064 q 527 1092 585 1064 q 444 1173 470 1120 q 433 1303 417 1227 l 569 1280 q 576 1224 562 1244 q 616 1197 590 1204 q 671 1189 642 1189 q 773 1218 727 1189 q 830 1303 819 1247 l 969 1280 q 906 1158 955 1206 q 792 1087 858 1109 q 659 1064 726 1064 z "},"Ằ":{"ha":1019,"x_min":-73,"x_max":949,"o":"m -73 0 l 530 1000 l 747 1000 l 946 0 l 690 0 l 654 244 l 652 342 l 593 713 l 588 713 l 394 342 l 355 244 l 218 0 l -73 0 m 207 183 l 250 387 l 786 387 l 744 183 l 207 183 m 690 1249 l 455 1408 l 585 1552 l 790 1358 l 690 1249 m 652 1061 q 518 1086 578 1061 q 429 1163 458 1112 q 413 1289 399 1214 l 549 1277 q 558 1222 544 1242 q 599 1192 573 1201 q 654 1183 625 1183 q 752 1211 709 1183 q 805 1294 795 1240 l 949 1283 q 891 1159 935 1208 q 784 1085 846 1109 q 652 1061 722 1061 z "},"Ẳ":{"ha":1019,"x_min":-73,"x_max":973,"o":"m -73 0 l 530 1000 l 747 1000 l 946 0 l 690 0 l 654 244 l 652 342 l 593 713 l 588 713 l 394 342 l 355 244 l 218 0 l -73 0 m 207 183 l 250 387 l 786 387 l 744 183 l 207 183 m 675 1061 q 542 1086 602 1061 q 452 1163 482 1112 q 437 1289 422 1214 l 573 1277 q 582 1222 568 1242 q 623 1192 597 1201 q 678 1183 649 1183 q 776 1211 732 1183 q 829 1294 819 1240 l 973 1283 q 915 1159 959 1208 q 808 1085 870 1109 q 675 1061 745 1061 m 687 1222 l 616 1312 q 658 1341 642 1326 q 679 1376 674 1357 q 672 1399 682 1391 q 629 1408 662 1408 q 581 1404 607 1408 q 536 1394 555 1400 l 555 1539 q 595 1547 574 1544 q 644 1550 616 1550 q 792 1508 748 1550 q 822 1396 836 1466 q 773 1295 810 1337 q 687 1222 736 1252 z "},"Ẵ":{"ha":1019,"x_min":-73,"x_max":1010,"o":"m -73 0 l 530 1000 l 747 1000 l 946 0 l 690 0 l 654 244 l 652 342 l 593 713 l 588 713 l 394 342 l 355 244 l 218 0 l -73 0 m 207 183 l 250 387 l 786 387 l 744 183 l 207 183 m 562 1330 l 412 1344 q 487 1491 431 1436 q 617 1547 542 1547 q 679 1534 654 1547 q 724 1505 705 1522 q 760 1476 743 1489 q 795 1463 777 1463 q 837 1495 820 1463 q 860 1563 853 1526 l 1010 1550 q 968 1439 998 1490 q 895 1357 938 1388 q 802 1326 852 1326 q 741 1338 766 1326 q 697 1367 716 1351 q 662 1395 679 1383 q 625 1408 645 1408 q 585 1389 600 1408 q 562 1330 569 1370 m 642 1061 q 508 1086 568 1061 q 418 1163 448 1112 q 403 1289 389 1214 l 539 1277 q 548 1222 534 1242 q 589 1192 563 1201 q 644 1183 615 1183 q 742 1211 699 1183 q 795 1294 785 1240 l 939 1283 q 881 1159 925 1208 q 774 1085 836 1109 q 642 1061 711 1061 z "},"Ǎ":{"ha":1019,"x_min":-73,"x_max":951,"o":"m -73 0 l 530 1000 l 747 1000 l 946 0 l 690 0 l 654 244 l 652 342 l 593 713 l 588 713 l 394 342 l 355 244 l 218 0 l -73 0 m 207 183 l 250 387 l 786 387 l 744 183 l 207 183 m 625 1049 l 401 1221 l 518 1330 l 665 1205 l 671 1205 l 860 1330 l 951 1221 l 670 1049 l 625 1049 z "},"Â":{"ha":1019,"x_min":-73,"x_max":948,"o":"m -73 0 l 530 1000 l 747 1000 l 946 0 l 690 0 l 654 244 l 652 342 l 593 713 l 588 713 l 394 342 l 355 244 l 218 0 l -73 0 m 207 183 l 250 387 l 786 387 l 744 183 l 207 183 m 490 1049 l 398 1158 l 680 1330 l 724 1330 l 948 1158 l 831 1049 l 684 1175 l 679 1175 l 490 1049 z "},"Ấ":{"ha":1019,"x_min":-73,"x_max":1160,"o":"m -73 0 l 530 1000 l 747 1000 l 946 0 l 690 0 l 654 244 l 652 342 l 593 713 l 588 713 l 394 342 l 355 244 l 218 0 l -73 0 m 207 183 l 250 387 l 786 387 l 744 183 l 207 183 m 895 1244 l 804 1316 l 1075 1550 l 1160 1400 l 895 1244 m 483 1038 l 391 1147 l 673 1316 l 718 1316 l 941 1147 l 825 1038 l 672 1163 l 675 1163 l 483 1038 z "},"Ậ":{"ha":1019,"x_min":-73,"x_max":948,"o":"m -73 0 l 530 1000 l 747 1000 l 946 0 l 690 0 l 654 244 l 652 342 l 593 713 l 588 713 l 394 342 l 355 244 l 218 0 l -73 0 m 207 183 l 250 387 l 786 387 l 744 183 l 207 183 m 413 -355 q 312 -314 353 -355 q 271 -212 271 -273 q 312 -112 271 -153 q 413 -71 353 -71 q 514 -112 473 -71 q 555 -212 555 -153 q 514 -314 555 -273 q 413 -355 473 -355 m 490 1050 l 398 1158 l 680 1331 l 724 1331 l 948 1158 l 831 1050 l 684 1175 l 679 1175 l 490 1050 z "},"Ầ":{"ha":1019,"x_min":-73,"x_max":946,"o":"m -73 0 l 530 1000 l 747 1000 l 946 0 l 690 0 l 654 244 l 652 342 l 593 713 l 588 713 l 394 342 l 355 244 l 218 0 l -73 0 m 207 183 l 250 387 l 786 387 l 744 183 l 207 183 m 380 1245 l 185 1451 l 331 1567 l 495 1318 l 380 1245 m 417 1042 l 326 1151 l 608 1320 l 652 1320 l 876 1151 l 759 1042 l 606 1167 l 609 1167 l 417 1042 z "},"Ẩ":{"ha":1019,"x_min":-73,"x_max":1031,"o":"m -73 0 l 530 1000 l 747 1000 l 946 0 l 690 0 l 654 244 l 652 342 l 593 713 l 588 713 l 394 342 l 355 244 l 218 0 l -73 0 m 207 183 l 250 387 l 786 387 l 744 183 l 207 183 m 908 1233 l 807 1315 q 855 1350 838 1333 q 875 1381 872 1368 q 869 1402 878 1394 q 831 1409 861 1409 q 786 1406 810 1409 q 743 1395 762 1402 l 761 1539 q 798 1548 779 1545 q 844 1551 817 1551 q 989 1509 947 1551 q 1018 1395 1031 1468 q 978 1300 1009 1341 q 908 1233 946 1259 m 481 1038 l 390 1147 l 672 1316 l 716 1316 l 940 1147 l 823 1038 l 671 1163 l 673 1163 l 481 1038 z "},"Ẫ":{"ha":1019,"x_min":-73,"x_max":1013,"o":"m -73 0 l 530 1000 l 747 1000 l 946 0 l 690 0 l 654 244 l 652 342 l 593 713 l 588 713 l 394 342 l 355 244 l 218 0 l -73 0 m 207 183 l 250 387 l 786 387 l 744 183 l 207 183 m 563 1330 l 413 1344 q 489 1491 433 1436 q 620 1547 545 1547 q 682 1534 656 1547 q 727 1505 707 1522 q 763 1476 746 1489 q 798 1463 779 1463 q 839 1495 823 1463 q 863 1563 856 1526 l 1013 1550 q 970 1439 1000 1490 q 898 1357 941 1388 q 804 1326 855 1326 q 744 1338 768 1326 q 700 1367 719 1351 q 665 1395 682 1383 q 628 1408 648 1408 q 587 1389 603 1408 q 563 1330 570 1370 m 484 1038 l 392 1147 l 674 1316 l 718 1316 l 942 1147 l 825 1038 l 673 1163 l 675 1163 l 484 1038 z "},"Ȁ":{"ha":1019,"x_min":-73,"x_max":946,"o":"m -73 0 l 530 1000 l 747 1000 l 946 0 l 690 0 l 654 244 l 652 342 l 593 713 l 588 713 l 394 342 l 355 244 l 218 0 l -73 0 m 207 183 l 250 387 l 786 387 l 744 183 l 207 183 m 465 1055 l 323 1274 l 490 1360 l 591 1113 l 465 1055 m 745 1055 l 606 1274 l 773 1360 l 871 1113 l 745 1055 z "},"Ä":{"ha":1019,"x_min":-73,"x_max":979,"o":"m -73 0 l 530 1000 l 747 1000 l 946 0 l 690 0 l 654 244 l 652 342 l 593 713 l 588 713 l 394 342 l 355 244 l 218 0 l -73 0 m 207 183 l 250 387 l 786 387 l 744 183 l 207 183 m 855 1044 q 759 1082 798 1044 q 720 1176 720 1120 q 756 1266 720 1230 q 846 1302 793 1302 q 937 1266 899 1302 q 977 1172 975 1231 q 942 1079 979 1114 q 855 1044 906 1044 m 511 1044 q 417 1082 455 1044 q 378 1176 378 1120 q 414 1265 378 1229 q 502 1302 449 1302 q 596 1263 558 1302 q 634 1167 634 1223 q 599 1080 634 1116 q 511 1044 564 1044 z "},"Ȧ":{"ha":1019,"x_min":-73,"x_max":946,"o":"m -73 0 l 530 1000 l 747 1000 l 946 0 l 690 0 l 654 244 l 652 342 l 593 713 l 588 713 l 394 342 l 355 244 l 218 0 l -73 0 m 207 183 l 250 387 l 786 387 l 744 183 l 207 183 m 688 1058 q 587 1099 628 1058 q 546 1201 546 1141 q 587 1302 546 1261 q 688 1343 628 1343 q 789 1302 748 1343 q 831 1201 831 1261 q 789 1099 831 1141 q 688 1058 748 1058 z "},"Ạ":{"ha":1019,"x_min":-73,"x_max":946,"o":"m -73 0 l 530 1000 l 747 1000 l 946 0 l 690 0 l 654 244 l 652 342 l 593 713 l 588 713 l 394 342 l 355 244 l 218 0 l -73 0 m 207 183 l 250 387 l 786 387 l 744 183 l 207 183 m 413 -355 q 312 -314 353 -355 q 271 -212 271 -273 q 312 -112 271 -153 q 413 -71 353 -71 q 514 -112 473 -71 q 555 -212 555 -153 q 514 -314 555 -273 q 413 -355 473 -355 z "},"À":{"ha":1019,"x_min":-73,"x_max":946,"o":"m -73 0 l 530 1000 l 747 1000 l 946 0 l 690 0 l 654 244 l 652 342 l 593 713 l 588 713 l 394 342 l 355 244 l 218 0 l -73 0 m 207 183 l 250 387 l 786 387 l 744 183 l 207 183 m 653 1046 l 421 1208 l 556 1355 l 767 1144 l 653 1046 z "},"Ả":{"ha":1019,"x_min":-73,"x_max":946,"o":"m -73 0 l 530 1000 l 747 1000 l 946 0 l 690 0 l 654 244 l 652 342 l 593 713 l 588 713 l 394 342 l 355 244 l 218 0 l -73 0 m 207 183 l 250 387 l 786 387 l 744 183 l 207 183 m 683 1040 l 612 1130 q 654 1159 637 1143 q 675 1194 670 1175 q 668 1217 678 1208 q 625 1225 658 1225 q 577 1222 603 1225 q 532 1212 551 1218 l 551 1356 q 591 1364 570 1362 q 640 1367 612 1367 q 788 1325 744 1367 q 818 1213 831 1284 q 769 1112 806 1155 q 683 1040 732 1069 z "},"Ȃ":{"ha":1019,"x_min":-73,"x_max":946,"o":"m -73 0 l 530 1000 l 747 1000 l 946 0 l 690 0 l 654 244 l 652 342 l 593 713 l 588 713 l 394 342 l 355 244 l 218 0 l -73 0 m 207 183 l 250 387 l 786 387 l 744 183 l 207 183 m 920 1044 l 781 1066 q 761 1135 789 1104 q 671 1166 732 1166 q 572 1136 612 1166 q 522 1055 533 1107 l 384 1077 q 444 1201 397 1154 q 554 1272 490 1249 q 681 1294 617 1294 q 819 1262 759 1294 q 907 1174 878 1230 q 920 1044 936 1118 z "},"Ā":{"ha":1019,"x_min":-73,"x_max":967,"o":"m -73 0 l 530 1000 l 747 1000 l 946 0 l 690 0 l 654 244 l 652 342 l 593 713 l 588 713 l 394 342 l 355 244 l 218 0 l -73 0 m 207 183 l 250 387 l 786 387 l 744 183 l 207 183 m 382 1094 l 412 1249 l 967 1249 l 938 1094 l 382 1094 z "},"Ą":{"ha":1019,"x_min":-73,"x_max":946,"o":"m -73 0 l 530 1000 l 747 1000 l 946 0 l 690 0 l 654 244 l 652 342 l 593 713 l 588 713 l 394 342 l 355 244 l 218 0 l -73 0 m 207 183 l 250 387 l 786 387 l 744 183 l 207 183 m 783 -297 q 665 -250 705 -297 q 640 -132 626 -203 q 698 -40 651 -81 q 825 41 745 0 l 945 0 q 873 -41 908 -19 q 814 -86 838 -64 q 786 -127 791 -108 q 792 -153 783 -142 q 828 -164 801 -164 q 875 -157 851 -164 q 910 -144 899 -151 l 895 -283 q 837 -294 871 -292 q 783 -297 802 -297 z "},"Å":{"ha":1019,"x_min":-73,"x_max":946,"o":"m -73 0 l 530 1000 l 747 1000 l 946 0 l 690 0 l 654 244 l 652 342 l 593 713 l 588 713 l 394 342 l 355 244 l 218 0 l -73 0 m 207 183 l 250 387 l 786 387 l 744 183 l 207 183 m 662 1044 q 563 1070 606 1044 q 500 1145 519 1097 q 492 1257 480 1194 q 570 1381 507 1333 q 716 1430 634 1430 q 819 1400 777 1430 q 877 1321 860 1371 q 882 1213 895 1272 q 841 1126 873 1165 q 763 1066 809 1088 q 662 1044 716 1044 m 662 1168 q 723 1195 695 1168 q 759 1259 750 1221 q 752 1289 763 1275 q 713 1302 741 1302 q 653 1276 680 1302 q 616 1212 627 1251 q 625 1181 612 1194 q 662 1168 639 1168 z "},"Ǻ":{"ha":1019,"x_min":-73,"x_max":998,"o":"m 674 1086 q 582 1111 621 1086 q 523 1176 542 1135 q 515 1267 505 1217 q 583 1377 528 1336 q 705 1417 637 1417 q 800 1393 760 1417 q 858 1327 840 1368 q 865 1236 876 1286 q 801 1131 853 1176 q 674 1086 749 1086 m 683 1190 q 726 1206 707 1190 q 750 1249 745 1223 q 742 1294 755 1274 q 699 1314 728 1314 q 655 1300 675 1314 q 630 1259 635 1285 q 639 1211 624 1232 q 683 1190 654 1190 m 774 1453 l 655 1551 l 855 1762 l 998 1615 l 774 1453 m -73 0 l 530 1000 l 747 1000 l 946 0 l 690 0 l 654 244 l 652 342 l 593 713 l 588 713 l 394 342 l 355 244 l 218 0 l -73 0 m 207 183 l 250 387 l 786 387 l 744 183 l 207 183 z "},"Ã":{"ha":1019,"x_min":-73,"x_max":968,"o":"m -73 0 l 530 1000 l 747 1000 l 946 0 l 690 0 l 654 244 l 652 342 l 593 713 l 588 713 l 394 342 l 355 244 l 218 0 l -73 0 m 207 183 l 250 387 l 786 387 l 744 183 l 207 183 m 523 1052 l 387 1074 q 458 1224 406 1168 q 584 1280 509 1280 q 653 1269 628 1280 q 694 1242 679 1257 q 721 1216 709 1227 q 749 1205 733 1205 q 801 1232 778 1205 q 831 1291 825 1258 l 968 1269 q 897 1120 950 1177 q 765 1063 843 1063 q 699 1075 724 1063 q 660 1102 675 1086 q 632 1129 645 1118 q 602 1141 620 1141 q 553 1116 574 1141 q 523 1052 532 1092 z "},"Æ":{"ha":1248,"x_min":-77,"x_max":1310,"o":"m -77 0 l 555 1000 l 726 1000 l 692 783 l 678 783 l 476 435 l 202 0 l -77 0 m 251 193 l 288 381 l 808 381 l 785 193 l 251 193 m 574 0 l 650 647 l 716 1000 l 1310 1000 l 1265 777 l 901 777 l 841 222 l 1153 222 l 1108 0 l 574 0 m 833 397 l 860 608 l 1175 608 l 1133 397 l 833 397 z "},"Ǽ":{"ha":1248,"x_min":-77,"x_max":1310,"o":"m -77 0 l 555 1000 l 726 1000 l 692 783 l 678 783 l 476 435 l 202 0 l -77 0 m 251 193 l 288 381 l 808 381 l 785 193 l 251 193 m 574 0 l 650 647 l 716 1000 l 1310 1000 l 1265 777 l 901 777 l 841 222 l 1153 222 l 1108 0 l 574 0 m 833 397 l 860 608 l 1175 608 l 1133 397 l 833 397 m 913 1046 l 794 1144 l 994 1355 l 1137 1208 l 913 1046 z "},"B":{"ha":903,"x_min":22,"x_max":857,"o":"m 253 0 l 296 217 l 492 217 q 551 234 526 217 q 591 279 576 252 q 605 336 605 306 q 595 379 605 361 q 566 405 585 396 q 519 414 547 414 l 336 414 l 372 597 l 507 597 q 560 614 536 597 q 596 657 583 631 q 610 710 610 684 q 598 750 610 734 q 564 774 586 766 q 508 783 541 783 l 409 783 l 454 1000 l 530 1000 q 699 971 625 1000 q 814 888 772 942 q 857 760 857 835 q 827 642 857 698 q 748 545 798 587 q 635 481 698 503 l 641 544 q 744 511 695 536 q 823 439 793 486 q 854 317 854 393 q 808 155 854 227 q 683 42 762 83 q 505 0 604 0 l 253 0 m 22 0 l 223 1000 l 478 1000 l 276 0 l 22 0 z "},"C":{"ha":910,"x_min":66,"x_max":951,"o":"m 547 -11 q 292 50 400 -11 q 125 215 184 111 q 66 452 66 320 q 110 666 66 566 q 232 845 154 767 q 413 966 310 922 q 635 1010 516 1010 q 799 988 718 1010 q 951 925 881 966 l 815 713 q 730 764 781 746 q 625 783 680 783 q 503 757 559 783 q 405 686 446 731 q 340 584 363 642 q 317 464 317 527 q 348 334 317 390 q 432 248 378 279 q 555 217 486 217 q 670 238 611 217 q 764 298 728 259 l 821 58 q 691 6 761 24 q 547 -11 622 -11 z "},"Ć":{"ha":910,"x_min":66,"x_max":951,"o":"m 547 -11 q 292 50 400 -11 q 125 215 184 111 q 66 452 66 320 q 110 666 66 566 q 232 845 154 767 q 413 966 310 922 q 635 1010 516 1010 q 799 988 718 1010 q 951 925 881 966 l 815 713 q 730 764 781 746 q 625 783 680 783 q 503 757 559 783 q 405 686 446 731 q 340 584 363 642 q 317 464 317 527 q 348 334 317 390 q 432 248 378 279 q 555 217 486 217 q 670 238 611 217 q 764 298 728 259 l 821 58 q 691 6 761 24 q 547 -11 622 -11 m 684 1046 l 565 1144 l 765 1355 l 908 1208 l 684 1046 z "},"Č":{"ha":910,"x_min":66,"x_max":977,"o":"m 547 -11 q 292 50 400 -11 q 125 215 184 111 q 66 452 66 320 q 110 666 66 566 q 232 845 154 767 q 413 966 310 922 q 635 1010 516 1010 q 799 988 718 1010 q 951 925 881 966 l 815 713 q 730 764 781 746 q 625 783 680 783 q 503 757 559 783 q 405 686 446 731 q 340 584 363 642 q 317 464 317 527 q 348 334 317 390 q 432 248 378 279 q 555 217 486 217 q 670 238 611 217 q 764 298 728 259 l 821 58 q 691 6 761 24 q 547 -11 622 -11 m 651 1049 l 427 1221 l 544 1330 l 691 1205 l 697 1205 l 886 1330 l 977 1221 l 696 1049 l 651 1049 z "},"Ç":{"ha":910,"x_min":66,"x_max":951,"o":"m 547 -11 q 292 50 400 -11 q 125 215 184 111 q 66 452 66 320 q 110 666 66 566 q 232 845 154 767 q 413 966 310 922 q 635 1010 516 1010 q 799 988 718 1010 q 951 925 881 966 l 815 713 q 730 764 781 746 q 625 783 680 783 q 503 757 559 783 q 405 686 446 731 q 340 584 363 642 q 317 464 317 527 q 348 334 317 390 q 432 248 378 279 q 555 217 486 217 q 670 238 611 217 q 764 298 728 259 l 821 58 q 691 6 761 24 q 547 -11 622 -11 m 302 -355 l 314 -241 q 425 -224 385 -243 q 469 -185 465 -205 q 453 -153 474 -163 q 380 -139 431 -143 l 448 0 l 554 0 l 490 -111 l 483 -61 q 551 -79 520 -61 q 598 -130 583 -96 q 604 -212 614 -163 q 560 -293 595 -260 q 463 -340 526 -325 q 302 -355 399 -356 z "},"Ḉ":{"ha":910,"x_min":66,"x_max":951,"o":"m 547 -11 q 292 50 400 -11 q 125 215 184 111 q 66 452 66 320 q 110 666 66 566 q 232 845 154 767 q 413 966 310 922 q 635 1010 516 1010 q 799 988 718 1010 q 951 925 881 966 l 815 713 q 730 764 781 746 q 625 783 680 783 q 503 757 559 783 q 405 686 446 731 q 340 584 363 642 q 317 464 317 527 q 348 334 317 390 q 432 248 378 279 q 555 217 486 217 q 670 238 611 217 q 764 298 728 259 l 821 58 q 691 6 761 24 q 547 -11 622 -11 m 302 -355 l 314 -241 q 425 -224 385 -243 q 469 -185 465 -205 q 453 -153 474 -163 q 380 -139 431 -143 l 448 0 l 554 0 l 490 -111 l 483 -61 q 551 -79 520 -61 q 598 -130 583 -96 q 604 -212 614 -163 q 560 -293 595 -260 q 463 -340 526 -325 q 302 -355 399 -356 m 684 1046 l 565 1144 l 765 1355 l 908 1208 l 684 1046 z "},"Ĉ":{"ha":910,"x_min":66,"x_max":974,"o":"m 547 -11 q 292 50 400 -11 q 125 215 184 111 q 66 452 66 320 q 110 666 66 566 q 232 845 154 767 q 413 966 310 922 q 635 1010 516 1010 q 799 988 718 1010 q 951 925 881 966 l 815 713 q 730 764 781 746 q 625 783 680 783 q 503 757 559 783 q 405 686 446 731 q 340 584 363 642 q 317 464 317 527 q 348 334 317 390 q 432 248 378 279 q 555 217 486 217 q 670 238 611 217 q 764 298 728 259 l 821 58 q 691 6 761 24 q 547 -11 622 -11 m 515 1049 l 424 1158 l 706 1330 l 750 1330 l 974 1158 l 857 1049 l 710 1175 l 705 1175 l 515 1049 z "},"Ċ":{"ha":910,"x_min":66,"x_max":951,"o":"m 547 -11 q 292 50 400 -11 q 125 215 184 111 q 66 452 66 320 q 110 666 66 566 q 232 845 154 767 q 413 966 310 922 q 635 1010 516 1010 q 799 988 718 1010 q 951 925 881 966 l 815 713 q 730 764 781 746 q 625 783 680 783 q 503 757 559 783 q 405 686 446 731 q 340 584 363 642 q 317 464 317 527 q 348 334 317 390 q 432 248 378 279 q 555 217 486 217 q 670 238 611 217 q 764 298 728 259 l 821 58 q 691 6 761 24 q 547 -11 622 -11 m 714 1058 q 613 1099 654 1058 q 572 1201 572 1141 q 613 1302 572 1261 q 714 1343 654 1343 q 815 1302 774 1343 q 857 1201 857 1261 q 815 1099 857 1141 q 714 1058 774 1058 z "},"D":{"ha":979,"x_min":22,"x_max":964,"o":"m 22 0 l 223 1000 l 520 1000 q 752 939 652 1000 q 908 775 852 879 q 964 538 964 671 q 923 328 964 426 q 808 157 882 231 q 635 41 734 83 q 417 0 535 0 l 22 0 m 321 222 l 448 222 q 556 250 507 222 q 641 323 605 277 q 696 426 676 369 q 715 543 715 484 q 691 663 715 610 q 619 747 666 716 q 504 777 572 777 l 433 777 l 321 222 z "},"Ǆ":{"ha":1786,"x_min":22,"x_max":1855,"o":"m 22 0 l 223 1000 l 520 1000 q 752 939 652 1000 q 908 775 852 879 q 964 538 964 671 q 923 328 964 426 q 808 157 882 231 q 635 41 734 83 q 417 0 535 0 l 22 0 m 321 222 l 448 222 q 556 250 507 222 q 641 323 605 277 q 696 426 676 369 q 715 543 715 484 q 691 663 715 610 q 619 747 666 716 q 504 777 572 777 l 433 777 l 321 222 m 917 0 l 924 34 l 1434 774 l 1434 780 l 1095 780 l 1139 1000 l 1855 1000 l 1847 963 l 1337 225 l 1337 220 l 1715 220 l 1671 0 l 917 0 m 1477 1049 l 1253 1221 l 1370 1330 l 1517 1205 l 1523 1205 l 1712 1330 l 1803 1221 l 1522 1049 l 1477 1049 z "},"Ď":{"ha":979,"x_min":22,"x_max":964,"o":"m 22 0 l 223 1000 l 520 1000 q 752 939 652 1000 q 908 775 852 879 q 964 538 964 671 q 923 328 964 426 q 808 157 882 231 q 635 41 734 83 q 417 0 535 0 l 22 0 m 321 222 l 448 222 q 556 250 507 222 q 641 323 605 277 q 696 426 676 369 q 715 543 715 484 q 691 663 715 610 q 619 747 666 716 q 504 777 572 777 l 433 777 l 321 222 m 581 1049 l 357 1221 l 474 1330 l 621 1205 l 627 1205 l 816 1330 l 907 1221 l 626 1049 l 581 1049 z "},"Đ":{"ha":1011,"x_min":49,"x_max":996,"o":"m 54 0 l 255 1000 l 552 1000 q 784 939 684 1000 q 940 775 884 879 q 996 538 996 671 q 955 328 996 426 q 840 157 914 231 q 667 41 766 83 q 449 0 567 0 l 54 0 m 353 222 l 480 222 q 588 250 539 222 q 672 323 637 277 q 728 426 708 369 q 747 543 747 484 q 723 663 747 610 q 651 747 698 716 q 536 777 604 777 l 465 777 l 353 222 m 49 441 l 71 555 l 527 555 l 505 441 l 49 441 z "},"Ḍ":{"ha":979,"x_min":22,"x_max":964,"o":"m 22 0 l 223 1000 l 520 1000 q 752 939 652 1000 q 908 775 852 879 q 964 538 964 671 q 923 328 964 426 q 808 157 882 231 q 635 41 734 83 q 417 0 535 0 l 22 0 m 321 222 l 448 222 q 556 250 507 222 q 641 323 605 277 q 696 426 676 369 q 715 543 715 484 q 691 663 715 610 q 619 747 666 716 q 504 777 572 777 l 433 777 l 321 222 m 350 -355 q 249 -314 290 -355 q 208 -212 208 -273 q 249 -112 208 -153 q 350 -71 290 -71 q 451 -112 410 -71 q 492 -212 492 -153 q 451 -314 492 -273 q 350 -355 410 -355 z "},"Ḏ":{"ha":979,"x_min":22,"x_max":964,"o":"m 22 0 l 223 1000 l 520 1000 q 752 939 652 1000 q 908 775 852 879 q 964 538 964 671 q 923 328 964 426 q 808 157 882 231 q 635 41 734 83 q 417 0 535 0 l 22 0 m 321 222 l 448 222 q 556 250 507 222 q 641 323 605 277 q 696 426 676 369 q 715 543 715 484 q 691 663 715 610 q 619 747 666 716 q 504 777 572 777 l 433 777 l 321 222 m 37 -286 l 66 -142 l 663 -142 l 634 -286 l 37 -286 z "},"ǅ":{"ha":1653,"x_min":22,"x_max":1700,"o":"m 22 0 l 223 1000 l 520 1000 q 752 939 652 1000 q 908 775 852 879 q 964 538 964 671 q 923 328 964 426 q 808 157 882 231 q 635 41 734 83 q 417 0 535 0 l 22 0 m 321 222 l 448 222 q 556 250 507 222 q 641 323 605 277 q 696 426 676 369 q 715 543 715 484 q 691 663 715 610 q 619 747 666 716 q 504 777 572 777 l 433 777 l 321 222 m 920 0 l 927 47 l 1291 519 l 1291 528 l 1053 528 l 1094 732 l 1688 732 l 1678 684 l 1316 212 l 1316 206 l 1579 206 l 1537 0 l 920 0 m 1367 770 l 1147 981 l 1247 1092 l 1409 936 l 1414 936 l 1619 1092 l 1700 981 l 1411 770 l 1367 770 z "},"Ð":{"ha":1011,"x_min":49,"x_max":996,"o":"m 54 0 l 255 1000 l 552 1000 q 784 939 684 1000 q 940 775 884 879 q 996 538 996 671 q 955 328 996 426 q 840 157 914 231 q 667 41 766 83 q 449 0 567 0 l 54 0 m 353 222 l 480 222 q 588 250 539 222 q 672 323 637 277 q 728 426 708 369 q 747 543 747 484 q 723 663 747 610 q 651 747 698 716 q 536 777 604 777 l 465 777 l 353 222 m 49 441 l 71 555 l 527 555 l 505 441 l 49 441 z "},"E":{"ha":739,"x_min":22,"x_max":801,"o":"m 22 0 l 223 1000 l 801 1000 l 753 777 l 433 777 l 399 612 l 668 612 l 625 397 l 357 397 l 323 222 l 645 222 l 600 0 l 22 0 z "},"É":{"ha":739,"x_min":22,"x_max":801,"o":"m 22 0 l 223 1000 l 801 1000 l 753 777 l 433 777 l 399 612 l 668 612 l 625 397 l 357 397 l 323 222 l 645 222 l 600 0 l 22 0 m 541 1046 l 421 1144 l 621 1355 l 764 1208 l 541 1046 z "},"Ĕ":{"ha":739,"x_min":22,"x_max":851,"o":"m 22 0 l 223 1000 l 801 1000 l 753 777 l 433 777 l 399 612 l 668 612 l 625 397 l 357 397 l 323 222 l 645 222 l 600 0 l 22 0 m 541 1063 q 409 1091 467 1063 q 326 1173 352 1119 q 315 1302 299 1226 l 451 1280 q 458 1224 444 1244 q 498 1196 472 1204 q 553 1188 524 1188 q 655 1217 609 1188 q 712 1302 701 1246 l 851 1280 q 788 1157 837 1205 q 674 1086 740 1109 q 541 1063 608 1063 z "},"Ě":{"ha":739,"x_min":22,"x_max":833,"o":"m 22 0 l 223 1000 l 801 1000 l 753 777 l 433 777 l 399 612 l 668 612 l 625 397 l 357 397 l 323 222 l 645 222 l 600 0 l 22 0 m 507 1049 l 283 1221 l 400 1330 l 547 1205 l 553 1205 l 742 1330 l 833 1221 l 552 1049 l 507 1049 z "},"Ḝ":{"ha":739,"x_min":22,"x_max":851,"o":"m 22 0 l 223 1000 l 801 1000 l 753 777 l 433 777 l 399 612 l 668 612 l 625 397 l 357 397 l 323 222 l 645 222 l 600 0 l 22 0 m 138 -355 l 150 -241 q 261 -224 220 -243 q 305 -185 301 -205 q 289 -153 310 -163 q 216 -139 267 -143 l 284 0 l 390 0 l 326 -111 l 319 -61 q 387 -79 356 -61 q 434 -130 418 -96 q 440 -212 450 -163 q 396 -293 431 -260 q 298 -340 361 -325 q 138 -355 235 -356 m 541 1063 q 409 1091 467 1063 q 326 1173 352 1119 q 315 1302 299 1226 l 451 1280 q 458 1224 444 1244 q 498 1196 472 1204 q 553 1188 524 1188 q 655 1217 609 1188 q 712 1302 701 1246 l 851 1280 q 788 1157 837 1205 q 674 1086 740 1109 q 541 1063 608 1063 z "},"Ê":{"ha":739,"x_min":22,"x_max":830,"o":"m 22 0 l 223 1000 l 801 1000 l 753 777 l 433 777 l 399 612 l 668 612 l 625 397 l 357 397 l 323 222 l 645 222 l 600 0 l 22 0 m 372 1049 l 280 1158 l 562 1330 l 606 1330 l 830 1158 l 713 1049 l 566 1175 l 561 1175 l 372 1049 z "},"Ế":{"ha":739,"x_min":22,"x_max":1042,"o":"m 22 0 l 223 1000 l 801 1000 l 753 777 l 433 777 l 399 612 l 668 612 l 625 397 l 357 397 l 323 222 l 645 222 l 600 0 l 22 0 m 777 1244 l 686 1316 l 957 1550 l 1042 1400 l 777 1244 m 365 1038 l 273 1147 l 555 1316 l 600 1316 l 823 1147 l 707 1038 l 554 1163 l 557 1163 l 365 1038 z "},"Ệ":{"ha":739,"x_min":22,"x_max":848,"o":"m 22 0 l 223 1000 l 801 1000 l 753 777 l 433 777 l 399 612 l 668 612 l 625 397 l 357 397 l 323 222 l 645 222 l 600 0 l 22 0 m 313 -355 q 212 -314 253 -355 q 171 -212 171 -273 q 212 -112 171 -153 q 313 -71 253 -71 q 414 -112 373 -71 q 456 -212 456 -153 q 414 -314 456 -273 q 313 -355 373 -355 m 390 1050 l 298 1158 l 581 1331 l 625 1331 l 848 1158 l 732 1050 l 585 1175 l 579 1175 l 390 1050 z "},"Ề":{"ha":739,"x_min":22,"x_max":801,"o":"m 22 0 l 223 1000 l 801 1000 l 753 777 l 433 777 l 399 612 l 668 612 l 625 397 l 357 397 l 323 222 l 645 222 l 600 0 l 22 0 m 262 1245 l 67 1451 l 213 1567 l 377 1318 l 262 1245 m 299 1042 l 208 1151 l 490 1320 l 534 1320 l 758 1151 l 641 1042 l 488 1167 l 491 1167 l 299 1042 z "},"Ể":{"ha":739,"x_min":22,"x_max":913,"o":"m 22 0 l 223 1000 l 801 1000 l 753 777 l 433 777 l 399 612 l 668 612 l 625 397 l 357 397 l 323 222 l 645 222 l 600 0 l 22 0 m 790 1233 l 689 1315 q 737 1350 720 1333 q 757 1381 754 1368 q 751 1402 760 1394 q 713 1409 743 1409 q 668 1406 692 1409 q 625 1395 644 1402 l 643 1539 q 680 1548 661 1545 q 726 1551 699 1551 q 871 1509 829 1551 q 900 1395 913 1468 q 860 1300 891 1341 q 790 1233 828 1259 m 363 1038 l 272 1147 l 554 1316 l 598 1316 l 822 1147 l 705 1038 l 553 1163 l 555 1163 l 363 1038 z "},"Ễ":{"ha":739,"x_min":22,"x_max":895,"o":"m 22 0 l 223 1000 l 801 1000 l 753 777 l 433 777 l 399 612 l 668 612 l 625 397 l 357 397 l 323 222 l 645 222 l 600 0 l 22 0 m 445 1330 l 295 1344 q 371 1491 315 1436 q 502 1547 427 1547 q 564 1534 538 1547 q 609 1505 589 1522 q 645 1476 628 1489 q 680 1463 661 1463 q 721 1495 705 1463 q 745 1563 738 1526 l 895 1550 q 852 1439 882 1490 q 780 1357 823 1388 q 686 1326 737 1326 q 626 1338 650 1326 q 582 1367 601 1351 q 547 1395 564 1383 q 510 1408 530 1408 q 469 1389 485 1408 q 445 1330 452 1370 m 366 1038 l 274 1147 l 556 1316 l 600 1316 l 824 1147 l 707 1038 l 555 1163 l 557 1163 l 366 1038 z "},"Ȅ":{"ha":739,"x_min":22,"x_max":801,"o":"m 22 0 l 223 1000 l 801 1000 l 753 777 l 433 777 l 399 612 l 668 612 l 625 397 l 357 397 l 323 222 l 645 222 l 600 0 l 22 0 m 347 1055 l 205 1274 l 372 1360 l 473 1113 l 347 1055 m 627 1055 l 488 1274 l 655 1360 l 753 1113 l 627 1055 z "},"Ë":{"ha":739,"x_min":22,"x_max":861,"o":"m 22 0 l 223 1000 l 801 1000 l 753 777 l 433 777 l 399 612 l 668 612 l 625 397 l 357 397 l 323 222 l 645 222 l 600 0 l 22 0 m 737 1044 q 641 1082 680 1044 q 602 1176 602 1120 q 638 1266 602 1230 q 728 1302 675 1302 q 819 1266 781 1302 q 859 1172 857 1231 q 824 1079 861 1114 q 737 1044 788 1044 m 393 1044 q 299 1082 337 1044 q 260 1176 260 1120 q 296 1265 260 1229 q 384 1302 331 1302 q 478 1263 440 1302 q 516 1167 516 1223 q 481 1080 516 1116 q 393 1044 446 1044 z "},"Ė":{"ha":739,"x_min":22,"x_max":801,"o":"m 22 0 l 223 1000 l 801 1000 l 753 777 l 433 777 l 399 612 l 668 612 l 625 397 l 357 397 l 323 222 l 645 222 l 600 0 l 22 0 m 570 1058 q 469 1099 510 1058 q 428 1201 428 1141 q 469 1302 428 1261 q 570 1343 510 1343 q 671 1302 630 1343 q 713 1201 713 1261 q 671 1099 713 1141 q 570 1058 630 1058 z "},"Ẹ":{"ha":739,"x_min":22,"x_max":801,"o":"m 22 0 l 223 1000 l 801 1000 l 753 777 l 433 777 l 399 612 l 668 612 l 625 397 l 357 397 l 323 222 l 645 222 l 600 0 l 22 0 m 297 -355 q 196 -314 237 -355 q 155 -212 155 -273 q 196 -112 155 -153 q 297 -71 237 -71 q 398 -112 357 -71 q 439 -212 439 -153 q 398 -314 439 -273 q 297 -355 357 -355 z "},"È":{"ha":739,"x_min":22,"x_max":801,"o":"m 22 0 l 223 1000 l 801 1000 l 753 777 l 433 777 l 399 612 l 668 612 l 625 397 l 357 397 l 323 222 l 645 222 l 600 0 l 22 0 m 535 1046 l 303 1208 l 438 1355 l 649 1144 l 535 1046 z "},"Ẻ":{"ha":739,"x_min":22,"x_max":801,"o":"m 22 0 l 223 1000 l 801 1000 l 753 777 l 433 777 l 399 612 l 668 612 l 625 397 l 357 397 l 323 222 l 645 222 l 600 0 l 22 0 m 565 1040 l 494 1130 q 536 1159 519 1143 q 557 1194 552 1175 q 550 1217 560 1208 q 507 1225 540 1225 q 459 1222 485 1225 q 414 1212 433 1218 l 433 1356 q 473 1364 452 1362 q 522 1367 494 1367 q 670 1325 626 1367 q 700 1213 713 1284 q 651 1112 688 1155 q 565 1040 614 1069 z "},"Ȇ":{"ha":739,"x_min":22,"x_max":818,"o":"m 22 0 l 223 1000 l 801 1000 l 753 777 l 433 777 l 399 612 l 668 612 l 625 397 l 357 397 l 323 222 l 645 222 l 600 0 l 22 0 m 802 1044 l 663 1066 q 643 1135 671 1104 q 553 1166 614 1166 q 454 1136 494 1166 q 404 1055 415 1107 l 266 1077 q 326 1201 279 1154 q 436 1272 372 1249 q 563 1294 499 1294 q 701 1262 641 1294 q 789 1174 760 1230 q 802 1044 818 1118 z "},"Ē":{"ha":739,"x_min":22,"x_max":849,"o":"m 22 0 l 223 1000 l 801 1000 l 753 777 l 433 777 l 399 612 l 668 612 l 625 397 l 357 397 l 323 222 l 645 222 l 600 0 l 22 0 m 264 1094 l 294 1249 l 849 1249 l 820 1094 l 264 1094 z "},"Ḗ":{"ha":739,"x_min":22,"x_max":849,"o":"m 22 0 l 223 1000 l 801 1000 l 753 777 l 433 777 l 399 612 l 668 612 l 625 397 l 357 397 l 323 222 l 645 222 l 600 0 l 22 0 m 264 1094 l 294 1249 l 849 1249 l 820 1094 l 264 1094 m 589 1296 l 469 1394 l 669 1605 l 812 1457 l 589 1296 z "},"Ḕ":{"ha":739,"x_min":22,"x_max":849,"o":"m 22 0 l 223 1000 l 801 1000 l 753 777 l 433 777 l 399 612 l 668 612 l 625 397 l 357 397 l 323 222 l 645 222 l 600 0 l 22 0 m 264 1094 l 294 1249 l 849 1249 l 820 1094 l 264 1094 m 583 1296 l 351 1457 l 486 1605 l 697 1394 l 583 1296 z "},"Ę":{"ha":739,"x_min":22,"x_max":801,"o":"m 22 0 l 223 1000 l 801 1000 l 753 777 l 433 777 l 399 612 l 668 612 l 625 397 l 357 397 l 323 222 l 645 222 l 600 0 l 22 0 m 438 -297 q 320 -250 359 -297 q 295 -132 281 -203 q 353 -40 306 -81 q 480 41 400 0 l 600 0 q 528 -41 563 -19 q 469 -86 493 -64 q 441 -127 446 -108 q 447 -153 438 -142 q 483 -164 456 -164 q 530 -157 506 -164 q 565 -144 554 -151 l 549 -283 q 492 -294 526 -292 q 438 -297 457 -297 z "},"Ẽ":{"ha":739,"x_min":22,"x_max":850,"o":"m 22 0 l 223 1000 l 801 1000 l 753 777 l 433 777 l 399 612 l 668 612 l 625 397 l 357 397 l 323 222 l 645 222 l 600 0 l 22 0 m 405 1052 l 269 1074 q 340 1224 288 1168 q 466 1280 391 1280 q 535 1269 510 1280 q 576 1242 561 1257 q 603 1216 591 1227 q 631 1205 615 1205 q 683 1232 660 1205 q 713 1291 707 1258 l 850 1269 q 779 1120 832 1177 q 647 1063 725 1063 q 581 1075 606 1063 q 542 1102 557 1086 q 514 1129 527 1118 q 484 1141 502 1141 q 435 1116 456 1141 q 405 1052 414 1092 z "},"Ə":{"ha":1029,"x_min":48,"x_max":1023,"o":"m 447 -11 q 236 35 326 -11 q 97 164 146 81 q 48 359 48 247 q 57 456 48 402 q 82 581 65 510 l 852 581 l 816 381 l 279 381 q 277 367 277 374 q 276 353 276 359 q 330 244 276 288 q 465 201 385 201 q 592 234 536 201 q 689 322 649 267 q 751 446 730 378 q 772 585 772 515 q 727 740 772 686 q 592 793 681 793 q 457 757 514 793 q 360 673 400 721 l 159 785 q 354 950 238 890 q 608 1010 470 1010 q 824 961 730 1010 q 970 818 918 912 q 1023 589 1023 724 q 980 361 1023 469 q 861 169 938 253 q 678 37 783 85 q 447 -11 572 -11 z "},"F":{"ha":713,"x_min":22,"x_max":801,"o":"m 22 0 l 223 1000 l 801 1000 l 756 777 l 433 777 l 393 578 l 659 578 l 614 355 l 349 355 l 277 0 l 22 0 z "},"G":{"ha":1038,"x_min":64,"x_max":1035,"o":"m 514 -11 q 332 24 414 -11 q 190 122 250 60 q 97 268 130 185 q 64 445 64 351 q 110 666 64 563 q 235 846 155 768 q 421 967 315 924 q 647 1010 527 1010 q 826 986 744 1010 q 962 925 908 961 l 826 713 q 750 763 807 743 q 633 783 692 783 q 509 756 567 783 q 408 683 452 730 q 340 576 365 637 q 316 449 316 516 q 342 328 316 382 q 417 243 369 275 q 533 212 466 212 q 645 238 595 212 q 725 312 694 264 q 761 426 755 360 l 869 381 l 521 381 l 560 582 l 1035 582 l 996 388 q 906 188 973 278 q 739 43 840 97 q 514 -11 638 -11 z "},"Ğ":{"ha":1038,"x_min":64,"x_max":1035,"o":"m 514 -11 q 332 24 414 -11 q 190 122 250 60 q 97 268 130 185 q 64 445 64 351 q 110 666 64 563 q 235 846 155 768 q 421 967 315 924 q 647 1010 527 1010 q 826 986 744 1010 q 962 925 908 961 l 826 713 q 750 763 807 743 q 633 783 692 783 q 509 756 567 783 q 408 683 452 730 q 340 576 365 637 q 316 449 316 516 q 342 328 316 382 q 417 243 369 275 q 533 212 466 212 q 645 238 595 212 q 725 312 694 264 q 761 426 755 360 l 869 381 l 521 381 l 560 582 l 1035 582 l 996 388 q 906 188 973 278 q 739 43 840 97 q 514 -11 638 -11 m 672 1063 q 540 1091 597 1063 q 456 1173 483 1119 q 446 1302 430 1226 l 582 1280 q 589 1224 575 1244 q 629 1196 603 1204 q 684 1188 655 1188 q 786 1217 740 1188 q 843 1302 832 1246 l 982 1280 q 919 1157 968 1205 q 805 1086 871 1109 q 672 1063 739 1063 z "},"Ǧ":{"ha":1038,"x_min":64,"x_max":1035,"o":"m 514 -11 q 332 24 414 -11 q 190 122 250 60 q 97 268 130 185 q 64 445 64 351 q 110 666 64 563 q 235 846 155 768 q 421 967 315 924 q 647 1010 527 1010 q 826 986 744 1010 q 962 925 908 961 l 826 713 q 750 763 807 743 q 633 783 692 783 q 509 756 567 783 q 408 683 452 730 q 340 576 365 637 q 316 449 316 516 q 342 328 316 382 q 417 243 369 275 q 533 212 466 212 q 645 238 595 212 q 725 312 694 264 q 761 426 755 360 l 869 381 l 521 381 l 560 582 l 1035 582 l 996 388 q 906 188 973 278 q 739 43 840 97 q 514 -11 638 -11 m 638 1049 l 414 1221 l 531 1330 l 678 1205 l 684 1205 l 873 1330 l 964 1221 l 683 1049 l 638 1049 z "},"Ĝ":{"ha":1038,"x_min":64,"x_max":1035,"o":"m 514 -11 q 332 24 414 -11 q 190 122 250 60 q 97 268 130 185 q 64 445 64 351 q 110 666 64 563 q 235 846 155 768 q 421 967 315 924 q 647 1010 527 1010 q 826 986 744 1010 q 962 925 908 961 l 826 713 q 750 763 807 743 q 633 783 692 783 q 509 756 567 783 q 408 683 452 730 q 340 576 365 637 q 316 449 316 516 q 342 328 316 382 q 417 243 369 275 q 533 212 466 212 q 645 238 595 212 q 725 312 694 264 q 761 426 755 360 l 869 381 l 521 381 l 560 582 l 1035 582 l 996 388 q 906 188 973 278 q 739 43 840 97 q 514 -11 638 -11 m 503 1049 l 411 1158 l 693 1330 l 737 1330 l 961 1158 l 844 1049 l 697 1175 l 692 1175 l 503 1049 z "},"Ģ":{"ha":1038,"x_min":64,"x_max":1035,"o":"m 514 -11 q 332 24 414 -11 q 190 122 250 60 q 97 268 130 185 q 64 445 64 351 q 110 666 64 563 q 235 846 155 768 q 421 967 315 924 q 647 1010 527 1010 q 826 986 744 1010 q 962 925 908 961 l 826 713 q 750 763 807 743 q 633 783 692 783 q 509 756 567 783 q 408 683 452 730 q 340 576 365 637 q 316 449 316 516 q 342 328 316 382 q 417 243 369 275 q 533 212 466 212 q 645 238 595 212 q 725 312 694 264 q 761 426 755 360 l 869 381 l 521 381 l 560 582 l 1035 582 l 996 388 q 906 188 973 278 q 739 43 840 97 q 514 -11 638 -11 m 331 -400 l 294 -339 l 378 -292 q 408 -276 387 -287 q 447 -246 429 -265 q 464 -197 465 -227 l 478 -197 q 472 -233 484 -212 q 429 -253 461 -253 q 362 -224 394 -253 q 330 -153 330 -196 q 360 -85 330 -113 q 431 -58 390 -58 q 504 -89 471 -58 q 536 -177 536 -119 q 504 -280 536 -243 q 424 -345 471 -317 l 331 -400 z "},"Ġ":{"ha":1038,"x_min":64,"x_max":1035,"o":"m 514 -11 q 332 24 414 -11 q 190 122 250 60 q 97 268 130 185 q 64 445 64 351 q 110 666 64 563 q 235 846 155 768 q 421 967 315 924 q 647 1010 527 1010 q 826 986 744 1010 q 962 925 908 961 l 826 713 q 750 763 807 743 q 633 783 692 783 q 509 756 567 783 q 408 683 452 730 q 340 576 365 637 q 316 449 316 516 q 342 328 316 382 q 417 243 369 275 q 533 212 466 212 q 645 238 595 212 q 725 312 694 264 q 761 426 755 360 l 869 381 l 521 381 l 560 582 l 1035 582 l 996 388 q 906 188 973 278 q 739 43 840 97 q 514 -11 638 -11 m 701 1058 q 600 1099 641 1058 q 559 1201 559 1141 q 600 1302 559 1261 q 701 1343 641 1343 q 802 1302 761 1343 q 844 1201 844 1261 q 802 1099 844 1141 q 701 1058 761 1058 z "},"Ḡ":{"ha":1038,"x_min":64,"x_max":1035,"o":"m 514 -11 q 332 24 414 -11 q 190 122 250 60 q 97 268 130 185 q 64 445 64 351 q 110 666 64 563 q 235 846 155 768 q 421 967 315 924 q 647 1010 527 1010 q 826 986 744 1010 q 962 925 908 961 l 826 713 q 750 763 807 743 q 633 783 692 783 q 509 756 567 783 q 408 683 452 730 q 340 576 365 637 q 316 449 316 516 q 342 328 316 382 q 417 243 369 275 q 533 212 466 212 q 645 238 595 212 q 725 312 694 264 q 761 426 755 360 l 869 381 l 521 381 l 560 582 l 1035 582 l 996 388 q 906 188 973 278 q 739 43 840 97 q 514 -11 638 -11 m 395 1094 l 425 1249 l 980 1249 l 951 1094 l 395 1094 z "},"H":{"ha":1036,"x_min":22,"x_max":1067,"o":"m 22 0 l 222 1000 l 477 1000 l 399 614 l 736 614 l 813 1000 l 1067 1000 l 868 0 l 614 0 l 692 393 l 355 393 l 277 0 l 22 0 z "},"Ħ":{"ha":1169,"x_min":22,"x_max":1173,"o":"m 31 739 l 59 866 l 1173 866 l 1145 739 l 31 739 m 22 0 l 222 1000 l 477 1000 l 399 614 l 736 614 l 813 1000 l 1067 1000 l 868 0 l 614 0 l 692 393 l 355 393 l 277 0 l 22 0 z "},"Ḫ":{"ha":1036,"x_min":22,"x_max":1067,"o":"m 22 0 l 222 1000 l 477 1000 l 399 614 l 736 614 l 813 1000 l 1067 1000 l 868 0 l 614 0 l 692 393 l 355 393 l 277 0 l 22 0 m 404 -319 q 268 -285 326 -319 q 183 -193 210 -250 q 168 -70 155 -136 l 310 -92 q 329 -164 302 -137 q 405 -192 357 -192 q 479 -174 444 -192 q 538 -129 514 -157 q 568 -70 562 -100 l 710 -92 q 652 -210 697 -158 q 542 -290 606 -261 q 404 -319 477 -319 z "},"Ĥ":{"ha":1036,"x_min":22,"x_max":1067,"o":"m 22 0 l 222 1000 l 477 1000 l 399 614 l 736 614 l 813 1000 l 1067 1000 l 868 0 l 614 0 l 692 393 l 355 393 l 277 0 l 22 0 m 492 1049 l 401 1158 l 683 1330 l 727 1330 l 951 1158 l 834 1049 l 687 1175 l 682 1175 l 492 1049 z "},"Ḥ":{"ha":1036,"x_min":22,"x_max":1067,"o":"m 22 0 l 222 1000 l 477 1000 l 399 614 l 736 614 l 813 1000 l 1067 1000 l 868 0 l 614 0 l 692 393 l 355 393 l 277 0 l 22 0 m 402 -355 q 301 -314 342 -355 q 260 -212 260 -273 q 301 -112 260 -153 q 402 -71 342 -71 q 503 -112 462 -71 q 545 -212 545 -153 q 503 -314 545 -273 q 402 -355 462 -355 z "},"I":{"ha":467,"x_min":33,"x_max":487,"o":"m 33 0 l 233 1000 l 487 1000 l 288 0 l 33 0 z "},"Í":{"ha":467,"x_min":33,"x_max":601,"o":"m 33 0 l 233 1000 l 487 1000 l 288 0 l 33 0 m 377 1046 l 258 1144 l 458 1355 l 601 1208 l 377 1046 z "},"Ĭ":{"ha":488,"x_min":44,"x_max":699,"o":"m 44 0 l 243 1000 l 498 1000 l 298 0 l 44 0 m 389 1063 q 257 1091 314 1063 q 173 1173 199 1119 q 162 1302 146 1226 l 298 1280 q 306 1224 292 1244 q 346 1196 319 1204 q 401 1188 372 1188 q 503 1217 456 1188 q 559 1302 549 1246 l 699 1280 q 636 1157 684 1205 q 522 1086 587 1109 q 389 1063 456 1063 z "},"Ǐ":{"ha":488,"x_min":44,"x_max":681,"o":"m 44 0 l 243 1000 l 498 1000 l 298 0 l 44 0 m 355 1049 l 131 1221 l 248 1330 l 395 1205 l 401 1205 l 589 1330 l 681 1221 l 399 1049 l 355 1049 z "},"Î":{"ha":488,"x_min":44,"x_max":677,"o":"m 44 0 l 243 1000 l 498 1000 l 298 0 l 44 0 m 219 1049 l 127 1158 l 410 1330 l 454 1330 l 677 1158 l 561 1049 l 414 1175 l 408 1175 l 219 1049 z "},"Ȉ":{"ha":488,"x_min":44,"x_max":601,"o":"m 44 0 l 243 1000 l 498 1000 l 298 0 l 44 0 m 194 1055 l 52 1274 l 219 1360 l 320 1113 l 194 1055 m 475 1055 l 336 1274 l 503 1360 l 601 1113 l 475 1055 z "},"Ï":{"ha":536,"x_min":68,"x_max":732,"o":"m 68 0 l 267 1000 l 522 1000 l 322 0 l 68 0 m 608 1044 q 512 1082 551 1044 q 473 1176 473 1120 q 510 1266 473 1230 q 600 1302 546 1302 q 690 1266 652 1302 q 730 1172 728 1231 q 695 1079 732 1114 q 608 1044 659 1044 m 264 1044 q 170 1082 208 1044 q 132 1176 132 1120 q 167 1265 132 1229 q 255 1302 202 1302 q 349 1263 311 1302 q 387 1167 387 1223 q 352 1080 387 1116 q 264 1044 317 1044 z "},"Ḯ":{"ha":536,"x_min":68,"x_max":732,"o":"m 68 0 l 267 1000 l 522 1000 l 322 0 l 68 0 m 608 1044 q 512 1082 551 1044 q 473 1176 473 1120 q 510 1266 473 1230 q 600 1302 546 1302 q 690 1266 652 1302 q 730 1172 728 1231 q 695 1079 732 1114 q 608 1044 659 1044 m 264 1044 q 170 1082 208 1044 q 132 1176 132 1120 q 167 1265 132 1229 q 255 1302 202 1302 q 349 1263 311 1302 q 387 1167 387 1223 q 352 1080 387 1116 q 264 1044 317 1044 m 463 1302 l 344 1400 l 544 1611 l 687 1463 l 463 1302 z "},"İ":{"ha":467,"x_min":33,"x_max":549,"o":"m 33 0 l 233 1000 l 487 1000 l 288 0 l 33 0 m 407 1058 q 306 1099 347 1058 q 264 1201 264 1141 q 306 1302 264 1261 q 407 1343 347 1343 q 508 1302 467 1343 q 549 1201 549 1261 q 508 1099 549 1141 q 407 1058 467 1058 z "},"Ị":{"ha":467,"x_min":-24,"x_max":487,"o":"m 33 0 l 233 1000 l 487 1000 l 288 0 l 33 0 m 118 -355 q 17 -314 58 -355 q -24 -212 -24 -273 q 17 -112 -24 -153 q 118 -71 58 -71 q 219 -112 178 -71 q 260 -212 260 -153 q 219 -314 260 -273 q 118 -355 178 -355 z "},"Ì":{"ha":467,"x_min":33,"x_max":487,"o":"m 33 0 l 233 1000 l 487 1000 l 288 0 l 33 0 m 372 1046 l 140 1208 l 275 1355 l 486 1144 l 372 1046 z "},"Ỉ":{"ha":467,"x_min":33,"x_max":550,"o":"m 33 0 l 233 1000 l 487 1000 l 288 0 l 33 0 m 401 1040 l 330 1130 q 372 1159 356 1143 q 393 1194 389 1175 q 387 1217 397 1208 q 343 1225 376 1225 q 296 1222 321 1225 q 250 1212 270 1218 l 269 1356 q 309 1364 288 1362 q 358 1367 330 1367 q 506 1325 463 1367 q 536 1213 550 1284 q 488 1112 525 1155 q 401 1040 450 1069 z "},"Ȋ":{"ha":536,"x_min":68,"x_max":689,"o":"m 68 0 l 267 1000 l 522 1000 l 322 0 l 68 0 m 673 1044 l 534 1066 q 514 1135 543 1104 q 425 1166 485 1166 q 326 1136 365 1166 q 275 1055 286 1107 l 137 1077 q 197 1201 151 1154 q 307 1272 243 1249 q 434 1294 370 1294 q 572 1262 512 1294 q 660 1174 631 1230 q 673 1044 689 1118 z "},"Ī":{"ha":536,"x_min":68,"x_max":720,"o":"m 68 0 l 267 1000 l 522 1000 l 322 0 l 68 0 m 136 1094 l 165 1249 l 720 1249 l 691 1094 l 136 1094 z "},"Į":{"ha":467,"x_min":-32,"x_max":487,"o":"m 33 0 l 233 1000 l 487 1000 l 288 0 l 33 0 m 125 -297 q 7 -250 47 -297 q -18 -132 -32 -203 q 40 -40 -7 -81 q 168 41 87 0 l 287 0 q 215 -41 250 -19 q 157 -86 180 -64 q 128 -127 133 -108 q 134 -153 125 -142 q 170 -164 143 -164 q 217 -157 193 -164 q 252 -144 241 -151 l 237 -283 q 179 -294 214 -292 q 125 -297 144 -297 z "},"Ĩ":{"ha":547,"x_min":73,"x_max":726,"o":"m 73 0 l 273 1000 l 527 1000 l 328 0 l 73 0 m 281 1052 l 146 1074 q 216 1224 165 1168 q 342 1280 268 1280 q 412 1269 387 1280 q 453 1242 437 1257 q 480 1216 468 1227 q 508 1205 492 1205 q 560 1232 536 1205 q 590 1291 583 1258 l 726 1269 q 655 1120 709 1177 q 524 1063 602 1063 q 458 1075 482 1063 q 418 1102 433 1086 q 391 1129 404 1118 q 361 1141 378 1141 q 312 1116 333 1141 q 281 1052 290 1092 z "},"J":{"ha":760,"x_min":-16,"x_max":791,"o":"m 294 -11 q 126 28 200 -11 q 18 145 52 67 q 7 340 -16 224 l 243 319 q 241 261 235 285 q 262 224 246 237 q 304 212 279 212 q 360 233 340 212 q 389 283 380 255 q 401 328 398 311 l 536 1000 l 791 1000 l 652 309 q 530 74 623 159 q 294 -11 438 -11 z "},"Ĵ":{"ha":770,"x_min":-16,"x_max":968,"o":"m 294 -11 q 126 28 200 -11 q 18 145 52 67 q 7 340 -16 224 l 243 319 q 241 261 235 285 q 262 224 246 237 q 304 212 279 212 q 360 233 340 212 q 389 283 380 255 q 401 328 398 311 l 536 1000 l 791 1000 l 652 309 q 530 74 623 159 q 294 -11 438 -11 m 510 1049 l 418 1158 l 701 1330 l 745 1330 l 968 1158 l 852 1049 l 705 1175 l 699 1175 l 510 1049 z "},"K":{"ha":954,"x_min":22,"x_max":1069,"o":"m 22 0 l 222 1000 l 477 1000 l 387 553 l 445 553 l 370 524 l 755 1000 l 1069 1000 l 560 411 l 559 560 l 869 0 l 590 0 l 343 472 l 418 427 l 362 427 l 277 0 l 22 0 z "},"Ķ":{"ha":954,"x_min":22,"x_max":1069,"o":"m 22 0 l 222 1000 l 477 1000 l 387 553 l 445 553 l 370 524 l 755 1000 l 1069 1000 l 560 411 l 559 560 l 869 0 l 590 0 l 343 472 l 418 427 l 362 427 l 277 0 l 22 0 m 290 -400 l 253 -339 l 337 -292 q 368 -276 347 -287 q 406 -246 389 -265 q 423 -197 424 -227 l 437 -197 q 432 -233 443 -212 q 389 -253 420 -253 q 321 -224 353 -253 q 289 -153 289 -196 q 319 -85 289 -113 q 390 -58 349 -58 q 463 -89 431 -58 q 496 -177 496 -119 q 463 -280 496 -243 q 383 -345 430 -317 l 290 -400 z "},"L":{"ha":684,"x_min":22,"x_max":633,"o":"m 22 0 l 222 1000 l 477 1000 l 321 222 l 633 222 l 589 0 l 22 0 z "},"Ǉ":{"ha":1443,"x_min":22,"x_max":1474,"o":"m 22 0 l 222 1000 l 477 1000 l 321 222 l 633 222 l 589 0 l 22 0 m 978 -11 q 810 28 884 -11 q 702 145 736 67 q 690 340 667 224 l 926 319 q 924 261 919 285 q 946 224 930 237 q 987 212 962 212 q 1043 233 1023 212 q 1073 283 1063 255 q 1085 328 1082 311 l 1220 1000 l 1474 1000 l 1336 309 q 1214 74 1306 159 q 978 -11 1122 -11 z "},"Ĺ":{"ha":684,"x_min":22,"x_max":633,"o":"m 22 0 l 222 1000 l 477 1000 l 321 222 l 633 222 l 589 0 l 22 0 m 372 1046 l 253 1144 l 453 1355 l 596 1208 l 372 1046 z "},"Ľ":{"ha":684,"x_min":22,"x_max":827,"o":"m 22 0 l 222 1000 l 477 1000 l 321 222 l 633 222 l 589 0 l 22 0 m 562 642 l 635 1000 l 827 1000 l 729 642 l 562 642 z "},"Ļ":{"ha":684,"x_min":22,"x_max":633,"o":"m 22 0 l 222 1000 l 477 1000 l 321 222 l 633 222 l 589 0 l 22 0 m 184 -400 l 146 -339 l 231 -292 q 261 -276 240 -287 q 300 -246 282 -265 q 317 -197 317 -227 l 331 -197 q 325 -233 336 -212 q 282 -253 314 -253 q 215 -224 247 -253 q 182 -153 182 -196 q 213 -85 182 -113 q 283 -58 243 -58 q 357 -89 324 -58 q 389 -177 389 -119 q 356 -280 389 -243 q 277 -345 323 -317 l 184 -400 z "},"Ŀ":{"ha":800,"x_min":22,"x_max":788,"o":"m 22 0 l 222 1000 l 477 1000 l 321 222 l 633 222 l 589 0 l 22 0 m 650 364 q 552 405 592 364 q 511 503 511 445 q 552 601 511 560 q 650 641 592 641 q 748 601 707 641 q 788 503 788 560 q 748 405 788 445 q 650 364 707 364 z "},"Ḷ":{"ha":684,"x_min":22,"x_max":633,"o":"m 22 0 l 222 1000 l 477 1000 l 321 222 l 633 222 l 589 0 l 22 0 m 271 -355 q 169 -314 210 -355 q 128 -212 128 -273 q 169 -112 128 -153 q 271 -71 210 -71 q 372 -112 330 -71 q 413 -212 413 -153 q 372 -314 413 -273 q 271 -355 330 -355 z "},"ǈ":{"ha":1099,"x_min":22,"x_max":1154,"o":"m 22 0 l 222 1000 l 477 1000 l 321 222 l 633 222 l 589 0 l 22 0 m 631 -302 q 573 -299 602 -302 q 517 -289 545 -295 l 560 -84 q 585 -89 568 -88 q 609 -90 602 -90 q 673 -65 649 -90 q 703 -14 697 -41 l 850 732 l 1091 732 l 942 -20 q 885 -169 925 -105 q 781 -267 844 -232 q 631 -302 718 -302 m 1012 808 q 910 850 951 808 q 869 951 869 891 q 910 1052 869 1011 q 1012 1093 951 1093 q 1113 1052 1072 1093 q 1154 951 1154 1011 q 1113 850 1154 891 q 1012 808 1072 808 z "},"Ḻ":{"ha":684,"x_min":-43,"x_max":633,"o":"m 22 0 l 222 1000 l 477 1000 l 321 222 l 633 222 l 589 0 l 22 0 m -43 -286 l -14 -142 l 584 -142 l 555 -286 l -43 -286 z "},"Ł":{"ha":718,"x_min":-20,"x_max":668,"o":"m 22 319 l -20 428 l 183 545 l 400 628 l 547 711 l 587 603 l 351 478 l 135 392 l 22 319 m 57 0 l 256 1000 l 511 1000 l 356 222 l 668 222 l 623 0 l 57 0 z "},"M":{"ha":1228,"x_min":22,"x_max":1259,"o":"m 22 0 l 223 1000 l 393 1000 l 619 553 l 625 553 l 1055 1000 l 1259 1000 l 1060 0 l 806 0 l 860 271 l 939 581 l 934 581 l 592 209 l 549 209 l 380 552 l 372 552 l 328 271 l 278 0 l 22 0 z "},"Ṃ":{"ha":1228,"x_min":22,"x_max":1259,"o":"m 22 0 l 223 1000 l 393 1000 l 619 553 l 625 553 l 1055 1000 l 1259 1000 l 1060 0 l 806 0 l 860 271 l 939 581 l 934 581 l 592 209 l 549 209 l 380 552 l 372 552 l 328 271 l 278 0 l 22 0 m 513 -355 q 412 -314 453 -355 q 371 -212 371 -273 q 412 -112 371 -153 q 513 -71 453 -71 q 614 -112 573 -71 q 656 -212 656 -153 q 614 -314 656 -273 q 513 -355 573 -355 z "},"N":{"ha":1055,"x_min":22,"x_max":1086,"o":"m 22 0 l 223 1000 l 406 1000 l 675 528 l 721 434 l 726 434 l 760 647 l 832 1000 l 1086 1000 l 885 0 l 698 0 l 431 483 l 382 579 l 376 579 l 347 353 l 281 0 l 22 0 z "},"Ǌ":{"ha":1814,"x_min":22,"x_max":1845,"o":"m 22 0 l 223 1000 l 406 1000 l 675 528 l 721 434 l 726 434 l 760 647 l 832 1000 l 1086 1000 l 885 0 l 698 0 l 431 483 l 382 579 l 376 579 l 347 353 l 281 0 l 22 0 m 1349 -11 q 1181 28 1255 -11 q 1073 145 1107 67 q 1061 340 1038 224 l 1297 319 q 1295 261 1290 285 q 1317 224 1301 237 q 1358 212 1333 212 q 1414 233 1394 212 q 1443 283 1434 255 q 1456 328 1453 311 l 1591 1000 l 1845 1000 l 1707 309 q 1585 74 1677 159 q 1349 -11 1493 -11 z "},"Ń":{"ha":1055,"x_min":22,"x_max":1086,"o":"m 22 0 l 223 1000 l 406 1000 l 675 528 l 721 434 l 726 434 l 760 647 l 832 1000 l 1086 1000 l 885 0 l 698 0 l 431 483 l 382 579 l 376 579 l 347 353 l 281 0 l 22 0 m 671 1046 l 552 1144 l 752 1355 l 895 1208 l 671 1046 z "},"Ň":{"ha":1055,"x_min":22,"x_max":1086,"o":"m 22 0 l 223 1000 l 406 1000 l 675 528 l 721 434 l 726 434 l 760 647 l 832 1000 l 1086 1000 l 885 0 l 698 0 l 431 483 l 382 579 l 376 579 l 347 353 l 281 0 l 22 0 m 638 1049 l 414 1221 l 531 1330 l 678 1205 l 684 1205 l 873 1330 l 964 1221 l 683 1049 l 638 1049 z "},"Ņ":{"ha":1055,"x_min":22,"x_max":1086,"o":"m 22 0 l 223 1000 l 406 1000 l 675 528 l 721 434 l 726 434 l 760 647 l 832 1000 l 1086 1000 l 885 0 l 698 0 l 431 483 l 382 579 l 376 579 l 347 353 l 281 0 l 22 0 m 321 -400 l 284 -339 l 368 -292 q 399 -276 378 -287 q 437 -246 420 -265 q 454 -197 455 -227 l 469 -197 q 463 -233 474 -212 q 420 -253 452 -253 q 352 -224 385 -253 q 320 -153 320 -196 q 350 -85 320 -113 q 421 -58 380 -58 q 494 -89 462 -58 q 527 -177 527 -119 q 494 -280 527 -243 q 414 -345 461 -317 l 321 -400 z "},"Ṅ":{"ha":1055,"x_min":22,"x_max":1086,"o":"m 22 0 l 223 1000 l 406 1000 l 675 528 l 721 434 l 726 434 l 760 647 l 832 1000 l 1086 1000 l 885 0 l 698 0 l 431 483 l 382 579 l 376 579 l 347 353 l 281 0 l 22 0 m 701 1058 q 600 1099 641 1058 q 559 1201 559 1141 q 600 1302 559 1261 q 701 1343 641 1343 q 802 1302 761 1343 q 844 1201 844 1261 q 802 1099 844 1141 q 701 1058 761 1058 z "},"Ṇ":{"ha":1055,"x_min":22,"x_max":1086,"o":"m 22 0 l 223 1000 l 406 1000 l 675 528 l 721 434 l 726 434 l 760 647 l 832 1000 l 1086 1000 l 885 0 l 698 0 l 431 483 l 382 579 l 376 579 l 347 353 l 281 0 l 22 0 m 408 -355 q 307 -314 348 -355 q 266 -212 266 -273 q 307 -112 266 -153 q 408 -71 348 -71 q 509 -112 468 -71 q 551 -212 551 -153 q 509 -314 551 -273 q 408 -355 468 -355 z "},"ǋ":{"ha":1470,"x_min":22,"x_max":1525,"o":"m 22 0 l 223 1000 l 406 1000 l 675 528 l 721 434 l 726 434 l 760 647 l 832 1000 l 1086 1000 l 885 0 l 698 0 l 431 483 l 382 579 l 376 579 l 347 353 l 281 0 l 22 0 m 1002 -302 q 944 -299 972 -302 q 888 -289 916 -295 l 931 -84 q 956 -89 939 -88 q 980 -90 973 -90 q 1044 -65 1020 -90 q 1074 -14 1068 -41 l 1221 732 l 1462 732 l 1313 -20 q 1256 -169 1296 -105 q 1152 -267 1215 -232 q 1002 -302 1088 -302 m 1383 808 q 1281 850 1322 808 q 1240 951 1240 891 q 1281 1052 1240 1011 q 1383 1093 1322 1093 q 1484 1052 1442 1093 q 1525 951 1525 1011 q 1484 850 1525 891 q 1383 808 1442 808 z "},"Ṉ":{"ha":1055,"x_min":22,"x_max":1086,"o":"m 22 0 l 223 1000 l 406 1000 l 675 528 l 721 434 l 726 434 l 760 647 l 832 1000 l 1086 1000 l 885 0 l 698 0 l 431 483 l 382 579 l 376 579 l 347 353 l 281 0 l 22 0 m 95 -286 l 124 -142 l 722 -142 l 692 -286 l 95 -286 z "},"Ñ":{"ha":1055,"x_min":22,"x_max":1086,"o":"m 22 0 l 223 1000 l 406 1000 l 675 528 l 721 434 l 726 434 l 760 647 l 832 1000 l 1086 1000 l 885 0 l 698 0 l 431 483 l 382 579 l 376 579 l 347 353 l 281 0 l 22 0 m 536 1052 l 400 1074 q 471 1224 419 1168 q 597 1280 522 1280 q 666 1269 641 1280 q 707 1242 692 1257 q 734 1216 722 1227 q 762 1205 746 1205 q 814 1232 791 1205 q 844 1291 838 1258 l 981 1269 q 909 1120 963 1177 q 778 1063 856 1063 q 712 1075 736 1063 q 673 1102 688 1086 q 645 1129 658 1118 q 615 1141 633 1141 q 566 1116 587 1141 q 536 1052 545 1092 z "},"Ŋ":{"ha":1055,"x_min":22,"x_max":1086,"o":"m 541 -302 q 452 -294 494 -302 q 381 -272 410 -285 l 445 -75 q 487 -91 471 -87 q 521 -94 504 -94 q 601 -69 567 -94 q 641 -11 634 -43 l 661 81 l 885 0 l 881 -20 q 769 -224 854 -146 q 541 -302 684 -302 m 22 0 l 223 1000 l 406 1000 l 675 528 l 721 434 l 726 434 l 760 647 l 832 1000 l 1086 1000 l 885 0 l 698 0 l 431 483 l 382 579 l 376 579 l 347 353 l 281 0 l 22 0 z "},"O":{"ha":1089,"x_min":67,"x_max":1076,"o":"m 525 -11 q 285 50 388 -11 q 124 215 182 110 q 67 455 67 321 q 109 670 67 569 q 224 847 150 770 q 399 968 299 924 q 618 1012 500 1012 q 807 977 723 1012 q 952 880 892 943 q 1044 733 1012 817 q 1076 549 1076 649 q 1034 332 1076 433 q 916 154 991 231 q 741 33 841 77 q 525 -11 641 -11 m 540 217 q 655 244 603 217 q 745 316 707 271 q 804 420 783 362 q 825 541 825 478 q 798 666 825 611 q 722 752 772 721 q 604 784 673 784 q 488 757 541 784 q 398 685 436 730 q 340 581 360 639 q 319 461 319 524 q 346 335 319 391 q 422 249 373 280 q 540 217 472 217 z "},"Ó":{"ha":1089,"x_min":67,"x_max":1076,"o":"m 525 -11 q 285 50 388 -11 q 124 215 182 110 q 67 455 67 321 q 109 670 67 569 q 224 847 150 770 q 399 968 299 924 q 618 1012 500 1012 q 807 977 723 1012 q 952 880 892 943 q 1044 733 1012 817 q 1076 549 1076 649 q 1034 332 1076 433 q 916 154 991 231 q 741 33 841 77 q 525 -11 641 -11 m 540 217 q 655 244 603 217 q 745 316 707 271 q 804 420 783 362 q 825 541 825 478 q 798 666 825 611 q 722 752 772 721 q 604 784 673 784 q 488 757 541 784 q 398 685 436 730 q 340 581 360 639 q 319 461 319 524 q 346 335 319 391 q 422 249 373 280 q 540 217 472 217 m 663 1046 l 544 1144 l 744 1355 l 887 1208 l 663 1046 z "},"Ŏ":{"ha":1089,"x_min":67,"x_max":1076,"o":"m 525 -11 q 285 50 388 -11 q 124 215 182 110 q 67 455 67 321 q 109 670 67 569 q 224 847 150 770 q 399 968 299 924 q 618 1012 500 1012 q 807 977 723 1012 q 952 880 892 943 q 1044 733 1012 817 q 1076 549 1076 649 q 1034 332 1076 433 q 916 154 991 231 q 741 33 841 77 q 525 -11 641 -11 m 540 217 q 655 244 603 217 q 745 316 707 271 q 804 420 783 362 q 825 541 825 478 q 798 666 825 611 q 722 752 772 721 q 604 784 673 784 q 488 757 541 784 q 398 685 436 730 q 340 581 360 639 q 319 461 319 524 q 346 335 319 391 q 422 249 373 280 q 540 217 472 217 m 664 1063 q 532 1091 589 1063 q 448 1173 475 1119 q 437 1302 422 1226 l 574 1280 q 581 1224 567 1244 q 621 1196 595 1204 q 676 1188 647 1188 q 778 1217 732 1188 q 835 1302 824 1246 l 974 1280 q 911 1157 960 1205 q 797 1086 863 1109 q 664 1063 731 1063 z "},"Ô":{"ha":1089,"x_min":67,"x_max":1076,"o":"m 525 -11 q 285 50 388 -11 q 124 215 182 110 q 67 455 67 321 q 109 670 67 569 q 224 847 150 770 q 399 968 299 924 q 618 1012 500 1012 q 807 977 723 1012 q 952 880 892 943 q 1044 733 1012 817 q 1076 549 1076 649 q 1034 332 1076 433 q 916 154 991 231 q 741 33 841 77 q 525 -11 641 -11 m 540 217 q 655 244 603 217 q 745 316 707 271 q 804 420 783 362 q 825 541 825 478 q 798 666 825 611 q 722 752 772 721 q 604 784 673 784 q 488 757 541 784 q 398 685 436 730 q 340 581 360 639 q 319 461 319 524 q 346 335 319 391 q 422 249 373 280 q 540 217 472 217 m 494 1049 l 403 1158 l 685 1330 l 729 1330 l 953 1158 l 836 1049 l 689 1175 l 684 1175 l 494 1049 z "},"Ố":{"ha":1089,"x_min":67,"x_max":1164,"o":"m 525 -11 q 285 50 388 -11 q 124 215 182 110 q 67 455 67 321 q 109 670 67 569 q 224 847 150 770 q 399 968 299 924 q 618 1012 500 1012 q 807 977 723 1012 q 952 880 892 943 q 1044 733 1012 817 q 1076 549 1076 649 q 1034 332 1076 433 q 916 154 991 231 q 741 33 841 77 q 525 -11 641 -11 m 540 217 q 655 244 603 217 q 745 316 707 271 q 804 420 783 362 q 825 541 825 478 q 798 666 825 611 q 722 752 772 721 q 604 784 673 784 q 488 757 541 784 q 398 685 436 730 q 340 581 360 639 q 319 461 319 524 q 346 335 319 391 q 422 249 373 280 q 540 217 472 217 m 899 1244 l 809 1316 l 1080 1550 l 1164 1400 l 899 1244 m 488 1038 l 396 1147 l 678 1316 l 722 1316 l 946 1147 l 829 1038 l 677 1163 l 680 1163 l 488 1038 z "},"Ộ":{"ha":1089,"x_min":67,"x_max":1076,"o":"m 525 -11 q 285 50 388 -11 q 124 215 182 110 q 67 455 67 321 q 109 670 67 569 q 224 847 150 770 q 399 968 299 924 q 618 1012 500 1012 q 807 977 723 1012 q 952 880 892 943 q 1044 733 1012 817 q 1076 549 1076 649 q 1034 332 1076 433 q 916 154 991 231 q 741 33 841 77 q 525 -11 641 -11 m 540 217 q 655 244 603 217 q 745 316 707 271 q 804 420 783 362 q 825 541 825 478 q 798 666 825 611 q 722 752 772 721 q 604 784 673 784 q 488 757 541 784 q 398 685 436 730 q 340 581 360 639 q 319 461 319 524 q 346 335 319 391 q 422 249 373 280 q 540 217 472 217 m 472 -355 q 371 -314 412 -355 q 330 -212 330 -273 q 371 -112 330 -153 q 472 -71 412 -71 q 573 -112 532 -71 q 614 -212 614 -153 q 573 -314 614 -273 q 472 -355 532 -355 m 549 1050 l 457 1158 l 739 1331 l 783 1331 l 1007 1158 l 890 1050 l 743 1175 l 738 1175 l 549 1050 z "},"Ồ":{"ha":1089,"x_min":67,"x_max":1076,"o":"m 525 -11 q 285 50 388 -11 q 124 215 182 110 q 67 455 67 321 q 109 670 67 569 q 224 847 150 770 q 399 968 299 924 q 618 1012 500 1012 q 807 977 723 1012 q 952 880 892 943 q 1044 733 1012 817 q 1076 549 1076 649 q 1034 332 1076 433 q 916 154 991 231 q 741 33 841 77 q 525 -11 641 -11 m 540 217 q 655 244 603 217 q 745 316 707 271 q 804 420 783 362 q 825 541 825 478 q 798 666 825 611 q 722 752 772 721 q 604 784 673 784 q 488 757 541 784 q 398 685 436 730 q 340 581 360 639 q 319 461 319 524 q 346 335 319 391 q 422 249 373 280 q 540 217 472 217 m 385 1245 l 190 1451 l 336 1567 l 500 1318 l 385 1245 m 422 1042 l 330 1151 l 612 1320 l 656 1320 l 880 1151 l 764 1042 l 611 1167 l 614 1167 l 422 1042 z "},"Ổ":{"ha":1089,"x_min":67,"x_max":1076,"o":"m 525 -11 q 285 50 388 -11 q 124 215 182 110 q 67 455 67 321 q 109 670 67 569 q 224 847 150 770 q 399 968 299 924 q 618 1012 500 1012 q 807 977 723 1012 q 952 880 892 943 q 1044 733 1012 817 q 1076 549 1076 649 q 1034 332 1076 433 q 916 154 991 231 q 741 33 841 77 q 525 -11 641 -11 m 540 217 q 655 244 603 217 q 745 316 707 271 q 804 420 783 362 q 825 541 825 478 q 798 666 825 611 q 722 752 772 721 q 604 784 673 784 q 488 757 541 784 q 398 685 436 730 q 340 581 360 639 q 319 461 319 524 q 346 335 319 391 q 422 249 373 280 q 540 217 472 217 m 913 1233 l 812 1315 q 860 1350 843 1333 q 880 1381 877 1368 q 874 1402 883 1394 q 836 1409 865 1409 q 790 1406 814 1409 q 748 1395 766 1402 l 766 1539 q 803 1548 783 1545 q 849 1551 822 1551 q 994 1509 952 1551 q 1023 1395 1036 1468 q 982 1300 1014 1341 q 913 1233 951 1259 m 486 1038 l 395 1147 l 677 1316 l 721 1316 l 945 1147 l 828 1038 l 675 1163 l 678 1163 l 486 1038 z "},"Ỗ":{"ha":1089,"x_min":67,"x_max":1076,"o":"m 525 -11 q 285 50 388 -11 q 124 215 182 110 q 67 455 67 321 q 109 670 67 569 q 224 847 150 770 q 399 968 299 924 q 618 1012 500 1012 q 807 977 723 1012 q 952 880 892 943 q 1044 733 1012 817 q 1076 549 1076 649 q 1034 332 1076 433 q 916 154 991 231 q 741 33 841 77 q 525 -11 641 -11 m 540 217 q 655 244 603 217 q 745 316 707 271 q 804 420 783 362 q 825 541 825 478 q 798 666 825 611 q 722 752 772 721 q 604 784 673 784 q 488 757 541 784 q 398 685 436 730 q 340 581 360 639 q 319 461 319 524 q 346 335 319 391 q 422 249 373 280 q 540 217 472 217 m 568 1330 l 418 1344 q 493 1491 437 1436 q 625 1547 549 1547 q 687 1534 661 1547 q 731 1505 712 1522 q 767 1476 751 1489 q 802 1463 784 1463 q 844 1495 827 1463 q 867 1563 861 1526 l 1017 1550 q 975 1439 1005 1490 q 903 1357 945 1388 q 809 1326 860 1326 q 748 1338 773 1326 q 705 1367 724 1351 q 669 1395 686 1383 q 633 1408 652 1408 q 591 1389 608 1408 q 568 1330 575 1370 m 488 1038 l 397 1147 l 679 1316 l 723 1316 l 947 1147 l 830 1038 l 677 1163 l 680 1163 l 488 1038 z "},"Ȍ":{"ha":1089,"x_min":67,"x_max":1076,"o":"m 525 -11 q 285 50 388 -11 q 124 215 182 110 q 67 455 67 321 q 109 670 67 569 q 224 847 150 770 q 399 968 299 924 q 618 1012 500 1012 q 807 977 723 1012 q 952 880 892 943 q 1044 733 1012 817 q 1076 549 1076 649 q 1034 332 1076 433 q 916 154 991 231 q 741 33 841 77 q 525 -11 641 -11 m 540 217 q 655 244 603 217 q 745 316 707 271 q 804 420 783 362 q 825 541 825 478 q 798 666 825 611 q 722 752 772 721 q 604 784 673 784 q 488 757 541 784 q 398 685 436 730 q 340 581 360 639 q 319 461 319 524 q 346 335 319 391 q 422 249 373 280 q 540 217 472 217 m 469 1055 l 328 1274 l 494 1360 l 595 1113 l 469 1055 m 750 1055 l 611 1274 l 778 1360 l 876 1113 l 750 1055 z "},"Ö":{"ha":1089,"x_min":67,"x_max":1076,"o":"m 525 -11 q 285 50 388 -11 q 124 215 182 110 q 67 455 67 321 q 109 670 67 569 q 224 847 150 770 q 399 968 299 924 q 618 1012 500 1012 q 807 977 723 1012 q 952 880 892 943 q 1044 733 1012 817 q 1076 549 1076 649 q 1034 332 1076 433 q 916 154 991 231 q 741 33 841 77 q 525 -11 641 -11 m 540 217 q 655 244 603 217 q 745 316 707 271 q 804 420 783 362 q 825 541 825 478 q 798 666 825 611 q 722 752 772 721 q 604 784 673 784 q 488 757 541 784 q 398 685 436 730 q 340 581 360 639 q 319 461 319 524 q 346 335 319 391 q 422 249 373 280 q 540 217 472 217 m 860 1044 q 764 1082 802 1044 q 725 1176 725 1120 q 761 1266 725 1230 q 851 1302 798 1302 q 942 1266 903 1302 q 982 1172 980 1231 q 947 1079 983 1114 q 860 1044 911 1044 m 515 1044 q 421 1082 460 1044 q 383 1176 383 1120 q 418 1265 383 1229 q 507 1302 454 1302 q 601 1263 563 1302 q 639 1167 639 1223 q 604 1080 639 1116 q 515 1044 568 1044 z "},"Ȫ":{"ha":1089,"x_min":67,"x_max":1076,"o":"m 525 -11 q 285 50 388 -11 q 124 215 182 110 q 67 455 67 321 q 109 670 67 569 q 224 847 150 770 q 399 968 299 924 q 618 1012 500 1012 q 807 977 723 1012 q 952 880 892 943 q 1044 733 1012 817 q 1076 549 1076 649 q 1034 332 1076 433 q 916 154 991 231 q 741 33 841 77 q 525 -11 641 -11 m 540 217 q 655 244 603 217 q 745 316 707 271 q 804 420 783 362 q 825 541 825 478 q 798 666 825 611 q 722 752 772 721 q 604 784 673 784 q 488 757 541 784 q 398 685 436 730 q 340 581 360 639 q 319 461 319 524 q 346 335 319 391 q 422 249 373 280 q 540 217 472 217 m 860 1044 q 764 1082 802 1044 q 725 1176 725 1120 q 761 1266 725 1230 q 851 1302 798 1302 q 942 1266 903 1302 q 982 1172 980 1231 q 947 1079 983 1114 q 860 1044 911 1044 m 515 1044 q 421 1082 460 1044 q 383 1176 383 1120 q 418 1265 383 1229 q 507 1302 454 1302 q 601 1263 563 1302 q 639 1167 639 1223 q 604 1080 639 1116 q 515 1044 568 1044 m 439 1350 l 468 1505 l 1023 1505 l 994 1350 l 439 1350 z "},"Ȱ":{"ha":1089,"x_min":67,"x_max":1076,"o":"m 525 -11 q 285 50 388 -11 q 124 215 182 110 q 67 455 67 321 q 109 670 67 569 q 224 847 150 770 q 399 968 299 924 q 618 1012 500 1012 q 807 977 723 1012 q 952 880 892 943 q 1044 733 1012 817 q 1076 549 1076 649 q 1034 332 1076 433 q 916 154 991 231 q 741 33 841 77 q 525 -11 641 -11 m 540 217 q 655 244 603 217 q 745 316 707 271 q 804 420 783 362 q 825 541 825 478 q 798 666 825 611 q 722 752 772 721 q 604 784 673 784 q 488 757 541 784 q 398 685 436 730 q 340 581 360 639 q 319 461 319 524 q 346 335 319 391 q 422 249 373 280 q 540 217 472 217 m 693 1058 q 592 1099 633 1058 q 551 1201 551 1141 q 592 1302 551 1261 q 693 1343 633 1343 q 794 1302 753 1343 q 836 1201 836 1261 q 794 1099 836 1141 q 693 1058 753 1058 m 452 1383 l 481 1538 l 1037 1538 l 1008 1383 l 452 1383 z "},"Ọ":{"ha":1089,"x_min":67,"x_max":1076,"o":"m 525 -11 q 285 50 388 -11 q 124 215 182 110 q 67 455 67 321 q 109 670 67 569 q 224 847 150 770 q 399 968 299 924 q 618 1012 500 1012 q 807 977 723 1012 q 952 880 892 943 q 1044 733 1012 817 q 1076 549 1076 649 q 1034 332 1076 433 q 916 154 991 231 q 741 33 841 77 q 525 -11 641 -11 m 540 217 q 655 244 603 217 q 745 316 707 271 q 804 420 783 362 q 825 541 825 478 q 798 666 825 611 q 722 752 772 721 q 604 784 673 784 q 488 757 541 784 q 398 685 436 730 q 340 581 360 639 q 319 461 319 524 q 346 335 319 391 q 422 249 373 280 q 540 217 472 217 m 456 -355 q 354 -314 395 -355 q 313 -212 313 -273 q 354 -112 313 -153 q 456 -71 395 -71 q 557 -112 515 -71 q 598 -212 598 -153 q 557 -314 598 -273 q 456 -355 515 -355 z "},"Ò":{"ha":1089,"x_min":67,"x_max":1076,"o":"m 525 -11 q 285 50 388 -11 q 124 215 182 110 q 67 455 67 321 q 109 670 67 569 q 224 847 150 770 q 399 968 299 924 q 618 1012 500 1012 q 807 977 723 1012 q 952 880 892 943 q 1044 733 1012 817 q 1076 549 1076 649 q 1034 332 1076 433 q 916 154 991 231 q 741 33 841 77 q 525 -11 641 -11 m 540 217 q 655 244 603 217 q 745 316 707 271 q 804 420 783 362 q 825 541 825 478 q 798 666 825 611 q 722 752 772 721 q 604 784 673 784 q 488 757 541 784 q 398 685 436 730 q 340 581 360 639 q 319 461 319 524 q 346 335 319 391 q 422 249 373 280 q 540 217 472 217 m 658 1046 l 426 1208 l 561 1355 l 772 1144 l 658 1046 z "},"Ỏ":{"ha":1089,"x_min":67,"x_max":1076,"o":"m 525 -11 q 285 50 388 -11 q 124 215 182 110 q 67 455 67 321 q 109 670 67 569 q 224 847 150 770 q 399 968 299 924 q 618 1012 500 1012 q 807 977 723 1012 q 952 880 892 943 q 1044 733 1012 817 q 1076 549 1076 649 q 1034 332 1076 433 q 916 154 991 231 q 741 33 841 77 q 525 -11 641 -11 m 540 217 q 655 244 603 217 q 745 316 707 271 q 804 420 783 362 q 825 541 825 478 q 798 666 825 611 q 722 752 772 721 q 604 784 673 784 q 488 757 541 784 q 398 685 436 730 q 340 581 360 639 q 319 461 319 524 q 346 335 319 391 q 422 249 373 280 q 540 217 472 217 m 688 1040 l 616 1130 q 659 1159 642 1143 q 680 1194 675 1175 q 673 1217 683 1208 q 629 1225 663 1225 q 582 1222 608 1225 q 536 1212 556 1218 l 555 1356 q 595 1364 574 1362 q 644 1367 616 1367 q 792 1325 749 1367 q 823 1213 836 1284 q 774 1112 811 1155 q 688 1040 736 1069 z "},"Ơ":{"ha":1089,"x_min":67,"x_max":1162,"o":"m 525 -11 q 285 50 388 -11 q 124 215 182 110 q 67 455 67 321 q 109 670 67 569 q 224 847 150 770 q 399 968 299 924 q 618 1012 500 1012 q 807 977 723 1012 q 952 880 892 943 q 1044 733 1012 817 q 1076 549 1076 649 q 1034 332 1076 433 q 916 154 991 231 q 741 33 841 77 q 525 -11 641 -11 m 540 217 q 655 244 603 217 q 745 316 707 271 q 804 420 783 362 q 825 541 825 478 q 798 666 825 611 q 722 752 772 721 q 604 784 673 784 q 488 757 541 784 q 398 685 436 730 q 340 581 360 639 q 319 461 319 524 q 346 335 319 391 q 422 249 373 280 q 540 217 472 217 m 802 806 l 819 966 q 931 1002 892 966 q 985 1111 970 1038 q 988 1137 987 1120 q 989 1172 989 1154 l 1158 1181 q 1160 1120 1162 1154 q 1152 1055 1158 1087 q 1106 951 1141 998 q 1021 869 1071 903 q 914 819 971 836 q 802 806 857 802 z "},"Ớ":{"ha":1089,"x_min":67,"x_max":1162,"o":"m 525 -11 q 285 50 388 -11 q 124 215 182 110 q 67 455 67 321 q 109 670 67 569 q 224 847 150 770 q 399 968 299 924 q 618 1012 500 1012 q 807 977 723 1012 q 952 880 892 943 q 1044 733 1012 817 q 1076 549 1076 649 q 1034 332 1076 433 q 916 154 991 231 q 741 33 841 77 q 525 -11 641 -11 m 540 217 q 655 244 603 217 q 745 316 707 271 q 804 420 783 362 q 825 541 825 478 q 798 666 825 611 q 722 752 772 721 q 604 784 673 784 q 488 757 541 784 q 398 685 436 730 q 340 581 360 639 q 319 461 319 524 q 346 335 319 391 q 422 249 373 280 q 540 217 472 217 m 802 806 l 819 966 q 931 1002 892 966 q 985 1111 970 1038 q 988 1137 987 1120 q 989 1172 989 1154 l 1158 1181 q 1160 1120 1162 1154 q 1152 1055 1158 1087 q 1106 951 1141 998 q 1021 869 1071 903 q 914 819 971 836 q 802 806 857 802 m 663 1046 l 544 1144 l 744 1355 l 887 1208 l 663 1046 z "},"Ợ":{"ha":1089,"x_min":67,"x_max":1162,"o":"m 525 -11 q 285 50 388 -11 q 124 215 182 110 q 67 455 67 321 q 109 670 67 569 q 224 847 150 770 q 399 968 299 924 q 618 1012 500 1012 q 807 977 723 1012 q 952 880 892 943 q 1044 733 1012 817 q 1076 549 1076 649 q 1034 332 1076 433 q 916 154 991 231 q 741 33 841 77 q 525 -11 641 -11 m 540 217 q 655 244 603 217 q 745 316 707 271 q 804 420 783 362 q 825 541 825 478 q 798 666 825 611 q 722 752 772 721 q 604 784 673 784 q 488 757 541 784 q 398 685 436 730 q 340 581 360 639 q 319 461 319 524 q 346 335 319 391 q 422 249 373 280 q 540 217 472 217 m 802 806 l 819 966 q 931 1002 892 966 q 985 1111 970 1038 q 988 1137 987 1120 q 989 1172 989 1154 l 1158 1181 q 1160 1120 1162 1154 q 1152 1055 1158 1087 q 1106 951 1141 998 q 1021 869 1071 903 q 914 819 971 836 q 802 806 857 802 m 472 -355 q 371 -314 412 -355 q 330 -212 330 -273 q 371 -112 330 -153 q 472 -71 412 -71 q 573 -112 532 -71 q 614 -212 614 -153 q 573 -314 614 -273 q 472 -355 532 -355 z "},"Ờ":{"ha":1089,"x_min":67,"x_max":1162,"o":"m 525 -11 q 285 50 388 -11 q 124 215 182 110 q 67 455 67 321 q 109 670 67 569 q 224 847 150 770 q 399 968 299 924 q 618 1012 500 1012 q 807 977 723 1012 q 952 880 892 943 q 1044 733 1012 817 q 1076 549 1076 649 q 1034 332 1076 433 q 916 154 991 231 q 741 33 841 77 q 525 -11 641 -11 m 540 217 q 655 244 603 217 q 745 316 707 271 q 804 420 783 362 q 825 541 825 478 q 798 666 825 611 q 722 752 772 721 q 604 784 673 784 q 488 757 541 784 q 398 685 436 730 q 340 581 360 639 q 319 461 319 524 q 346 335 319 391 q 422 249 373 280 q 540 217 472 217 m 802 806 l 819 966 q 931 1002 892 966 q 985 1111 970 1038 q 988 1137 987 1120 q 989 1172 989 1154 l 1158 1181 q 1160 1120 1162 1154 q 1152 1055 1158 1087 q 1106 951 1141 998 q 1021 869 1071 903 q 914 819 971 836 q 802 806 857 802 m 658 1046 l 426 1208 l 561 1355 l 772 1144 l 658 1046 z "},"Ở":{"ha":1089,"x_min":67,"x_max":1162,"o":"m 525 -11 q 285 50 388 -11 q 124 215 182 110 q 67 455 67 321 q 109 670 67 569 q 224 847 150 770 q 399 968 299 924 q 618 1012 500 1012 q 807 977 723 1012 q 952 880 892 943 q 1044 733 1012 817 q 1076 549 1076 649 q 1034 332 1076 433 q 916 154 991 231 q 741 33 841 77 q 525 -11 641 -11 m 540 217 q 655 244 603 217 q 745 316 707 271 q 804 420 783 362 q 825 541 825 478 q 798 666 825 611 q 722 752 772 721 q 604 784 673 784 q 488 757 541 784 q 398 685 436 730 q 340 581 360 639 q 319 461 319 524 q 346 335 319 391 q 422 249 373 280 q 540 217 472 217 m 802 806 l 819 966 q 931 1002 892 966 q 985 1111 970 1038 q 988 1137 987 1120 q 989 1172 989 1154 l 1158 1181 q 1160 1120 1162 1154 q 1152 1055 1158 1087 q 1106 951 1141 998 q 1021 869 1071 903 q 914 819 971 836 q 802 806 857 802 m 688 1040 l 616 1130 q 659 1159 642 1143 q 680 1194 675 1175 q 673 1217 683 1208 q 629 1225 663 1225 q 582 1222 608 1225 q 536 1212 556 1218 l 555 1356 q 595 1364 574 1362 q 644 1367 616 1367 q 792 1325 749 1367 q 823 1213 836 1284 q 774 1112 811 1155 q 688 1040 736 1069 z "},"Ỡ":{"ha":1089,"x_min":67,"x_max":1162,"o":"m 525 -11 q 285 50 388 -11 q 124 215 182 110 q 67 455 67 321 q 109 670 67 569 q 224 847 150 770 q 399 968 299 924 q 618 1012 500 1012 q 807 977 723 1012 q 952 880 892 943 q 1044 733 1012 817 q 1076 549 1076 649 q 1034 332 1076 433 q 916 154 991 231 q 741 33 841 77 q 525 -11 641 -11 m 540 217 q 655 244 603 217 q 745 316 707 271 q 804 420 783 362 q 825 541 825 478 q 798 666 825 611 q 722 752 772 721 q 604 784 673 784 q 488 757 541 784 q 398 685 436 730 q 340 581 360 639 q 319 461 319 524 q 346 335 319 391 q 422 249 373 280 q 540 217 472 217 m 802 806 l 819 966 q 931 1002 892 966 q 985 1111 970 1038 q 988 1137 987 1120 q 989 1172 989 1154 l 1158 1181 q 1160 1120 1162 1154 q 1152 1055 1158 1087 q 1106 951 1141 998 q 1021 869 1071 903 q 914 819 971 836 q 802 806 857 802 m 528 1052 l 392 1074 q 463 1224 411 1168 q 589 1280 514 1280 q 658 1269 633 1280 q 699 1242 684 1257 q 726 1216 714 1227 q 754 1205 738 1205 q 806 1232 783 1205 q 836 1291 829 1258 l 972 1269 q 901 1120 955 1177 q 770 1063 848 1063 q 704 1075 728 1063 q 665 1102 680 1086 q 637 1129 650 1118 q 607 1141 625 1141 q 558 1116 579 1141 q 528 1052 536 1092 z "},"Ő":{"ha":1089,"x_min":67,"x_max":1076,"o":"m 525 -11 q 285 50 388 -11 q 124 215 182 110 q 67 455 67 321 q 109 670 67 569 q 224 847 150 770 q 399 968 299 924 q 618 1012 500 1012 q 807 977 723 1012 q 952 880 892 943 q 1044 733 1012 817 q 1076 549 1076 649 q 1034 332 1076 433 q 916 154 991 231 q 741 33 841 77 q 525 -11 641 -11 m 540 217 q 655 244 603 217 q 745 316 707 271 q 804 420 783 362 q 825 541 825 478 q 798 666 825 611 q 722 752 772 721 q 604 784 673 784 q 488 757 541 784 q 398 685 436 730 q 340 581 360 639 q 319 461 319 524 q 346 335 319 391 q 422 249 373 280 q 540 217 472 217 m 570 1055 l 457 1113 l 652 1360 l 794 1274 l 570 1055 m 852 1055 l 740 1113 l 930 1360 l 1075 1274 l 852 1055 z "},"Ȏ":{"ha":1089,"x_min":67,"x_max":1076,"o":"m 525 -11 q 285 50 388 -11 q 124 215 182 110 q 67 455 67 321 q 109 670 67 569 q 224 847 150 770 q 399 968 299 924 q 618 1012 500 1012 q 807 977 723 1012 q 952 880 892 943 q 1044 733 1012 817 q 1076 549 1076 649 q 1034 332 1076 433 q 916 154 991 231 q 741 33 841 77 q 525 -11 641 -11 m 540 217 q 655 244 603 217 q 745 316 707 271 q 804 420 783 362 q 825 541 825 478 q 798 666 825 611 q 722 752 772 721 q 604 784 673 784 q 488 757 541 784 q 398 685 436 730 q 340 581 360 639 q 319 461 319 524 q 346 335 319 391 q 422 249 373 280 q 540 217 472 217 m 924 1044 l 785 1066 q 765 1135 794 1104 q 676 1166 736 1166 q 577 1136 616 1166 q 527 1055 538 1107 l 389 1077 q 449 1201 402 1154 q 558 1272 495 1249 q 686 1294 622 1294 q 823 1262 764 1294 q 912 1174 883 1230 q 924 1044 941 1118 z "},"Ō":{"ha":1089,"x_min":67,"x_max":1076,"o":"m 525 -11 q 285 50 388 -11 q 124 215 182 110 q 67 455 67 321 q 109 670 67 569 q 224 847 150 770 q 399 968 299 924 q 618 1012 500 1012 q 807 977 723 1012 q 952 880 892 943 q 1044 733 1012 817 q 1076 549 1076 649 q 1034 332 1076 433 q 916 154 991 231 q 741 33 841 77 q 525 -11 641 -11 m 540 217 q 655 244 603 217 q 745 316 707 271 q 804 420 783 362 q 825 541 825 478 q 798 666 825 611 q 722 752 772 721 q 604 784 673 784 q 488 757 541 784 q 398 685 436 730 q 340 581 360 639 q 319 461 319 524 q 346 335 319 391 q 422 249 373 280 q 540 217 472 217 m 387 1094 l 416 1249 l 972 1249 l 943 1094 l 387 1094 z "},"Ṓ":{"ha":1089,"x_min":67,"x_max":1076,"o":"m 411 1094 l 440 1249 l 996 1249 l 966 1094 l 411 1094 m 735 1296 l 616 1394 l 816 1605 l 959 1457 l 735 1296 m 525 -11 q 285 50 388 -11 q 124 215 182 110 q 67 455 67 321 q 109 670 67 569 q 224 847 150 770 q 399 968 299 924 q 618 1012 500 1012 q 807 977 723 1012 q 952 880 892 943 q 1044 733 1012 817 q 1076 549 1076 649 q 1034 332 1076 433 q 916 154 991 231 q 741 33 841 77 q 525 -11 641 -11 m 540 217 q 655 244 603 217 q 745 316 707 271 q 804 420 783 362 q 825 541 825 478 q 798 666 825 611 q 722 752 772 721 q 604 784 673 784 q 488 757 541 784 q 398 685 436 730 q 340 581 360 639 q 319 461 319 524 q 346 335 319 391 q 422 249 373 280 q 540 217 472 217 z "},"Ṑ":{"ha":1089,"x_min":67,"x_max":1076,"o":"m 525 -11 q 285 50 388 -11 q 124 215 182 110 q 67 455 67 321 q 109 670 67 569 q 224 847 150 770 q 399 968 299 924 q 618 1012 500 1012 q 807 977 723 1012 q 952 880 892 943 q 1044 733 1012 817 q 1076 549 1076 649 q 1034 332 1076 433 q 916 154 991 231 q 741 33 841 77 q 525 -11 641 -11 m 540 217 q 655 244 603 217 q 745 316 707 271 q 804 420 783 362 q 825 541 825 478 q 798 666 825 611 q 722 752 772 721 q 604 784 673 784 q 488 757 541 784 q 398 685 436 730 q 340 581 360 639 q 319 461 319 524 q 346 335 319 391 q 422 249 373 280 q 540 217 472 217 m 387 1094 l 416 1249 l 972 1249 l 943 1094 l 387 1094 m 706 1296 l 474 1457 l 609 1605 l 820 1394 l 706 1296 z "},"Ǫ":{"ha":1089,"x_min":67,"x_max":1076,"o":"m 525 -11 q 285 50 388 -11 q 124 215 182 110 q 67 455 67 321 q 109 670 67 569 q 224 847 150 770 q 399 968 299 924 q 618 1012 500 1012 q 807 977 723 1012 q 952 880 892 943 q 1044 733 1012 817 q 1076 549 1076 649 q 1034 332 1076 433 q 916 154 991 231 q 741 33 841 77 q 525 -11 641 -11 m 540 217 q 655 244 603 217 q 745 316 707 271 q 804 420 783 362 q 825 541 825 478 q 798 666 825 611 q 722 752 772 721 q 604 784 673 784 q 488 757 541 784 q 398 685 436 730 q 340 581 360 639 q 319 461 319 524 q 346 335 319 391 q 422 249 373 280 q 540 217 472 217 m 465 -297 q 347 -250 386 -297 q 321 -132 307 -203 q 379 -40 332 -81 q 507 41 427 0 l 626 0 q 554 -41 589 -19 q 496 -86 519 -64 q 467 -127 472 -108 q 473 -153 465 -142 q 509 -164 482 -164 q 556 -157 532 -164 q 591 -144 581 -151 l 576 -283 q 518 -294 553 -292 q 465 -297 484 -297 z "},"Ø":{"ha":1089,"x_min":5,"x_max":1139,"o":"m 525 -11 q 285 50 388 -11 q 124 215 182 110 q 67 455 67 321 q 109 670 67 569 q 224 847 150 770 q 399 968 299 924 q 618 1012 500 1012 q 807 977 723 1012 q 952 880 892 943 q 1044 733 1012 817 q 1076 549 1076 649 q 1034 332 1076 433 q 916 154 991 231 q 741 33 841 77 q 525 -11 641 -11 m 540 217 q 655 244 603 217 q 745 316 707 271 q 804 420 783 362 q 825 541 825 478 q 798 666 825 611 q 722 752 772 721 q 604 784 673 784 q 488 757 541 784 q 398 685 436 730 q 340 581 360 639 q 319 461 319 524 q 346 335 319 391 q 422 249 373 280 q 540 217 472 217 m 77 -28 l 5 60 l 1067 1029 l 1139 941 l 77 -28 z "},"Ǿ":{"ha":1089,"x_min":5,"x_max":1139,"o":"m 525 -11 q 285 50 388 -11 q 124 215 182 110 q 67 455 67 321 q 109 670 67 569 q 224 847 150 770 q 399 968 299 924 q 618 1012 500 1012 q 807 977 723 1012 q 952 880 892 943 q 1044 733 1012 817 q 1076 549 1076 649 q 1034 332 1076 433 q 916 154 991 231 q 741 33 841 77 q 525 -11 641 -11 m 540 217 q 655 244 603 217 q 745 316 707 271 q 804 420 783 362 q 825 541 825 478 q 798 666 825 611 q 722 752 772 721 q 604 784 673 784 q 488 757 541 784 q 398 685 436 730 q 340 581 360 639 q 319 461 319 524 q 346 335 319 391 q 422 249 373 280 q 540 217 472 217 m 77 -28 l 5 60 l 1067 1029 l 1139 941 l 77 -28 m 663 1046 l 544 1144 l 744 1355 l 887 1208 l 663 1046 z "},"Õ":{"ha":1089,"x_min":67,"x_max":1076,"o":"m 525 -11 q 285 50 388 -11 q 124 215 182 110 q 67 455 67 321 q 109 670 67 569 q 224 847 150 770 q 399 968 299 924 q 618 1012 500 1012 q 807 977 723 1012 q 952 880 892 943 q 1044 733 1012 817 q 1076 549 1076 649 q 1034 332 1076 433 q 916 154 991 231 q 741 33 841 77 q 525 -11 641 -11 m 540 217 q 655 244 603 217 q 745 316 707 271 q 804 420 783 362 q 825 541 825 478 q 798 666 825 611 q 722 752 772 721 q 604 784 673 784 q 488 757 541 784 q 398 685 436 730 q 340 581 360 639 q 319 461 319 524 q 346 335 319 391 q 422 249 373 280 q 540 217 472 217 m 528 1052 l 392 1074 q 463 1224 411 1168 q 589 1280 514 1280 q 658 1269 633 1280 q 699 1242 684 1257 q 726 1216 714 1227 q 754 1205 738 1205 q 806 1232 783 1205 q 836 1291 829 1258 l 972 1269 q 901 1120 955 1177 q 770 1063 848 1063 q 704 1075 728 1063 q 665 1102 680 1086 q 637 1129 650 1118 q 607 1141 625 1141 q 558 1116 579 1141 q 528 1052 536 1092 z "},"Ṍ":{"ha":1089,"x_min":67,"x_max":1076,"o":"m 525 -11 q 285 50 388 -11 q 124 215 182 110 q 67 455 67 321 q 109 670 67 569 q 224 847 150 770 q 399 968 299 924 q 618 1012 500 1012 q 807 977 723 1012 q 952 880 892 943 q 1044 733 1012 817 q 1076 549 1076 649 q 1034 332 1076 433 q 916 154 991 231 q 741 33 841 77 q 525 -11 641 -11 m 540 217 q 655 244 603 217 q 745 316 707 271 q 804 420 783 362 q 825 541 825 478 q 798 666 825 611 q 722 752 772 721 q 604 784 673 784 q 488 757 541 784 q 398 685 436 730 q 340 581 360 639 q 319 461 319 524 q 346 335 319 391 q 422 249 373 280 q 540 217 472 217 m 528 1052 l 392 1074 q 463 1224 411 1168 q 589 1280 514 1280 q 658 1269 633 1280 q 699 1242 684 1257 q 726 1216 714 1227 q 754 1205 738 1205 q 806 1232 783 1205 q 836 1291 829 1258 l 972 1269 q 901 1120 955 1177 q 770 1063 848 1063 q 704 1075 728 1063 q 665 1102 680 1086 q 637 1129 650 1118 q 607 1141 625 1141 q 558 1116 579 1141 q 528 1052 536 1092 m 720 1324 l 601 1421 l 801 1632 l 944 1485 l 720 1324 z "},"Ṏ":{"ha":1089,"x_min":67,"x_max":1076,"o":"m 525 -11 q 285 50 388 -11 q 124 215 182 110 q 67 455 67 321 q 109 670 67 569 q 224 847 150 770 q 399 968 299 924 q 618 1012 500 1012 q 807 977 723 1012 q 952 880 892 943 q 1044 733 1012 817 q 1076 549 1076 649 q 1034 332 1076 433 q 916 154 991 231 q 741 33 841 77 q 525 -11 641 -11 m 540 217 q 655 244 603 217 q 745 316 707 271 q 804 420 783 362 q 825 541 825 478 q 798 666 825 611 q 722 752 772 721 q 604 784 673 784 q 488 757 541 784 q 398 685 436 730 q 340 581 360 639 q 319 461 319 524 q 346 335 319 391 q 422 249 373 280 q 540 217 472 217 m 528 1052 l 392 1074 q 463 1224 411 1168 q 589 1280 514 1280 q 658 1269 633 1280 q 699 1242 684 1257 q 726 1216 714 1227 q 754 1205 738 1205 q 806 1232 783 1205 q 836 1291 829 1258 l 972 1269 q 901 1120 955 1177 q 770 1063 848 1063 q 704 1075 728 1063 q 665 1102 680 1086 q 637 1129 650 1118 q 607 1141 625 1141 q 558 1116 579 1141 q 528 1052 536 1092 m 917 1321 q 821 1359 859 1321 q 782 1453 782 1397 q 818 1544 782 1508 q 908 1579 854 1579 q 999 1544 960 1579 q 1039 1449 1037 1508 q 1004 1356 1040 1392 q 917 1321 968 1321 m 572 1321 q 478 1359 517 1321 q 440 1453 440 1397 q 475 1543 440 1506 q 564 1579 511 1579 q 658 1540 620 1579 q 696 1444 696 1501 q 661 1357 696 1393 q 572 1321 625 1321 z "},"Ȭ":{"ha":1089,"x_min":67,"x_max":1076,"o":"m 525 -11 q 285 50 388 -11 q 124 215 182 110 q 67 455 67 321 q 109 670 67 569 q 224 847 150 770 q 399 968 299 924 q 618 1012 500 1012 q 807 977 723 1012 q 952 880 892 943 q 1044 733 1012 817 q 1076 549 1076 649 q 1034 332 1076 433 q 916 154 991 231 q 741 33 841 77 q 525 -11 641 -11 m 540 217 q 655 244 603 217 q 745 316 707 271 q 804 420 783 362 q 825 541 825 478 q 798 666 825 611 q 722 752 772 721 q 604 784 673 784 q 488 757 541 784 q 398 685 436 730 q 340 581 360 639 q 319 461 319 524 q 346 335 319 391 q 422 249 373 280 q 540 217 472 217 m 528 1052 l 392 1074 q 463 1224 411 1168 q 589 1280 514 1280 q 658 1269 633 1280 q 699 1242 684 1257 q 726 1216 714 1227 q 754 1205 738 1205 q 806 1232 783 1205 q 836 1291 829 1258 l 972 1269 q 901 1120 955 1177 q 770 1063 848 1063 q 704 1075 728 1063 q 665 1102 680 1086 q 637 1129 650 1118 q 607 1141 625 1141 q 558 1116 579 1141 q 528 1052 536 1092 m 444 1371 l 473 1527 l 1029 1527 l 1000 1371 l 444 1371 z "},"Œ":{"ha":1409,"x_min":63,"x_max":1470,"o":"m 475 -11 q 305 24 381 -11 q 175 122 229 60 q 92 264 121 184 q 63 436 63 345 q 106 655 63 551 q 223 838 149 758 q 396 964 298 918 q 605 1010 494 1010 q 769 980 694 1010 q 895 898 844 950 q 962 780 945 846 l 871 791 l 909 1000 l 1470 1000 l 1426 777 l 1095 777 l 1061 612 l 1339 612 l 1295 397 l 1017 397 l 984 222 l 1316 222 l 1272 0 l 710 0 l 752 209 l 848 198 q 685 43 781 96 q 475 -11 589 -11 m 538 217 q 652 243 600 217 q 743 315 705 270 q 803 418 782 361 q 825 539 825 476 q 797 663 825 608 q 719 750 770 718 q 599 783 669 783 q 486 755 537 783 q 396 681 434 728 q 338 575 359 634 q 317 453 317 516 q 344 333 317 387 q 420 248 370 279 q 538 217 469 217 z "},"P":{"ha":869,"x_min":22,"x_max":886,"o":"m 283 307 l 328 524 l 497 524 q 569 544 536 524 q 620 596 601 564 q 639 667 639 629 q 622 728 639 704 q 578 765 606 753 q 517 777 551 777 l 364 777 l 409 1000 l 531 1000 q 715 962 635 1000 q 841 852 795 924 q 886 680 886 781 q 834 488 886 572 q 693 355 783 404 q 486 307 604 307 l 283 307 m 22 0 l 223 1000 l 478 1000 l 277 0 l 22 0 z "},"Þ":{"ha":867,"x_min":22,"x_max":858,"o":"m 245 156 l 290 378 l 466 378 q 536 400 506 378 q 584 457 567 422 q 601 530 601 492 q 573 602 601 576 q 484 627 546 627 l 341 627 l 385 849 l 527 849 q 770 773 683 849 q 858 557 858 696 q 804 355 858 446 q 657 210 751 264 q 446 156 564 156 l 245 156 m 22 0 l 223 1000 l 477 1000 l 277 0 l 22 0 z "},"Q":{"ha":1125,"x_min":67,"x_max":1093,"o":"m 845 0 l 735 137 l 631 217 l 446 429 l 703 429 l 803 307 l 932 203 l 1093 0 l 845 0 m 525 -11 q 285 50 388 -11 q 124 215 182 110 q 67 455 67 321 q 109 670 67 569 q 224 847 150 770 q 399 968 299 924 q 618 1012 500 1012 q 807 977 723 1012 q 952 880 892 943 q 1044 733 1012 817 q 1076 549 1076 649 q 1034 332 1076 433 q 916 154 991 231 q 741 33 841 77 q 525 -11 641 -11 m 540 217 q 655 244 603 217 q 745 316 707 271 q 804 420 783 362 q 825 541 825 478 q 798 666 825 611 q 722 752 772 721 q 604 784 673 784 q 488 757 541 784 q 398 685 436 730 q 340 581 360 639 q 319 461 319 524 q 346 335 319 391 q 422 249 373 280 q 540 217 472 217 z "},"R":{"ha":933,"x_min":22,"x_max":873,"o":"m 273 330 l 314 532 l 484 532 q 556 550 526 532 q 602 600 586 568 q 618 668 618 631 q 585 751 618 724 q 503 777 552 777 l 349 777 l 395 1000 l 517 1000 q 699 963 618 1000 q 826 856 779 926 q 873 686 873 786 q 821 500 873 581 q 678 375 769 420 q 471 330 587 330 l 273 330 m 22 0 l 222 1000 l 477 1000 l 277 0 l 22 0 m 559 0 l 399 365 l 597 500 l 828 0 l 559 0 z "},"Ŕ":{"ha":933,"x_min":22,"x_max":873,"o":"m 273 330 l 314 532 l 484 532 q 556 550 526 532 q 602 600 586 568 q 618 668 618 631 q 585 751 618 724 q 503 777 552 777 l 349 777 l 395 1000 l 517 1000 q 699 963 618 1000 q 826 856 779 926 q 873 686 873 786 q 821 500 873 581 q 678 375 769 420 q 471 330 587 330 l 273 330 m 22 0 l 222 1000 l 477 1000 l 277 0 l 22 0 m 559 0 l 399 365 l 597 500 l 828 0 l 559 0 m 556 1046 l 437 1144 l 637 1355 l 780 1208 l 556 1046 z "},"Ř":{"ha":933,"x_min":22,"x_max":873,"o":"m 273 330 l 314 532 l 484 532 q 556 550 526 532 q 602 600 586 568 q 618 668 618 631 q 585 751 618 724 q 503 777 552 777 l 349 777 l 395 1000 l 517 1000 q 699 963 618 1000 q 826 856 779 926 q 873 686 873 786 q 821 500 873 581 q 678 375 769 420 q 471 330 587 330 l 273 330 m 22 0 l 222 1000 l 477 1000 l 277 0 l 22 0 m 559 0 l 399 365 l 597 500 l 828 0 l 559 0 m 523 1049 l 299 1221 l 416 1330 l 563 1205 l 569 1205 l 758 1330 l 849 1221 l 568 1049 l 523 1049 z "},"Ŗ":{"ha":933,"x_min":22,"x_max":873,"o":"m 273 330 l 314 532 l 484 532 q 556 550 526 532 q 602 600 586 568 q 618 668 618 631 q 585 751 618 724 q 503 777 552 777 l 349 777 l 395 1000 l 517 1000 q 699 963 618 1000 q 826 856 779 926 q 873 686 873 786 q 821 500 873 581 q 678 375 769 420 q 471 330 587 330 l 273 330 m 22 0 l 222 1000 l 477 1000 l 277 0 l 22 0 m 559 0 l 399 365 l 597 500 l 828 0 l 559 0 m 269 -400 l 231 -339 l 315 -292 q 346 -276 325 -287 q 385 -246 367 -265 q 401 -197 402 -227 l 416 -197 q 410 -233 421 -212 q 367 -253 399 -253 q 299 -224 332 -253 q 267 -153 267 -196 q 297 -85 267 -113 q 368 -58 328 -58 q 441 -89 409 -58 q 474 -177 474 -119 q 441 -280 474 -243 q 361 -345 408 -317 l 269 -400 z "},"Ȑ":{"ha":933,"x_min":22,"x_max":873,"o":"m 273 330 l 314 532 l 484 532 q 556 550 526 532 q 602 600 586 568 q 618 668 618 631 q 585 751 618 724 q 503 777 552 777 l 349 777 l 395 1000 l 517 1000 q 699 963 618 1000 q 826 856 779 926 q 873 686 873 786 q 821 500 873 581 q 678 375 769 420 q 471 330 587 330 l 273 330 m 22 0 l 222 1000 l 477 1000 l 277 0 l 22 0 m 559 0 l 399 365 l 597 500 l 828 0 l 559 0 m 362 1055 l 220 1274 l 387 1360 l 488 1113 l 362 1055 m 643 1055 l 504 1274 l 671 1360 l 769 1113 l 643 1055 z "},"Ṛ":{"ha":933,"x_min":22,"x_max":873,"o":"m 273 330 l 314 532 l 484 532 q 556 550 526 532 q 602 600 586 568 q 618 668 618 631 q 585 751 618 724 q 503 777 552 777 l 349 777 l 395 1000 l 517 1000 q 699 963 618 1000 q 826 856 779 926 q 873 686 873 786 q 821 500 873 581 q 678 375 769 420 q 471 330 587 330 l 273 330 m 22 0 l 222 1000 l 477 1000 l 277 0 l 22 0 m 559 0 l 399 365 l 597 500 l 828 0 l 559 0 m 355 -355 q 254 -314 295 -355 q 213 -212 213 -273 q 254 -112 213 -153 q 355 -71 295 -71 q 456 -112 415 -71 q 498 -212 498 -153 q 456 -314 498 -273 q 355 -355 415 -355 z "},"Ȓ":{"ha":933,"x_min":22,"x_max":873,"o":"m 273 330 l 314 532 l 484 532 q 556 550 526 532 q 602 600 586 568 q 618 668 618 631 q 585 751 618 724 q 503 777 552 777 l 349 777 l 395 1000 l 517 1000 q 699 963 618 1000 q 826 856 779 926 q 873 686 873 786 q 821 500 873 581 q 678 375 769 420 q 471 330 587 330 l 273 330 m 22 0 l 222 1000 l 477 1000 l 277 0 l 22 0 m 559 0 l 399 365 l 597 500 l 828 0 l 559 0 m 817 1044 l 678 1066 q 658 1135 687 1104 q 569 1166 629 1166 q 470 1136 509 1166 q 420 1055 431 1107 l 281 1077 q 341 1201 295 1154 q 451 1272 388 1249 q 578 1294 515 1294 q 716 1262 656 1294 q 805 1174 776 1230 q 817 1044 833 1118 z "},"Ṟ":{"ha":933,"x_min":22,"x_max":873,"o":"m 273 330 l 314 532 l 484 532 q 556 550 526 532 q 602 600 586 568 q 618 668 618 631 q 585 751 618 724 q 503 777 552 777 l 349 777 l 395 1000 l 517 1000 q 699 963 618 1000 q 826 856 779 926 q 873 686 873 786 q 821 500 873 581 q 678 375 769 420 q 471 330 587 330 l 273 330 m 22 0 l 222 1000 l 477 1000 l 277 0 l 22 0 m 559 0 l 399 365 l 597 500 l 828 0 l 559 0 m 42 -286 l 71 -142 l 669 -142 l 640 -286 l 42 -286 z "},"S":{"ha":811,"x_min":23,"x_max":826,"o":"m 386 -11 q 213 23 289 -11 q 87 113 136 56 q 23 236 39 169 l 277 340 q 300 279 283 307 q 344 234 318 251 q 403 217 370 217 q 449 228 429 217 q 480 258 469 239 q 492 299 492 277 q 467 357 492 334 q 401 401 441 381 q 317 445 361 422 q 233 501 273 469 q 168 582 193 534 q 142 701 142 631 q 189 865 142 795 q 316 972 236 935 q 495 1010 396 1010 q 655 981 585 1010 q 769 902 725 951 q 826 793 814 853 l 583 694 q 566 738 579 718 q 531 770 553 758 q 479 783 509 783 q 435 773 454 783 q 406 749 416 764 q 395 712 395 733 q 420 656 395 680 q 485 613 445 633 q 569 570 524 593 q 653 513 614 547 q 718 431 693 480 q 743 309 743 381 q 697 142 743 214 q 571 30 652 70 q 386 -11 491 -11 z "},"Ś":{"ha":811,"x_min":23,"x_max":826,"o":"m 386 -11 q 213 23 289 -11 q 87 113 136 56 q 23 236 39 169 l 277 340 q 300 279 283 307 q 344 234 318 251 q 403 217 370 217 q 449 228 429 217 q 480 258 469 239 q 492 299 492 277 q 467 357 492 334 q 401 401 441 381 q 317 445 361 422 q 233 501 273 469 q 168 582 193 534 q 142 701 142 631 q 189 865 142 795 q 316 972 236 935 q 495 1010 396 1010 q 655 981 585 1010 q 769 902 725 951 q 826 793 814 853 l 583 694 q 566 738 579 718 q 531 770 553 758 q 479 783 509 783 q 435 773 454 783 q 406 749 416 764 q 395 712 395 733 q 420 656 395 680 q 485 613 445 633 q 569 570 524 593 q 653 513 614 547 q 718 431 693 480 q 743 309 743 381 q 697 142 743 214 q 571 30 652 70 q 386 -11 491 -11 m 540 1046 l 420 1144 l 621 1355 l 764 1208 l 540 1046 z "},"Ṥ":{"ha":811,"x_min":23,"x_max":921,"o":"m 386 -11 q 213 23 289 -11 q 87 113 136 56 q 23 236 39 169 l 277 340 q 300 279 283 307 q 344 234 318 251 q 403 217 370 217 q 449 228 429 217 q 480 258 469 239 q 492 299 492 277 q 467 357 492 334 q 401 401 441 381 q 317 445 361 422 q 233 501 273 469 q 168 582 193 534 q 142 701 142 631 q 189 865 142 795 q 316 972 236 935 q 495 1010 396 1010 q 655 981 585 1010 q 769 902 725 951 q 826 793 814 853 l 583 694 q 566 738 579 718 q 531 770 553 758 q 479 783 509 783 q 435 773 454 783 q 406 749 416 764 q 395 712 395 733 q 420 656 395 680 q 485 613 445 633 q 569 570 524 593 q 653 513 614 547 q 718 431 693 480 q 743 309 743 381 q 697 142 743 214 q 571 30 652 70 q 386 -11 491 -11 m 688 1048 l 582 1131 l 787 1395 l 921 1267 l 688 1048 m 402 1076 q 301 1117 342 1076 q 260 1219 260 1158 q 301 1319 260 1278 q 402 1360 342 1360 q 503 1319 462 1360 q 545 1219 545 1278 q 503 1117 545 1158 q 402 1076 462 1076 z "},"Š":{"ha":811,"x_min":23,"x_max":833,"o":"m 386 -11 q 213 23 289 -11 q 87 113 136 56 q 23 236 39 169 l 277 340 q 300 279 283 307 q 344 234 318 251 q 403 217 370 217 q 449 228 429 217 q 480 258 469 239 q 492 299 492 277 q 467 357 492 334 q 401 401 441 381 q 317 445 361 422 q 233 501 273 469 q 168 582 193 534 q 142 701 142 631 q 189 865 142 795 q 316 972 236 935 q 495 1010 396 1010 q 655 981 585 1010 q 769 902 725 951 q 826 793 814 853 l 583 694 q 566 738 579 718 q 531 770 553 758 q 479 783 509 783 q 435 773 454 783 q 406 749 416 764 q 395 712 395 733 q 420 656 395 680 q 485 613 445 633 q 569 570 524 593 q 653 513 614 547 q 718 431 693 480 q 743 309 743 381 q 697 142 743 214 q 571 30 652 70 q 386 -11 491 -11 m 507 1049 l 283 1221 l 399 1330 l 547 1205 l 553 1205 l 741 1330 l 833 1221 l 551 1049 l 507 1049 z "},"Ṧ":{"ha":811,"x_min":23,"x_max":833,"o":"m 386 -11 q 213 23 289 -11 q 87 113 136 56 q 23 236 39 169 l 277 340 q 300 279 283 307 q 344 234 318 251 q 403 217 370 217 q 449 228 429 217 q 480 258 469 239 q 492 299 492 277 q 467 357 492 334 q 401 401 441 381 q 317 445 361 422 q 233 501 273 469 q 168 582 193 534 q 142 701 142 631 q 189 865 142 795 q 316 972 236 935 q 495 1010 396 1010 q 655 981 585 1010 q 769 902 725 951 q 826 793 814 853 l 583 694 q 566 738 579 718 q 531 770 553 758 q 479 783 509 783 q 435 773 454 783 q 406 749 416 764 q 395 712 395 733 q 420 656 395 680 q 485 613 445 633 q 569 570 524 593 q 653 513 614 547 q 718 431 693 480 q 743 309 743 381 q 697 142 743 214 q 571 30 652 70 q 386 -11 491 -11 m 507 1049 l 283 1221 l 399 1330 l 547 1205 l 553 1205 l 741 1330 l 833 1221 l 551 1049 l 507 1049 m 600 1308 q 499 1349 540 1308 q 458 1451 458 1390 q 499 1551 458 1510 q 600 1592 540 1592 q 701 1551 660 1592 q 743 1451 743 1510 q 701 1349 743 1390 q 600 1308 660 1308 z "},"Ş":{"ha":811,"x_min":23,"x_max":826,"o":"m 386 -11 q 213 23 289 -11 q 87 113 136 56 q 23 236 39 169 l 277 340 q 300 279 283 307 q 344 234 318 251 q 403 217 370 217 q 449 228 429 217 q 480 258 469 239 q 492 299 492 277 q 467 357 492 334 q 401 401 441 381 q 317 445 361 422 q 233 501 273 469 q 168 582 193 534 q 142 701 142 631 q 189 865 142 795 q 316 972 236 935 q 495 1010 396 1010 q 655 981 585 1010 q 769 902 725 951 q 826 793 814 853 l 583 694 q 566 738 579 718 q 531 770 553 758 q 479 783 509 783 q 435 773 454 783 q 406 749 416 764 q 395 712 395 733 q 420 656 395 680 q 485 613 445 633 q 569 570 524 593 q 653 513 614 547 q 718 431 693 480 q 743 309 743 381 q 697 142 743 214 q 571 30 652 70 q 386 -11 491 -11 m 193 -355 l 205 -241 q 316 -224 275 -243 q 360 -185 356 -205 q 343 -153 365 -163 q 271 -139 322 -143 l 339 0 l 445 0 l 381 -111 l 374 -61 q 442 -79 411 -61 q 489 -130 473 -96 q 495 -212 505 -163 q 451 -293 486 -260 q 353 -340 416 -325 q 193 -355 290 -356 z "},"Ŝ":{"ha":811,"x_min":23,"x_max":829,"o":"m 386 -11 q 213 23 289 -11 q 87 113 136 56 q 23 236 39 169 l 277 340 q 300 279 283 307 q 344 234 318 251 q 403 217 370 217 q 449 228 429 217 q 480 258 469 239 q 492 299 492 277 q 467 357 492 334 q 401 401 441 381 q 317 445 361 422 q 233 501 273 469 q 168 582 193 534 q 142 701 142 631 q 189 865 142 795 q 316 972 236 935 q 495 1010 396 1010 q 655 981 585 1010 q 769 902 725 951 q 826 793 814 853 l 583 694 q 566 738 579 718 q 531 770 553 758 q 479 783 509 783 q 435 773 454 783 q 406 749 416 764 q 395 712 395 733 q 420 656 395 680 q 485 613 445 633 q 569 570 524 593 q 653 513 614 547 q 718 431 693 480 q 743 309 743 381 q 697 142 743 214 q 571 30 652 70 q 386 -11 491 -11 m 371 1049 l 279 1158 l 562 1330 l 606 1330 l 829 1158 l 713 1049 l 566 1175 l 560 1175 l 371 1049 z "},"Ș":{"ha":811,"x_min":23,"x_max":826,"o":"m 386 -11 q 213 23 289 -11 q 87 113 136 56 q 23 236 39 169 l 277 340 q 300 279 283 307 q 344 234 318 251 q 403 217 370 217 q 449 228 429 217 q 480 258 469 239 q 492 299 492 277 q 467 357 492 334 q 401 401 441 381 q 317 445 361 422 q 233 501 273 469 q 168 582 193 534 q 142 701 142 631 q 189 865 142 795 q 316 972 236 935 q 495 1010 396 1010 q 655 981 585 1010 q 769 902 725 951 q 826 793 814 853 l 583 694 q 566 738 579 718 q 531 770 553 758 q 479 783 509 783 q 435 773 454 783 q 406 749 416 764 q 395 712 395 733 q 420 656 395 680 q 485 613 445 633 q 569 570 524 593 q 653 513 614 547 q 718 431 693 480 q 743 309 743 381 q 697 142 743 214 q 571 30 652 70 q 386 -11 491 -11 m 215 -400 l 178 -339 l 262 -292 q 292 -276 271 -287 q 331 -246 313 -265 q 348 -197 349 -227 l 362 -197 q 356 -233 368 -212 q 313 -253 345 -253 q 246 -224 278 -253 q 214 -153 214 -196 q 244 -85 214 -113 q 315 -58 274 -58 q 388 -89 355 -58 q 420 -177 420 -119 q 388 -280 420 -243 q 308 -345 355 -317 l 215 -400 z "},"Ṡ":{"ha":811,"x_min":23,"x_max":826,"o":"m 386 -11 q 213 23 289 -11 q 87 113 136 56 q 23 236 39 169 l 277 340 q 300 279 283 307 q 344 234 318 251 q 403 217 370 217 q 449 228 429 217 q 480 258 469 239 q 492 299 492 277 q 467 357 492 334 q 401 401 441 381 q 317 445 361 422 q 233 501 273 469 q 168 582 193 534 q 142 701 142 631 q 189 865 142 795 q 316 972 236 935 q 495 1010 396 1010 q 655 981 585 1010 q 769 902 725 951 q 826 793 814 853 l 583 694 q 566 738 579 718 q 531 770 553 758 q 479 783 509 783 q 435 773 454 783 q 406 749 416 764 q 395 712 395 733 q 420 656 395 680 q 485 613 445 633 q 569 570 524 593 q 653 513 614 547 q 718 431 693 480 q 743 309 743 381 q 697 142 743 214 q 571 30 652 70 q 386 -11 491 -11 m 570 1058 q 468 1099 509 1058 q 427 1201 427 1141 q 468 1302 427 1261 q 570 1343 509 1343 q 671 1302 629 1343 q 712 1201 712 1261 q 671 1099 712 1141 q 570 1058 629 1058 z "},"Ṣ":{"ha":811,"x_min":23,"x_max":826,"o":"m 386 -11 q 213 23 289 -11 q 87 113 136 56 q 23 236 39 169 l 277 340 q 300 279 283 307 q 344 234 318 251 q 403 217 370 217 q 449 228 429 217 q 480 258 469 239 q 492 299 492 277 q 467 357 492 334 q 401 401 441 381 q 317 445 361 422 q 233 501 273 469 q 168 582 193 534 q 142 701 142 631 q 189 865 142 795 q 316 972 236 935 q 495 1010 396 1010 q 655 981 585 1010 q 769 902 725 951 q 826 793 814 853 l 583 694 q 566 738 579 718 q 531 770 553 758 q 479 783 509 783 q 435 773 454 783 q 406 749 416 764 q 395 712 395 733 q 420 656 395 680 q 485 613 445 633 q 569 570 524 593 q 653 513 614 547 q 718 431 693 480 q 743 309 743 381 q 697 142 743 214 q 571 30 652 70 q 386 -11 491 -11 m 302 -355 q 200 -314 241 -355 q 159 -212 159 -273 q 200 -112 159 -153 q 302 -71 241 -71 q 403 -112 361 -71 q 444 -212 444 -153 q 403 -314 444 -273 q 302 -355 361 -355 z "},"Ṩ":{"ha":811,"x_min":23,"x_max":826,"o":"m 386 -11 q 213 23 289 -11 q 87 113 136 56 q 23 236 39 169 l 277 340 q 300 279 283 307 q 344 234 318 251 q 403 217 370 217 q 449 228 429 217 q 480 258 469 239 q 492 299 492 277 q 467 357 492 334 q 401 401 441 381 q 317 445 361 422 q 233 501 273 469 q 168 582 193 534 q 142 701 142 631 q 189 865 142 795 q 316 972 236 935 q 495 1010 396 1010 q 655 981 585 1010 q 769 902 725 951 q 826 793 814 853 l 583 694 q 566 738 579 718 q 531 770 553 758 q 479 783 509 783 q 435 773 454 783 q 406 749 416 764 q 395 712 395 733 q 420 656 395 680 q 485 613 445 633 q 569 570 524 593 q 653 513 614 547 q 718 431 693 480 q 743 309 743 381 q 697 142 743 214 q 571 30 652 70 q 386 -11 491 -11 m 318 -355 q 217 -314 258 -355 q 176 -212 176 -273 q 217 -112 176 -153 q 318 -71 258 -71 q 419 -112 378 -71 q 460 -212 460 -153 q 419 -314 460 -273 q 318 -355 378 -355 m 593 1059 q 492 1100 533 1059 q 451 1202 451 1141 q 492 1302 451 1261 q 593 1343 533 1343 q 694 1302 653 1343 q 736 1202 736 1261 q 694 1100 736 1141 q 593 1059 653 1059 z "},"ẞ":{"ha":977,"x_min":12,"x_max":979,"o":"m 520 -12 q 441 -6 474 -12 q 400 3 408 0 l 441 208 q 483 201 467 203 q 517 199 500 199 q 588 207 556 199 q 641 231 619 215 q 675 269 663 247 q 686 318 686 291 q 666 378 686 357 q 620 409 646 399 q 572 420 593 418 q 549 422 551 422 l 495 422 l 500 461 l 689 831 l 694 779 q 659 790 681 786 q 610 793 637 793 q 530 784 566 793 q 467 757 494 775 q 422 712 439 739 q 397 650 405 685 l 267 0 l 12 0 l 153 703 q 206 835 168 778 q 302 931 243 892 q 438 990 360 970 q 610 1010 515 1010 q 824 985 726 1010 q 977 928 923 960 l 979 907 l 757 477 l 678 572 q 816 544 760 572 q 903 464 873 516 q 932 339 932 412 q 901 199 932 263 q 812 87 869 134 q 681 14 755 40 q 520 -12 606 -12 z "},"T":{"ha":766,"x_min":115,"x_max":859,"o":"m 183 0 l 343 811 l 597 811 l 437 0 l 183 0 m 115 777 l 160 1000 l 859 1000 l 814 777 l 115 777 z "},"Ŧ":{"ha":766,"x_min":115,"x_max":859,"o":"m 183 0 l 343 811 l 597 811 l 437 0 l 183 0 m 115 777 l 160 1000 l 859 1000 l 814 777 l 115 777 m 157 397 l 179 511 l 635 511 l 612 397 l 157 397 z "},"Ť":{"ha":766,"x_min":115,"x_max":859,"o":"m 183 0 l 343 811 l 597 811 l 437 0 l 183 0 m 115 777 l 160 1000 l 859 1000 l 814 777 l 115 777 m 494 1049 l 271 1221 l 387 1330 l 534 1205 l 541 1205 l 729 1330 l 821 1221 l 539 1049 l 494 1049 z "},"Ţ":{"ha":766,"x_min":110,"x_max":859,"o":"m 183 0 l 343 811 l 597 811 l 437 0 l 183 0 m 115 777 l 160 1000 l 859 1000 l 814 777 l 115 777 m 110 -355 l 121 -241 q 232 -224 192 -243 q 277 -185 273 -205 q 260 -153 281 -163 q 188 -139 239 -143 l 256 0 l 361 0 l 298 -111 l 290 -61 q 359 -79 328 -61 q 406 -130 390 -96 q 412 -212 422 -163 q 368 -293 402 -260 q 270 -340 333 -325 q 110 -355 207 -356 z "},"Ț":{"ha":766,"x_min":115,"x_max":859,"o":"m 183 0 l 343 811 l 597 811 l 437 0 l 183 0 m 115 777 l 160 1000 l 859 1000 l 814 777 l 115 777 m 179 -400 l 142 -339 l 226 -292 q 256 -276 235 -287 q 295 -246 277 -265 q 312 -197 313 -227 l 326 -197 q 320 -233 332 -212 q 277 -253 309 -253 q 210 -224 242 -253 q 178 -153 178 -196 q 208 -85 178 -113 q 279 -58 238 -58 q 352 -89 319 -58 q 385 -177 385 -119 q 352 -280 385 -243 q 272 -345 319 -317 l 179 -400 z "},"Ṭ":{"ha":766,"x_min":115,"x_max":859,"o":"m 183 0 l 343 811 l 597 811 l 437 0 l 183 0 m 115 777 l 160 1000 l 859 1000 l 814 777 l 115 777 m 266 -355 q 164 -314 205 -355 q 123 -212 123 -273 q 164 -112 123 -153 q 266 -71 205 -71 q 367 -112 326 -71 q 408 -212 408 -153 q 367 -314 408 -273 q 266 -355 326 -355 z "},"Ṯ":{"ha":766,"x_min":-47,"x_max":859,"o":"m 183 0 l 343 811 l 597 811 l 437 0 l 183 0 m 115 777 l 160 1000 l 859 1000 l 814 777 l 115 777 m -47 -286 l -18 -142 l 579 -142 l 550 -286 l -47 -286 z "},"U":{"ha":985,"x_min":79,"x_max":1015,"o":"m 450 -11 q 242 42 329 -11 q 117 190 155 96 q 104 408 79 285 l 221 1000 l 475 1000 l 349 363 q 352 283 340 317 q 393 230 363 249 q 465 212 422 212 q 579 261 534 212 q 639 387 624 311 l 761 1000 l 1015 1000 l 892 381 q 742 93 856 196 q 450 -11 629 -11 z "},"Ú":{"ha":985,"x_min":79,"x_max":1015,"o":"m 450 -11 q 242 42 329 -11 q 117 190 155 96 q 104 408 79 285 l 221 1000 l 475 1000 l 349 363 q 352 283 340 317 q 393 230 363 249 q 465 212 422 212 q 579 261 534 212 q 639 387 624 311 l 761 1000 l 1015 1000 l 892 381 q 742 93 856 196 q 450 -11 629 -11 m 633 1046 l 514 1144 l 714 1355 l 857 1208 l 633 1046 z "},"Ŭ":{"ha":985,"x_min":79,"x_max":1015,"o":"m 450 -11 q 242 42 329 -11 q 117 190 155 96 q 104 408 79 285 l 221 1000 l 475 1000 l 349 363 q 352 283 340 317 q 393 230 363 249 q 465 212 422 212 q 579 261 534 212 q 639 387 624 311 l 761 1000 l 1015 1000 l 892 381 q 742 93 856 196 q 450 -11 629 -11 m 634 1063 q 502 1091 559 1063 q 418 1173 445 1119 q 408 1302 392 1226 l 544 1280 q 551 1224 537 1244 q 591 1196 565 1204 q 646 1188 617 1188 q 748 1217 702 1188 q 805 1302 794 1246 l 944 1280 q 881 1157 930 1205 q 767 1086 833 1109 q 634 1063 701 1063 z "},"Û":{"ha":985,"x_min":79,"x_max":1015,"o":"m 450 -11 q 242 42 329 -11 q 117 190 155 96 q 104 408 79 285 l 221 1000 l 475 1000 l 349 363 q 352 283 340 317 q 393 230 363 249 q 465 212 422 212 q 579 261 534 212 q 639 387 624 311 l 761 1000 l 1015 1000 l 892 381 q 742 93 856 196 q 450 -11 629 -11 m 465 1049 l 373 1158 l 655 1330 l 699 1330 l 923 1158 l 806 1049 l 659 1175 l 654 1175 l 465 1049 z "},"Ȕ":{"ha":985,"x_min":79,"x_max":1015,"o":"m 450 -11 q 242 42 329 -11 q 117 190 155 96 q 104 408 79 285 l 221 1000 l 475 1000 l 349 363 q 352 283 340 317 q 393 230 363 249 q 465 212 422 212 q 579 261 534 212 q 639 387 624 311 l 761 1000 l 1015 1000 l 892 381 q 742 93 856 196 q 450 -11 629 -11 m 439 1055 l 298 1274 l 465 1360 l 566 1113 l 439 1055 m 720 1055 l 581 1274 l 748 1360 l 846 1113 l 720 1055 z "},"Ü":{"ha":985,"x_min":79,"x_max":1015,"o":"m 450 -11 q 242 42 329 -11 q 117 190 155 96 q 104 408 79 285 l 221 1000 l 475 1000 l 349 363 q 352 283 340 317 q 393 230 363 249 q 465 212 422 212 q 579 261 534 212 q 639 387 624 311 l 761 1000 l 1015 1000 l 892 381 q 742 93 856 196 q 450 -11 629 -11 m 830 1044 q 734 1082 772 1044 q 695 1176 695 1120 q 731 1266 695 1230 q 821 1302 768 1302 q 912 1266 873 1302 q 952 1172 950 1231 q 917 1079 954 1114 q 830 1044 881 1044 m 486 1044 q 392 1082 430 1044 q 353 1176 353 1120 q 389 1265 353 1229 q 477 1302 424 1302 q 571 1263 533 1302 q 609 1167 609 1223 q 574 1080 609 1116 q 486 1044 538 1044 z "},"Ụ":{"ha":985,"x_min":79,"x_max":1015,"o":"m 450 -11 q 242 42 329 -11 q 117 190 155 96 q 104 408 79 285 l 221 1000 l 475 1000 l 349 363 q 352 283 340 317 q 393 230 363 249 q 465 212 422 212 q 579 261 534 212 q 639 387 624 311 l 761 1000 l 1015 1000 l 892 381 q 742 93 856 196 q 450 -11 629 -11 m 429 -355 q 327 -314 368 -355 q 286 -212 286 -273 q 327 -112 286 -153 q 429 -71 368 -71 q 530 -112 488 -71 q 571 -212 571 -153 q 530 -314 571 -273 q 429 -355 488 -355 z "},"Ù":{"ha":985,"x_min":79,"x_max":1015,"o":"m 450 -11 q 242 42 329 -11 q 117 190 155 96 q 104 408 79 285 l 221 1000 l 475 1000 l 349 363 q 352 283 340 317 q 393 230 363 249 q 465 212 422 212 q 579 261 534 212 q 639 387 624 311 l 761 1000 l 1015 1000 l 892 381 q 742 93 856 196 q 450 -11 629 -11 m 628 1046 l 396 1208 l 531 1355 l 742 1144 l 628 1046 z "},"Ủ":{"ha":985,"x_min":79,"x_max":1015,"o":"m 450 -11 q 242 42 329 -11 q 117 190 155 96 q 104 408 79 285 l 221 1000 l 475 1000 l 349 363 q 352 283 340 317 q 393 230 363 249 q 465 212 422 212 q 579 261 534 212 q 639 387 624 311 l 761 1000 l 1015 1000 l 892 381 q 742 93 856 196 q 450 -11 629 -11 m 658 1040 l 587 1130 q 629 1159 612 1143 q 650 1194 645 1175 q 643 1217 653 1208 q 600 1225 633 1225 q 552 1222 578 1225 q 507 1212 526 1218 l 526 1356 q 566 1364 545 1362 q 614 1367 587 1367 q 763 1325 719 1367 q 793 1213 806 1284 q 744 1112 781 1155 q 658 1040 707 1069 z "},"Ư":{"ha":1050,"x_min":79,"x_max":1280,"o":"m 450 -11 q 242 42 329 -11 q 117 190 155 96 q 104 408 79 285 l 221 1000 l 475 1000 l 349 363 q 352 283 340 317 q 393 230 363 249 q 465 212 422 212 q 579 261 534 212 q 639 387 624 311 l 761 1000 l 1015 1000 l 892 381 q 742 93 856 196 q 450 -11 629 -11 m 919 840 l 937 1000 q 1048 1036 1010 1000 q 1102 1145 1087 1072 q 1105 1171 1104 1154 q 1106 1206 1106 1187 l 1276 1215 q 1277 1154 1280 1187 q 1269 1089 1275 1121 q 1223 985 1258 1032 q 1138 903 1188 937 q 1031 852 1088 869 q 919 840 974 836 z "},"Ứ":{"ha":1050,"x_min":79,"x_max":1280,"o":"m 450 -11 q 242 42 329 -11 q 117 190 155 96 q 104 408 79 285 l 221 1000 l 475 1000 l 349 363 q 352 283 340 317 q 393 230 363 249 q 465 212 422 212 q 579 261 534 212 q 639 387 624 311 l 761 1000 l 1015 1000 l 892 381 q 742 93 856 196 q 450 -11 629 -11 m 919 840 l 937 1000 q 1048 1036 1010 1000 q 1102 1145 1087 1072 q 1105 1171 1104 1154 q 1106 1206 1106 1187 l 1276 1215 q 1277 1154 1280 1187 q 1269 1089 1275 1121 q 1223 985 1258 1032 q 1138 903 1188 937 q 1031 852 1088 869 q 919 840 974 836 m 633 1046 l 514 1144 l 714 1355 l 857 1208 l 633 1046 z "},"Ự":{"ha":1050,"x_min":79,"x_max":1280,"o":"m 450 -11 q 242 42 329 -11 q 117 190 155 96 q 104 408 79 285 l 221 1000 l 475 1000 l 349 363 q 352 283 340 317 q 393 230 363 249 q 465 212 422 212 q 579 261 534 212 q 639 387 624 311 l 761 1000 l 1015 1000 l 892 381 q 742 93 856 196 q 450 -11 629 -11 m 919 840 l 937 1000 q 1048 1036 1010 1000 q 1102 1145 1087 1072 q 1105 1171 1104 1154 q 1106 1206 1106 1187 l 1276 1215 q 1277 1154 1280 1187 q 1269 1089 1275 1121 q 1223 985 1258 1032 q 1138 903 1188 937 q 1031 852 1088 869 q 919 840 974 836 m 429 -355 q 327 -314 368 -355 q 286 -212 286 -273 q 327 -112 286 -153 q 429 -71 368 -71 q 530 -112 488 -71 q 571 -212 571 -153 q 530 -314 571 -273 q 429 -355 488 -355 z "},"Ừ":{"ha":1050,"x_min":79,"x_max":1280,"o":"m 450 -11 q 242 42 329 -11 q 117 190 155 96 q 104 408 79 285 l 221 1000 l 475 1000 l 349 363 q 352 283 340 317 q 393 230 363 249 q 465 212 422 212 q 579 261 534 212 q 639 387 624 311 l 761 1000 l 1015 1000 l 892 381 q 742 93 856 196 q 450 -11 629 -11 m 919 840 l 937 1000 q 1048 1036 1010 1000 q 1102 1145 1087 1072 q 1105 1171 1104 1154 q 1106 1206 1106 1187 l 1276 1215 q 1277 1154 1280 1187 q 1269 1089 1275 1121 q 1223 985 1258 1032 q 1138 903 1188 937 q 1031 852 1088 869 q 919 840 974 836 m 628 1046 l 396 1208 l 531 1355 l 742 1144 l 628 1046 z "},"Ử":{"ha":1050,"x_min":79,"x_max":1280,"o":"m 450 -11 q 242 42 329 -11 q 117 190 155 96 q 104 408 79 285 l 221 1000 l 475 1000 l 349 363 q 352 283 340 317 q 393 230 363 249 q 465 212 422 212 q 579 261 534 212 q 639 387 624 311 l 761 1000 l 1015 1000 l 892 381 q 742 93 856 196 q 450 -11 629 -11 m 919 840 l 937 1000 q 1048 1036 1010 1000 q 1102 1145 1087 1072 q 1105 1171 1104 1154 q 1106 1206 1106 1187 l 1276 1215 q 1277 1154 1280 1187 q 1269 1089 1275 1121 q 1223 985 1258 1032 q 1138 903 1188 937 q 1031 852 1088 869 q 919 840 974 836 m 658 1040 l 587 1130 q 629 1159 612 1143 q 650 1194 645 1175 q 643 1217 653 1208 q 600 1225 633 1225 q 552 1222 578 1225 q 507 1212 526 1218 l 526 1356 q 566 1364 545 1362 q 614 1367 587 1367 q 763 1325 719 1367 q 793 1213 806 1284 q 744 1112 781 1155 q 658 1040 707 1069 z "},"Ữ":{"ha":1050,"x_min":79,"x_max":1280,"o":"m 450 -11 q 242 42 329 -11 q 117 190 155 96 q 104 408 79 285 l 221 1000 l 475 1000 l 349 363 q 352 283 340 317 q 393 230 363 249 q 465 212 422 212 q 579 261 534 212 q 639 387 624 311 l 761 1000 l 1015 1000 l 892 381 q 742 93 856 196 q 450 -11 629 -11 m 919 840 l 937 1000 q 1048 1036 1010 1000 q 1102 1145 1087 1072 q 1105 1171 1104 1154 q 1106 1206 1106 1187 l 1276 1215 q 1277 1154 1280 1187 q 1269 1089 1275 1121 q 1223 985 1258 1032 q 1138 903 1188 937 q 1031 852 1088 869 q 919 840 974 836 m 498 1052 l 362 1074 q 433 1224 381 1168 q 559 1280 484 1280 q 628 1269 603 1280 q 669 1242 654 1257 q 696 1216 684 1227 q 724 1205 708 1205 q 776 1232 753 1205 q 806 1291 800 1258 l 943 1269 q 871 1120 925 1177 q 740 1063 818 1063 q 674 1075 699 1063 q 635 1102 650 1086 q 607 1129 620 1118 q 577 1141 595 1141 q 528 1116 549 1141 q 498 1052 507 1092 z "},"Ű":{"ha":985,"x_min":79,"x_max":1045,"o":"m 450 -11 q 242 42 329 -11 q 117 190 155 96 q 104 408 79 285 l 221 1000 l 475 1000 l 349 363 q 352 283 340 317 q 393 230 363 249 q 465 212 422 212 q 579 261 534 212 q 639 387 624 311 l 761 1000 l 1015 1000 l 892 381 q 742 93 856 196 q 450 -11 629 -11 m 540 1055 l 427 1113 l 623 1360 l 764 1274 l 540 1055 m 823 1055 l 710 1113 l 901 1360 l 1045 1274 l 823 1055 z "},"Ȗ":{"ha":985,"x_min":79,"x_max":1015,"o":"m 450 -11 q 242 42 329 -11 q 117 190 155 96 q 104 408 79 285 l 221 1000 l 475 1000 l 349 363 q 352 283 340 317 q 393 230 363 249 q 465 212 422 212 q 579 261 534 212 q 639 387 624 311 l 761 1000 l 1015 1000 l 892 381 q 742 93 856 196 q 450 -11 629 -11 m 895 1044 l 755 1066 q 735 1135 764 1104 q 646 1166 707 1166 q 547 1136 587 1166 q 497 1055 508 1107 l 359 1077 q 419 1201 372 1154 q 529 1272 465 1249 q 656 1294 592 1294 q 793 1262 734 1294 q 882 1174 853 1230 q 895 1044 911 1118 z "},"Ū":{"ha":985,"x_min":79,"x_max":1015,"o":"m 450 -11 q 242 42 329 -11 q 117 190 155 96 q 104 408 79 285 l 221 1000 l 475 1000 l 349 363 q 352 283 340 317 q 393 230 363 249 q 465 212 422 212 q 579 261 534 212 q 639 387 624 311 l 761 1000 l 1015 1000 l 892 381 q 742 93 856 196 q 450 -11 629 -11 m 357 1094 l 387 1249 l 942 1249 l 913 1094 l 357 1094 z "},"Ṻ":{"ha":985,"x_min":79,"x_max":1015,"o":"m 450 -11 q 242 42 329 -11 q 117 190 155 96 q 104 408 79 285 l 221 1000 l 475 1000 l 349 363 q 352 283 340 317 q 393 230 363 249 q 465 212 422 212 q 579 261 534 212 q 639 387 624 311 l 761 1000 l 1015 1000 l 892 381 q 742 93 856 196 q 450 -11 629 -11 m 357 1094 l 387 1249 l 942 1249 l 913 1094 l 357 1094 m 878 1293 q 782 1331 821 1293 q 743 1426 743 1369 q 780 1516 743 1480 q 869 1552 816 1552 q 960 1516 922 1552 q 1000 1421 998 1480 q 965 1329 1002 1364 q 878 1293 929 1293 m 534 1293 q 440 1331 478 1293 q 401 1426 401 1369 q 437 1515 401 1478 q 525 1552 472 1552 q 619 1512 581 1552 q 657 1417 657 1473 q 622 1329 657 1365 q 534 1293 587 1293 z "},"Ų":{"ha":985,"x_min":79,"x_max":1015,"o":"m 450 -11 q 242 42 329 -11 q 117 190 155 96 q 104 408 79 285 l 221 1000 l 475 1000 l 349 363 q 352 283 340 317 q 393 230 363 249 q 465 212 422 212 q 579 261 534 212 q 639 387 624 311 l 761 1000 l 1015 1000 l 892 381 q 742 93 856 196 q 450 -11 629 -11 m 382 -297 q 264 -250 303 -297 q 239 -132 224 -203 q 297 -40 250 -81 q 424 41 344 0 l 543 0 q 472 -41 507 -19 q 413 -86 437 -64 q 385 -127 389 -108 q 391 -153 382 -142 q 427 -164 399 -164 q 474 -157 450 -164 q 509 -144 498 -151 l 493 -283 q 435 -294 470 -292 q 382 -297 401 -297 z "},"Ů":{"ha":985,"x_min":79,"x_max":1015,"o":"m 450 -11 q 242 42 329 -11 q 117 190 155 96 q 104 408 79 285 l 221 1000 l 475 1000 l 349 363 q 352 283 340 317 q 393 230 363 249 q 465 212 422 212 q 579 261 534 212 q 639 387 624 311 l 761 1000 l 1015 1000 l 892 381 q 742 93 856 196 q 450 -11 629 -11 m 637 1044 q 537 1070 581 1044 q 475 1145 494 1097 q 467 1257 455 1194 q 545 1381 481 1333 q 691 1430 609 1430 q 793 1400 752 1430 q 852 1321 835 1371 q 857 1213 869 1272 q 816 1126 848 1165 q 738 1066 784 1088 q 637 1044 691 1044 m 637 1168 q 697 1195 670 1168 q 734 1259 725 1221 q 727 1289 738 1275 q 688 1302 716 1302 q 628 1276 654 1302 q 591 1212 602 1251 q 600 1181 587 1194 q 637 1168 614 1168 z "},"Ũ":{"ha":985,"x_min":79,"x_max":1015,"o":"m 450 -11 q 242 42 329 -11 q 117 190 155 96 q 104 408 79 285 l 221 1000 l 475 1000 l 349 363 q 352 283 340 317 q 393 230 363 249 q 465 212 422 212 q 579 261 534 212 q 639 387 624 311 l 761 1000 l 1015 1000 l 892 381 q 742 93 856 196 q 450 -11 629 -11 m 498 1052 l 362 1074 q 433 1224 381 1168 q 559 1280 484 1280 q 628 1269 603 1280 q 669 1242 654 1257 q 696 1216 684 1227 q 724 1205 708 1205 q 776 1232 753 1205 q 806 1291 800 1258 l 943 1269 q 871 1120 925 1177 q 740 1063 818 1063 q 674 1075 699 1063 q 635 1102 650 1086 q 607 1129 620 1118 q 577 1141 595 1141 q 528 1116 549 1141 q 498 1052 507 1092 z "},"Ṹ":{"ha":985,"x_min":79,"x_max":1015,"o":"m 450 -11 q 242 42 329 -11 q 117 190 155 96 q 104 408 79 285 l 221 1000 l 475 1000 l 349 363 q 352 283 340 317 q 393 230 363 249 q 465 212 422 212 q 579 261 534 212 q 639 387 624 311 l 761 1000 l 1015 1000 l 892 381 q 742 93 856 196 q 450 -11 629 -11 m 498 1052 l 362 1074 q 433 1224 381 1168 q 559 1280 484 1280 q 628 1269 603 1280 q 669 1242 654 1257 q 696 1216 684 1227 q 724 1205 708 1205 q 776 1232 753 1205 q 806 1291 800 1258 l 943 1269 q 871 1120 925 1177 q 740 1063 818 1063 q 674 1075 699 1063 q 635 1102 650 1086 q 607 1129 620 1118 q 577 1141 595 1141 q 528 1116 549 1141 q 498 1052 507 1092 m 690 1324 l 571 1421 l 771 1632 l 914 1485 l 690 1324 z "},"V":{"ha":1006,"x_min":126,"x_max":1133,"o":"m 326 0 l 126 1000 l 393 1000 l 452 609 l 491 336 l 491 336 l 628 609 l 841 1000 l 1133 1000 l 543 0 l 326 0 z "},"W":{"ha":1394,"x_min":133,"x_max":1515,"o":"m 241 0 l 133 1000 l 385 1000 l 414 598 l 429 347 l 434 347 l 727 886 l 827 886 l 956 347 l 962 347 l 1066 598 l 1244 1000 l 1515 1000 l 1044 0 l 845 0 l 713 433 l 708 433 l 445 0 l 241 0 z "},"Ẃ":{"ha":1394,"x_min":133,"x_max":1515,"o":"m 241 0 l 133 1000 l 385 1000 l 414 598 l 429 347 l 434 347 l 727 886 l 827 886 l 956 347 l 962 347 l 1066 598 l 1244 1000 l 1515 1000 l 1044 0 l 845 0 l 713 433 l 708 433 l 445 0 l 241 0 m 841 1046 l 722 1144 l 922 1355 l 1065 1208 l 841 1046 z "},"Ŵ":{"ha":1394,"x_min":133,"x_max":1515,"o":"m 241 0 l 133 1000 l 385 1000 l 414 598 l 429 347 l 434 347 l 727 886 l 827 886 l 956 347 l 962 347 l 1066 598 l 1244 1000 l 1515 1000 l 1044 0 l 845 0 l 713 433 l 708 433 l 445 0 l 241 0 m 672 1049 l 581 1158 l 863 1330 l 907 1330 l 1131 1158 l 1014 1049 l 867 1175 l 861 1175 l 672 1049 z "},"Ẅ":{"ha":1394,"x_min":133,"x_max":1515,"o":"m 241 0 l 133 1000 l 385 1000 l 414 598 l 429 347 l 434 347 l 727 886 l 827 886 l 956 347 l 962 347 l 1066 598 l 1244 1000 l 1515 1000 l 1044 0 l 845 0 l 713 433 l 708 433 l 445 0 l 241 0 m 1038 1044 q 941 1082 980 1044 q 903 1176 903 1120 q 939 1266 903 1230 q 1029 1302 975 1302 q 1119 1266 1081 1302 q 1160 1172 1158 1231 q 1125 1079 1161 1114 q 1038 1044 1088 1044 m 693 1044 q 599 1082 637 1044 q 561 1176 561 1120 q 596 1265 561 1229 q 684 1302 631 1302 q 779 1263 741 1302 q 817 1167 817 1223 q 781 1080 817 1116 q 693 1044 746 1044 z "},"Ẁ":{"ha":1394,"x_min":133,"x_max":1515,"o":"m 241 0 l 133 1000 l 385 1000 l 414 598 l 429 347 l 434 347 l 727 886 l 827 886 l 956 347 l 962 347 l 1066 598 l 1244 1000 l 1515 1000 l 1044 0 l 845 0 l 713 433 l 708 433 l 445 0 l 241 0 m 836 1046 l 604 1208 l 739 1355 l 949 1144 l 836 1046 z "},"X":{"ha":1017,"x_min":-52,"x_max":1112,"o":"m 646 0 l 515 316 l 511 316 l 372 518 l 372 521 l 159 1000 l 434 1000 l 567 661 l 572 661 l 705 481 l 705 479 l 921 0 l 646 0 m -52 0 l 372 515 l 372 518 l 560 661 l 564 661 l 802 1000 l 1112 1000 l 705 484 l 705 483 l 517 316 l 513 316 l 274 0 l -52 0 z "},"Y":{"ha":917,"x_min":126,"x_max":1043,"o":"m 256 0 l 331 377 l 126 1000 l 393 1000 l 446 814 l 495 614 l 498 614 l 620 814 l 727 1000 l 1043 1000 l 583 365 l 511 0 l 256 0 z "},"Ý":{"ha":917,"x_min":126,"x_max":1043,"o":"m 256 0 l 331 377 l 126 1000 l 393 1000 l 446 814 l 495 614 l 498 614 l 620 814 l 727 1000 l 1043 1000 l 583 365 l 511 0 l 256 0 m 583 1046 l 464 1144 l 664 1355 l 807 1208 l 583 1046 z "},"Ŷ":{"ha":917,"x_min":126,"x_max":1043,"o":"m 256 0 l 331 377 l 126 1000 l 393 1000 l 446 814 l 495 614 l 498 614 l 620 814 l 727 1000 l 1043 1000 l 583 365 l 511 0 l 256 0 m 414 1049 l 323 1158 l 605 1330 l 649 1330 l 873 1158 l 756 1049 l 609 1175 l 604 1175 l 414 1049 z "},"Ÿ":{"ha":917,"x_min":126,"x_max":1043,"o":"m 256 0 l 331 377 l 126 1000 l 393 1000 l 446 814 l 495 614 l 498 614 l 620 814 l 727 1000 l 1043 1000 l 583 365 l 511 0 l 256 0 m 780 1044 q 684 1082 722 1044 q 645 1176 645 1120 q 681 1266 645 1230 q 771 1302 718 1302 q 862 1266 823 1302 q 902 1172 900 1231 q 867 1079 903 1114 q 780 1044 831 1044 m 435 1044 q 341 1082 380 1044 q 303 1176 303 1120 q 338 1265 303 1229 q 427 1302 374 1302 q 521 1263 483 1302 q 559 1167 559 1223 q 524 1080 559 1116 q 435 1044 488 1044 z "},"Ẏ":{"ha":917,"x_min":126,"x_max":1043,"o":"m 256 0 l 331 377 l 126 1000 l 393 1000 l 446 814 l 495 614 l 498 614 l 620 814 l 727 1000 l 1043 1000 l 583 365 l 511 0 l 256 0 m 613 1058 q 512 1099 553 1058 q 471 1201 471 1141 q 512 1302 471 1261 q 613 1343 553 1343 q 714 1302 673 1343 q 755 1201 755 1261 q 714 1099 755 1141 q 613 1058 673 1058 z "},"Ỵ":{"ha":917,"x_min":126,"x_max":1043,"o":"m 256 0 l 331 377 l 126 1000 l 393 1000 l 446 814 l 495 614 l 498 614 l 620 814 l 727 1000 l 1043 1000 l 583 365 l 511 0 l 256 0 m 357 -355 q 255 -314 296 -355 q 214 -212 214 -273 q 255 -112 214 -153 q 357 -71 296 -71 q 458 -112 416 -71 q 499 -212 499 -153 q 458 -314 499 -273 q 357 -355 416 -355 z "},"Ỳ":{"ha":917,"x_min":126,"x_max":1043,"o":"m 256 0 l 331 377 l 126 1000 l 393 1000 l 446 814 l 495 614 l 498 614 l 620 814 l 727 1000 l 1043 1000 l 583 365 l 511 0 l 256 0 m 578 1046 l 346 1208 l 481 1355 l 692 1144 l 578 1046 z "},"Ỷ":{"ha":917,"x_min":126,"x_max":1043,"o":"m 256 0 l 331 377 l 126 1000 l 393 1000 l 446 814 l 495 614 l 498 614 l 620 814 l 727 1000 l 1043 1000 l 583 365 l 511 0 l 256 0 m 608 1040 l 536 1130 q 578 1159 562 1143 q 600 1194 595 1175 q 593 1217 603 1208 q 549 1225 583 1225 q 502 1222 528 1225 q 456 1212 476 1218 l 475 1356 q 515 1364 494 1362 q 564 1367 536 1367 q 712 1325 669 1367 q 743 1213 756 1284 q 694 1112 731 1155 q 608 1040 656 1069 z "},"Ȳ":{"ha":917,"x_min":126,"x_max":1043,"o":"m 256 0 l 331 377 l 126 1000 l 393 1000 l 446 814 l 495 614 l 498 614 l 620 814 l 727 1000 l 1043 1000 l 583 365 l 511 0 l 256 0 m 307 1094 l 336 1249 l 892 1249 l 863 1094 l 307 1094 z "},"Ỹ":{"ha":917,"x_min":126,"x_max":1043,"o":"m 256 0 l 331 377 l 126 1000 l 393 1000 l 446 814 l 495 614 l 498 614 l 620 814 l 727 1000 l 1043 1000 l 583 365 l 511 0 l 256 0 m 448 1052 l 312 1074 q 382 1224 331 1168 q 509 1280 434 1280 q 578 1269 553 1280 q 619 1242 604 1257 q 646 1216 634 1227 q 674 1205 658 1205 q 726 1232 703 1205 q 756 1291 749 1258 l 892 1269 q 821 1120 875 1177 q 690 1063 768 1063 q 624 1075 648 1063 q 585 1102 600 1086 q 557 1129 570 1118 q 527 1141 545 1141 q 478 1116 499 1141 q 448 1052 456 1092 z "},"Z":{"ha":840,"x_min":-30,"x_max":909,"o":"m -30 0 l -23 34 l 488 774 l 488 780 l 149 780 l 193 1000 l 909 1000 l 901 963 l 390 225 l 390 220 l 768 220 l 724 0 l -30 0 z "},"Ź":{"ha":840,"x_min":-30,"x_max":909,"o":"m -30 0 l -23 34 l 488 774 l 488 780 l 149 780 l 193 1000 l 909 1000 l 901 963 l 390 225 l 390 220 l 768 220 l 724 0 l -30 0 m 564 1046 l 444 1144 l 644 1355 l 787 1208 l 564 1046 z "},"Ž":{"ha":840,"x_min":-30,"x_max":909,"o":"m -30 0 l -23 34 l 488 774 l 488 780 l 149 780 l 193 1000 l 909 1000 l 901 963 l 390 225 l 390 220 l 768 220 l 724 0 l -30 0 m 530 1049 l 307 1221 l 423 1330 l 570 1205 l 576 1205 l 765 1330 l 857 1221 l 575 1049 l 530 1049 z "},"Ż":{"ha":840,"x_min":-30,"x_max":909,"o":"m -30 0 l -23 34 l 488 774 l 488 780 l 149 780 l 193 1000 l 909 1000 l 901 963 l 390 225 l 390 220 l 768 220 l 724 0 l -30 0 m 593 1058 q 492 1099 533 1058 q 451 1201 451 1141 q 492 1302 451 1261 q 593 1343 533 1343 q 694 1302 653 1343 q 736 1201 736 1261 q 694 1099 736 1141 q 593 1058 653 1058 z "},"Ẓ":{"ha":840,"x_min":-30,"x_max":909,"o":"m -30 0 l -23 34 l 488 774 l 488 780 l 149 780 l 193 1000 l 909 1000 l 901 963 l 390 225 l 390 220 l 768 220 l 724 0 l -30 0 m 302 -355 q 200 -314 241 -355 q 159 -212 159 -273 q 200 -112 159 -153 q 302 -71 241 -71 q 403 -112 361 -71 q 444 -212 444 -153 q 403 -314 444 -273 q 302 -355 361 -355 z "},"a":{"ha":846,"x_min":36,"x_max":830,"o":"m 300 -11 q 164 26 224 -11 q 70 134 104 64 q 36 304 36 205 q 61 466 36 387 q 133 607 87 545 q 245 707 180 670 q 389 743 310 743 q 523 705 469 743 q 606 600 577 667 l 461 639 l 685 639 l 571 553 l 606 732 l 830 732 l 734 258 q 736 210 728 227 q 770 184 744 192 l 689 -11 q 591 22 635 -1 q 520 77 547 45 q 495 145 494 109 l 616 84 l 393 84 l 553 145 q 445 31 508 72 q 300 -11 381 -11 m 380 190 q 445 207 415 190 q 496 253 475 224 q 530 320 518 282 q 543 401 543 358 q 512 507 543 470 q 431 544 481 544 q 366 527 396 544 q 314 481 336 510 q 279 414 292 452 q 267 334 267 376 q 299 228 267 266 q 380 190 330 190 z "},"á":{"ha":846,"x_min":36,"x_max":830,"o":"m 300 -11 q 164 26 224 -11 q 70 134 104 64 q 36 304 36 205 q 61 466 36 387 q 133 607 87 545 q 245 707 180 670 q 389 743 310 743 q 523 705 469 743 q 606 600 577 667 l 461 639 l 685 639 l 571 553 l 606 732 l 830 732 l 734 258 q 736 210 728 227 q 770 184 744 192 l 689 -11 q 591 22 635 -1 q 520 77 547 45 q 495 145 494 109 l 616 84 l 393 84 l 553 145 q 445 31 508 72 q 300 -11 381 -11 m 380 190 q 445 207 415 190 q 496 253 475 224 q 530 320 518 282 q 543 401 543 358 q 512 507 543 470 q 431 544 481 544 q 366 527 396 544 q 314 481 336 510 q 279 414 292 452 q 267 334 267 376 q 299 228 267 266 q 380 190 330 190 m 511 781 l 405 864 l 610 1128 l 744 1000 l 511 781 z "},"ă":{"ha":846,"x_min":36,"x_max":830,"o":"m 300 -11 q 164 26 224 -11 q 70 134 104 64 q 36 304 36 205 q 61 466 36 387 q 133 607 87 545 q 245 707 180 670 q 389 743 310 743 q 523 705 469 743 q 606 600 577 667 l 461 639 l 685 639 l 571 553 l 606 732 l 830 732 l 734 258 q 736 210 728 227 q 770 184 744 192 l 689 -11 q 591 22 635 -1 q 520 77 547 45 q 495 145 494 109 l 616 84 l 393 84 l 553 145 q 445 31 508 72 q 300 -11 381 -11 m 380 190 q 445 207 415 190 q 496 253 475 224 q 530 320 518 282 q 543 401 543 358 q 512 507 543 470 q 431 544 481 544 q 366 527 396 544 q 314 481 336 510 q 279 414 292 452 q 267 334 267 376 q 299 228 267 266 q 380 190 330 190 m 519 806 q 383 840 441 806 q 298 932 326 875 q 283 1055 271 989 l 425 1034 q 445 961 417 988 q 520 933 472 933 q 594 951 559 933 q 653 997 629 968 q 684 1055 677 1025 l 825 1034 q 767 916 812 967 q 657 835 722 864 q 519 806 592 806 z "},"ắ":{"ha":846,"x_min":36,"x_max":830,"o":"m 300 -11 q 164 26 224 -11 q 70 134 104 64 q 36 304 36 205 q 61 466 36 387 q 133 607 87 545 q 245 707 180 670 q 389 743 310 743 q 523 705 469 743 q 606 600 577 667 l 461 639 l 685 639 l 571 553 l 606 732 l 830 732 l 734 258 q 736 210 728 227 q 770 184 744 192 l 689 -11 q 591 22 635 -1 q 520 77 547 45 q 495 145 494 109 l 616 84 l 393 84 l 553 145 q 445 31 508 72 q 300 -11 381 -11 m 380 190 q 445 207 415 190 q 496 253 475 224 q 530 320 518 282 q 543 401 543 358 q 512 507 543 470 q 431 544 481 544 q 366 527 396 544 q 314 481 336 510 q 279 414 292 452 q 267 334 267 376 q 299 228 267 266 q 380 190 330 190 m 510 991 l 397 1075 l 559 1303 l 707 1177 l 510 991 m 490 806 q 357 831 416 806 q 267 908 297 857 q 252 1034 237 959 l 388 1022 q 397 967 382 987 q 438 937 412 946 q 493 928 464 928 q 591 956 547 928 q 644 1039 634 985 l 788 1028 q 729 904 774 953 q 623 830 685 854 q 490 806 560 806 z "},"ặ":{"ha":846,"x_min":36,"x_max":830,"o":"m 300 -11 q 164 26 224 -11 q 70 134 104 64 q 36 304 36 205 q 61 466 36 387 q 133 607 87 545 q 245 707 180 670 q 389 743 310 743 q 523 705 469 743 q 606 600 577 667 l 461 639 l 685 639 l 571 553 l 606 732 l 830 732 l 734 258 q 736 210 728 227 q 770 184 744 192 l 689 -11 q 591 22 635 -1 q 520 77 547 45 q 495 145 494 109 l 616 84 l 393 84 l 553 145 q 445 31 508 72 q 300 -11 381 -11 m 380 190 q 445 207 415 190 q 496 253 475 224 q 530 320 518 282 q 543 401 543 358 q 512 507 543 470 q 431 544 481 544 q 366 527 396 544 q 314 481 336 510 q 279 414 292 452 q 267 334 267 376 q 299 228 267 266 q 380 190 330 190 m 302 -355 q 201 -314 242 -355 q 160 -212 160 -273 q 201 -112 160 -153 q 302 -71 242 -71 q 404 -112 362 -71 q 445 -212 445 -153 q 404 -314 445 -273 q 302 -355 362 -355 m 519 806 q 383 840 441 806 q 298 932 326 875 q 283 1055 271 989 l 425 1034 q 445 961 417 988 q 520 933 472 933 q 594 951 559 933 q 653 997 629 968 q 684 1055 677 1025 l 825 1034 q 767 916 812 967 q 657 835 722 864 q 519 806 592 806 z "},"ằ":{"ha":846,"x_min":36,"x_max":830,"o":"m 300 -11 q 164 26 224 -11 q 70 134 104 64 q 36 304 36 205 q 61 466 36 387 q 133 607 87 545 q 245 707 180 670 q 389 743 310 743 q 523 705 469 743 q 606 600 577 667 l 461 639 l 685 639 l 571 553 l 606 732 l 830 732 l 734 258 q 736 210 728 227 q 770 184 744 192 l 689 -11 q 591 22 635 -1 q 520 77 547 45 q 495 145 494 109 l 616 84 l 393 84 l 553 145 q 445 31 508 72 q 300 -11 381 -11 m 380 190 q 445 207 415 190 q 496 253 475 224 q 530 320 518 282 q 543 401 543 358 q 512 507 543 470 q 431 544 481 544 q 366 527 396 544 q 314 481 336 510 q 279 414 292 452 q 267 334 267 376 q 299 228 267 266 q 380 190 330 190 m 536 994 l 302 1153 l 431 1297 l 637 1103 l 536 994 m 498 806 q 365 831 425 806 q 275 908 305 857 q 260 1034 245 959 l 396 1022 q 405 967 391 987 q 446 937 420 946 q 501 928 472 928 q 599 956 555 928 q 652 1039 642 985 l 796 1028 q 738 904 782 953 q 631 830 693 854 q 498 806 568 806 z "},"ẳ":{"ha":846,"x_min":36,"x_max":830,"o":"m 300 -11 q 164 26 224 -11 q 70 134 104 64 q 36 304 36 205 q 61 466 36 387 q 133 607 87 545 q 245 707 180 670 q 389 743 310 743 q 523 705 469 743 q 606 600 577 667 l 461 639 l 685 639 l 571 553 l 606 732 l 830 732 l 734 258 q 736 210 728 227 q 770 184 744 192 l 689 -11 q 591 22 635 -1 q 520 77 547 45 q 495 145 494 109 l 616 84 l 393 84 l 553 145 q 445 31 508 72 q 300 -11 381 -11 m 380 190 q 445 207 415 190 q 496 253 475 224 q 530 320 518 282 q 543 401 543 358 q 512 507 543 470 q 431 544 481 544 q 366 527 396 544 q 314 481 336 510 q 279 414 292 452 q 267 334 267 376 q 299 228 267 266 q 380 190 330 190 m 518 806 q 385 831 444 806 q 295 908 325 857 q 279 1034 265 959 l 416 1022 q 425 967 410 987 q 466 937 439 946 q 521 928 492 928 q 618 956 575 928 q 671 1039 662 985 l 816 1028 q 757 904 802 953 q 650 830 713 854 q 518 806 588 806 m 530 967 l 458 1057 q 500 1086 484 1071 q 522 1121 517 1102 q 515 1144 525 1136 q 471 1153 505 1153 q 424 1149 450 1153 q 378 1139 398 1145 l 397 1284 q 437 1292 416 1289 q 486 1295 458 1295 q 634 1253 591 1295 q 665 1141 678 1211 q 616 1040 653 1082 q 530 967 578 997 z "},"ẵ":{"ha":846,"x_min":36,"x_max":865,"o":"m 300 -11 q 164 26 224 -11 q 70 134 104 64 q 36 304 36 205 q 61 466 36 387 q 133 607 87 545 q 245 707 180 670 q 389 743 310 743 q 523 705 469 743 q 606 600 577 667 l 461 639 l 685 639 l 571 553 l 606 732 l 830 732 l 734 258 q 736 210 728 227 q 770 184 744 192 l 689 -11 q 591 22 635 -1 q 520 77 547 45 q 495 145 494 109 l 616 84 l 393 84 l 553 145 q 445 31 508 72 q 300 -11 381 -11 m 380 190 q 445 207 415 190 q 496 253 475 224 q 530 320 518 282 q 543 401 543 358 q 512 507 543 470 q 431 544 481 544 q 366 527 396 544 q 314 481 336 510 q 279 414 292 452 q 267 334 267 376 q 299 228 267 266 q 380 190 330 190 m 416 1075 l 267 1089 q 341 1236 286 1181 q 472 1292 397 1292 q 534 1279 509 1292 q 579 1250 559 1267 q 615 1221 598 1234 q 650 1208 631 1208 q 691 1240 675 1208 q 715 1308 708 1271 l 865 1295 q 823 1184 852 1235 q 750 1102 793 1133 q 656 1071 707 1071 q 596 1083 621 1071 q 552 1112 571 1096 q 517 1140 534 1128 q 480 1153 500 1153 q 439 1134 455 1153 q 416 1075 424 1115 m 496 806 q 363 831 422 806 q 273 908 303 857 q 258 1034 243 959 l 394 1022 q 403 967 389 987 q 444 937 418 946 q 499 928 470 928 q 597 956 553 928 q 650 1039 640 985 l 794 1028 q 735 904 780 953 q 629 830 691 854 q 496 806 566 806 z "},"ǎ":{"ha":846,"x_min":36,"x_max":830,"o":"m 300 -11 q 164 26 224 -11 q 70 134 104 64 q 36 304 36 205 q 61 466 36 387 q 133 607 87 545 q 245 707 180 670 q 389 743 310 743 q 523 705 469 743 q 606 600 577 667 l 461 639 l 685 639 l 571 553 l 606 732 l 830 732 l 734 258 q 736 210 728 227 q 770 184 744 192 l 689 -11 q 591 22 635 -1 q 520 77 547 45 q 495 145 494 109 l 616 84 l 393 84 l 553 145 q 445 31 508 72 q 300 -11 381 -11 m 380 190 q 445 207 415 190 q 496 253 475 224 q 530 320 518 282 q 543 401 543 358 q 512 507 543 470 q 431 544 481 544 q 366 527 396 544 q 314 481 336 510 q 279 414 292 452 q 267 334 267 376 q 299 228 267 266 q 380 190 330 190 m 479 770 l 259 981 l 359 1092 l 520 936 l 526 936 l 731 1092 l 812 981 l 523 770 l 479 770 z "},"â":{"ha":846,"x_min":36,"x_max":830,"o":"m 300 -11 q 164 26 224 -11 q 70 134 104 64 q 36 304 36 205 q 61 466 36 387 q 133 607 87 545 q 245 707 180 670 q 389 743 310 743 q 523 705 469 743 q 606 600 577 667 l 461 639 l 685 639 l 571 553 l 606 732 l 830 732 l 734 258 q 736 210 728 227 q 770 184 744 192 l 689 -11 q 591 22 635 -1 q 520 77 547 45 q 495 145 494 109 l 616 84 l 393 84 l 553 145 q 445 31 508 72 q 300 -11 381 -11 m 380 190 q 445 207 415 190 q 496 253 475 224 q 530 320 518 282 q 543 401 543 358 q 512 507 543 470 q 431 544 481 544 q 366 527 396 544 q 314 481 336 510 q 279 414 292 452 q 267 334 267 376 q 299 228 267 266 q 380 190 330 190 m 327 770 l 246 880 l 535 1092 l 580 1092 l 799 880 l 699 770 l 538 925 l 532 925 l 327 770 z "},"ấ":{"ha":846,"x_min":36,"x_max":1015,"o":"m 300 -11 q 164 26 224 -11 q 70 134 104 64 q 36 304 36 205 q 61 466 36 387 q 133 607 87 545 q 245 707 180 670 q 389 743 310 743 q 523 705 469 743 q 606 600 577 667 l 461 639 l 685 639 l 571 553 l 606 732 l 830 732 l 734 258 q 736 210 728 227 q 770 184 744 192 l 689 -11 q 591 22 635 -1 q 520 77 547 45 q 495 145 494 109 l 616 84 l 393 84 l 553 145 q 445 31 508 72 q 300 -11 381 -11 m 380 190 q 445 207 415 190 q 496 253 475 224 q 530 320 518 282 q 543 401 543 358 q 512 507 543 470 q 431 544 481 544 q 366 527 396 544 q 314 481 336 510 q 279 414 292 452 q 267 334 267 376 q 299 228 267 266 q 380 190 330 190 m 749 989 l 659 1061 l 930 1295 l 1015 1145 l 749 989 m 338 783 l 246 892 l 528 1061 l 572 1061 l 796 892 l 680 783 l 527 908 l 530 908 l 338 783 z "},"ậ":{"ha":846,"x_min":36,"x_max":830,"o":"m 300 -11 q 164 26 224 -11 q 70 134 104 64 q 36 304 36 205 q 61 466 36 387 q 133 607 87 545 q 245 707 180 670 q 389 743 310 743 q 523 705 469 743 q 606 600 577 667 l 461 639 l 685 639 l 571 553 l 606 732 l 830 732 l 734 258 q 736 210 728 227 q 770 184 744 192 l 689 -11 q 591 22 635 -1 q 520 77 547 45 q 495 145 494 109 l 616 84 l 393 84 l 553 145 q 445 31 508 72 q 300 -11 381 -11 m 380 190 q 445 207 415 190 q 496 253 475 224 q 530 320 518 282 q 543 401 543 358 q 512 507 543 470 q 431 544 481 544 q 366 527 396 544 q 314 481 336 510 q 279 414 292 452 q 267 334 267 376 q 299 228 267 266 q 380 190 330 190 m 302 -355 q 201 -314 242 -355 q 160 -212 160 -273 q 201 -112 160 -153 q 302 -71 242 -71 q 404 -112 362 -71 q 445 -212 445 -153 q 404 -314 445 -273 q 302 -355 362 -355 m 327 770 l 246 880 l 535 1092 l 580 1092 l 799 880 l 699 770 l 538 925 l 532 925 l 327 770 z "},"ầ":{"ha":846,"x_min":36,"x_max":830,"o":"m 300 -11 q 164 26 224 -11 q 70 134 104 64 q 36 304 36 205 q 61 466 36 387 q 133 607 87 545 q 245 707 180 670 q 389 743 310 743 q 523 705 469 743 q 606 600 577 667 l 461 639 l 685 639 l 571 553 l 606 732 l 830 732 l 734 258 q 736 210 728 227 q 770 184 744 192 l 689 -11 q 591 22 635 -1 q 520 77 547 45 q 495 145 494 109 l 616 84 l 393 84 l 553 145 q 445 31 508 72 q 300 -11 381 -11 m 380 190 q 445 207 415 190 q 496 253 475 224 q 530 320 518 282 q 543 401 543 358 q 512 507 543 470 q 431 544 481 544 q 366 527 396 544 q 314 481 336 510 q 279 414 292 452 q 267 334 267 376 q 299 228 267 266 q 380 190 330 190 m 302 986 l 108 1192 l 254 1308 l 418 1059 l 302 986 m 340 783 l 248 892 l 530 1061 l 574 1061 l 798 892 l 682 783 l 529 908 l 532 908 l 340 783 z "},"ẩ":{"ha":846,"x_min":36,"x_max":887,"o":"m 300 -11 q 164 26 224 -11 q 70 134 104 64 q 36 304 36 205 q 61 466 36 387 q 133 607 87 545 q 245 707 180 670 q 389 743 310 743 q 523 705 469 743 q 606 600 577 667 l 461 639 l 685 639 l 571 553 l 606 732 l 830 732 l 734 258 q 736 210 728 227 q 770 184 744 192 l 689 -11 q 591 22 635 -1 q 520 77 547 45 q 495 145 494 109 l 616 84 l 393 84 l 553 145 q 445 31 508 72 q 300 -11 381 -11 m 380 190 q 445 207 415 190 q 496 253 475 224 q 530 320 518 282 q 543 401 543 358 q 512 507 543 470 q 431 544 481 544 q 366 527 396 544 q 314 481 336 510 q 279 414 292 452 q 267 334 267 376 q 299 228 267 266 q 380 190 330 190 m 764 978 l 663 1060 q 711 1095 694 1078 q 731 1126 728 1113 q 726 1147 734 1139 q 687 1154 717 1154 q 642 1151 666 1154 q 600 1140 618 1147 l 617 1284 q 654 1293 635 1290 q 701 1296 673 1296 q 845 1254 804 1296 q 874 1140 887 1213 q 834 1045 865 1086 q 764 978 802 1004 m 338 783 l 246 892 l 528 1061 l 572 1061 l 796 892 l 680 783 l 527 908 l 530 908 l 338 783 z "},"ẫ":{"ha":846,"x_min":36,"x_max":867,"o":"m 300 -11 q 164 26 224 -11 q 70 134 104 64 q 36 304 36 205 q 61 466 36 387 q 133 607 87 545 q 245 707 180 670 q 389 743 310 743 q 523 705 469 743 q 606 600 577 667 l 461 639 l 685 639 l 571 553 l 606 732 l 830 732 l 734 258 q 736 210 728 227 q 770 184 744 192 l 689 -11 q 591 22 635 -1 q 520 77 547 45 q 495 145 494 109 l 616 84 l 393 84 l 553 145 q 445 31 508 72 q 300 -11 381 -11 m 380 190 q 445 207 415 190 q 496 253 475 224 q 530 320 518 282 q 543 401 543 358 q 512 507 543 470 q 431 544 481 544 q 366 527 396 544 q 314 481 336 510 q 279 414 292 452 q 267 334 267 376 q 299 228 267 266 q 380 190 330 190 m 418 1075 l 268 1089 q 343 1236 288 1181 q 475 1292 399 1292 q 537 1279 511 1292 q 582 1250 562 1267 q 617 1221 601 1234 q 652 1208 634 1208 q 694 1240 677 1208 q 718 1308 711 1271 l 867 1295 q 825 1184 855 1235 q 753 1102 795 1133 q 659 1071 710 1071 q 598 1083 623 1071 q 555 1112 574 1096 q 519 1140 536 1128 q 483 1153 503 1153 q 441 1134 458 1153 q 418 1075 425 1115 m 338 783 l 247 892 l 529 1061 l 573 1061 l 797 892 l 680 783 l 528 908 l 530 908 l 338 783 z "},"ȁ":{"ha":846,"x_min":36,"x_max":830,"o":"m 300 -11 q 164 26 224 -11 q 70 134 104 64 q 36 304 36 205 q 61 466 36 387 q 133 607 87 545 q 245 707 180 670 q 389 743 310 743 q 523 705 469 743 q 606 600 577 667 l 461 639 l 685 639 l 571 553 l 606 732 l 830 732 l 734 258 q 736 210 728 227 q 770 184 744 192 l 689 -11 q 591 22 635 -1 q 520 77 547 45 q 495 145 494 109 l 616 84 l 393 84 l 553 145 q 445 31 508 72 q 300 -11 381 -11 m 380 190 q 445 207 415 190 q 496 253 475 224 q 530 320 518 282 q 543 401 543 358 q 512 507 543 470 q 431 544 481 544 q 366 527 396 544 q 314 481 336 510 q 279 414 292 452 q 267 334 267 376 q 299 228 267 266 q 380 190 330 190 m 349 791 l 237 1025 l 408 1100 l 473 819 l 349 791 m 613 791 l 500 1025 l 674 1100 l 737 819 l 613 791 z "},"ä":{"ha":846,"x_min":36,"x_max":835,"o":"m 300 -11 q 164 26 224 -11 q 70 134 104 64 q 36 304 36 205 q 61 466 36 387 q 133 607 87 545 q 245 707 180 670 q 389 743 310 743 q 523 705 469 743 q 606 600 577 667 l 461 639 l 685 639 l 571 553 l 606 732 l 830 732 l 734 258 q 736 210 728 227 q 770 184 744 192 l 689 -11 q 591 22 635 -1 q 520 77 547 45 q 495 145 494 109 l 616 84 l 393 84 l 553 145 q 445 31 508 72 q 300 -11 381 -11 m 380 190 q 445 207 415 190 q 496 253 475 224 q 530 320 518 282 q 543 401 543 358 q 512 507 543 470 q 431 544 481 544 q 366 527 396 544 q 314 481 336 510 q 279 414 292 452 q 267 334 267 376 q 299 228 267 266 q 380 190 330 190 m 708 819 q 617 856 654 819 q 580 947 580 893 q 617 1038 580 1001 q 707 1074 654 1074 q 798 1038 762 1074 q 835 947 835 1001 q 798 856 835 893 q 708 819 762 819 m 363 819 q 272 856 309 819 q 235 947 235 893 q 272 1038 235 1001 q 363 1074 309 1074 q 454 1038 417 1074 q 490 947 490 1001 q 454 856 490 893 q 363 819 417 819 z "},"ȧ":{"ha":846,"x_min":36,"x_max":830,"o":"m 300 -11 q 164 26 224 -11 q 70 134 104 64 q 36 304 36 205 q 61 466 36 387 q 133 607 87 545 q 245 707 180 670 q 389 743 310 743 q 523 705 469 743 q 606 600 577 667 l 461 639 l 685 639 l 571 553 l 606 732 l 830 732 l 734 258 q 736 210 728 227 q 770 184 744 192 l 689 -11 q 591 22 635 -1 q 520 77 547 45 q 495 145 494 109 l 616 84 l 393 84 l 553 145 q 445 31 508 72 q 300 -11 381 -11 m 380 190 q 445 207 415 190 q 496 253 475 224 q 530 320 518 282 q 543 401 543 358 q 512 507 543 470 q 431 544 481 544 q 366 527 396 544 q 314 481 336 510 q 279 414 292 452 q 267 334 267 376 q 299 228 267 266 q 380 190 330 190 m 536 808 q 434 850 475 808 q 393 951 393 891 q 434 1052 393 1011 q 536 1093 475 1093 q 637 1052 595 1093 q 678 951 678 1011 q 637 850 678 891 q 536 808 595 808 z "},"ạ":{"ha":846,"x_min":36,"x_max":830,"o":"m 300 -11 q 164 26 224 -11 q 70 134 104 64 q 36 304 36 205 q 61 466 36 387 q 133 607 87 545 q 245 707 180 670 q 389 743 310 743 q 523 705 469 743 q 606 600 577 667 l 461 639 l 685 639 l 571 553 l 606 732 l 830 732 l 734 258 q 736 210 728 227 q 770 184 744 192 l 689 -11 q 591 22 635 -1 q 520 77 547 45 q 495 145 494 109 l 616 84 l 393 84 l 553 145 q 445 31 508 72 q 300 -11 381 -11 m 380 190 q 445 207 415 190 q 496 253 475 224 q 530 320 518 282 q 543 401 543 358 q 512 507 543 470 q 431 544 481 544 q 366 527 396 544 q 314 481 336 510 q 279 414 292 452 q 267 334 267 376 q 299 228 267 266 q 380 190 330 190 m 302 -355 q 201 -314 242 -355 q 160 -212 160 -273 q 201 -112 160 -153 q 302 -71 242 -71 q 404 -112 362 -71 q 445 -212 445 -153 q 404 -314 445 -273 q 302 -355 362 -355 z "},"à":{"ha":846,"x_min":36,"x_max":830,"o":"m 300 -11 q 164 26 224 -11 q 70 134 104 64 q 36 304 36 205 q 61 466 36 387 q 133 607 87 545 q 245 707 180 670 q 389 743 310 743 q 523 705 469 743 q 606 600 577 667 l 461 639 l 685 639 l 571 553 l 606 732 l 830 732 l 734 258 q 736 210 728 227 q 770 184 744 192 l 689 -11 q 591 22 635 -1 q 520 77 547 45 q 495 145 494 109 l 616 84 l 393 84 l 553 145 q 445 31 508 72 q 300 -11 381 -11 m 380 190 q 445 207 415 190 q 496 253 475 224 q 530 320 518 282 q 543 401 543 358 q 512 507 543 470 q 431 544 481 544 q 366 527 396 544 q 314 481 336 510 q 279 414 292 452 q 267 334 267 376 q 299 228 267 266 q 380 190 330 190 m 508 786 l 313 1006 l 460 1128 l 621 864 l 508 786 z "},"ả":{"ha":846,"x_min":36,"x_max":830,"o":"m 300 -11 q 164 26 224 -11 q 70 134 104 64 q 36 304 36 205 q 61 466 36 387 q 133 607 87 545 q 245 707 180 670 q 389 743 310 743 q 523 705 469 743 q 606 600 577 667 l 461 639 l 685 639 l 571 553 l 606 732 l 830 732 l 734 258 q 736 210 728 227 q 770 184 744 192 l 689 -11 q 591 22 635 -1 q 520 77 547 45 q 495 145 494 109 l 616 84 l 393 84 l 553 145 q 445 31 508 72 q 300 -11 381 -11 m 380 190 q 445 207 415 190 q 496 253 475 224 q 530 320 518 282 q 543 401 543 358 q 512 507 543 470 q 431 544 481 544 q 366 527 396 544 q 314 481 336 510 q 279 414 292 452 q 267 334 267 376 q 299 228 267 266 q 380 190 330 190 m 534 772 l 463 863 q 505 892 489 876 q 526 926 522 907 q 519 950 530 941 q 476 958 509 958 q 429 955 454 958 q 383 945 403 951 l 402 1089 q 442 1097 421 1095 q 491 1100 463 1100 q 639 1058 595 1100 q 669 946 683 1017 q 621 845 658 888 q 534 772 583 802 z "},"ȃ":{"ha":846,"x_min":36,"x_max":830,"o":"m 300 -11 q 164 26 224 -11 q 70 134 104 64 q 36 304 36 205 q 61 466 36 387 q 133 607 87 545 q 245 707 180 670 q 389 743 310 743 q 523 705 469 743 q 606 600 577 667 l 461 639 l 685 639 l 571 553 l 606 732 l 830 732 l 734 258 q 736 210 728 227 q 770 184 744 192 l 689 -11 q 591 22 635 -1 q 520 77 547 45 q 495 145 494 109 l 616 84 l 393 84 l 553 145 q 445 31 508 72 q 300 -11 381 -11 m 380 190 q 445 207 415 190 q 496 253 475 224 q 530 320 518 282 q 543 401 543 358 q 512 507 543 470 q 431 544 481 544 q 366 527 396 544 q 314 481 336 510 q 279 414 292 452 q 267 334 267 376 q 299 228 267 266 q 380 190 330 190 m 789 794 l 651 817 q 630 891 659 854 q 537 928 601 928 q 442 890 481 928 q 393 800 403 852 l 254 822 q 311 946 267 894 q 417 1027 354 998 q 551 1055 480 1055 q 688 1021 629 1055 q 777 927 748 986 q 789 794 806 868 z "},"ā":{"ha":846,"x_min":36,"x_max":841,"o":"m 300 -11 q 164 26 224 -11 q 70 134 104 64 q 36 304 36 205 q 61 466 36 387 q 133 607 87 545 q 245 707 180 670 q 389 743 310 743 q 523 705 469 743 q 606 600 577 667 l 461 639 l 685 639 l 571 553 l 606 732 l 830 732 l 734 258 q 736 210 728 227 q 770 184 744 192 l 689 -11 q 591 22 635 -1 q 520 77 547 45 q 495 145 494 109 l 616 84 l 393 84 l 553 145 q 445 31 508 72 q 300 -11 381 -11 m 380 190 q 445 207 415 190 q 496 253 475 224 q 530 320 518 282 q 543 401 543 358 q 512 507 543 470 q 431 544 481 544 q 366 527 396 544 q 314 481 336 510 q 279 414 292 452 q 267 334 267 376 q 299 228 267 266 q 380 190 330 190 m 214 842 l 243 986 l 841 986 l 812 842 l 214 842 z "},"ą":{"ha":846,"x_min":36,"x_max":830,"o":"m 300 -11 q 164 26 224 -11 q 70 134 104 64 q 36 304 36 205 q 61 466 36 387 q 133 607 87 545 q 245 707 180 670 q 389 743 310 743 q 523 705 469 743 q 606 600 577 667 l 461 639 l 685 639 l 571 553 l 606 732 l 830 732 l 734 258 q 736 210 728 227 q 770 184 744 192 l 689 -11 q 591 22 635 -1 q 520 77 547 45 q 495 145 494 109 l 616 84 l 393 84 l 553 145 q 445 31 508 72 q 300 -11 381 -11 m 380 190 q 445 207 415 190 q 496 253 475 224 q 530 320 518 282 q 543 401 543 358 q 512 507 543 470 q 431 544 481 544 q 366 527 396 544 q 314 481 336 510 q 279 414 292 452 q 267 334 267 376 q 299 228 267 266 q 380 190 330 190 m 619 -297 q 493 -250 537 -297 q 463 -134 449 -203 q 501 -47 473 -88 q 561 25 529 -6 q 610 69 592 56 l 688 -11 q 655 -45 671 -26 q 628 -83 639 -64 q 614 -117 617 -102 q 618 -144 610 -134 q 651 -154 626 -154 q 690 -149 669 -154 q 739 -135 711 -144 l 718 -283 q 671 -293 701 -290 q 619 -297 642 -297 z "},"å":{"ha":846,"x_min":36,"x_max":830,"o":"m 300 -11 q 164 26 224 -11 q 70 134 104 64 q 36 304 36 205 q 61 466 36 387 q 133 607 87 545 q 245 707 180 670 q 389 743 310 743 q 523 705 469 743 q 606 600 577 667 l 461 639 l 685 639 l 571 553 l 606 732 l 830 732 l 734 258 q 736 210 728 227 q 770 184 744 192 l 689 -11 q 591 22 635 -1 q 520 77 547 45 q 495 145 494 109 l 616 84 l 393 84 l 553 145 q 445 31 508 72 q 300 -11 381 -11 m 380 190 q 445 207 415 190 q 496 253 475 224 q 530 320 518 282 q 543 401 543 358 q 512 507 543 470 q 431 544 481 544 q 366 527 396 544 q 314 481 336 510 q 279 414 292 452 q 267 334 267 376 q 299 228 267 266 q 380 190 330 190 m 526 819 q 433 843 473 819 q 375 908 393 867 q 366 1000 356 949 q 434 1109 380 1069 q 557 1150 488 1150 q 651 1125 612 1150 q 709 1060 691 1101 q 717 969 727 1019 q 652 864 705 909 q 526 819 600 819 m 534 922 q 578 939 559 922 q 602 982 597 956 q 593 1027 606 1007 q 550 1047 580 1047 q 507 1033 526 1047 q 481 992 487 1018 q 491 944 475 965 q 534 922 506 922 z "},"ǻ":{"ha":846,"x_min":36,"x_max":850,"o":"m 526 819 q 433 843 473 819 q 375 908 393 867 q 366 1000 356 949 q 434 1109 380 1069 q 557 1150 488 1150 q 651 1125 612 1150 q 709 1060 691 1101 q 717 969 727 1019 q 652 864 705 909 q 526 819 600 819 m 534 922 q 578 939 559 922 q 602 982 597 956 q 593 1027 606 1007 q 550 1047 580 1047 q 507 1033 526 1047 q 481 992 487 1018 q 491 944 475 965 q 534 922 506 922 m 626 1186 l 507 1284 l 707 1495 l 850 1348 l 626 1186 m 300 -11 q 164 26 224 -11 q 70 134 104 64 q 36 304 36 205 q 61 466 36 387 q 133 607 87 545 q 245 707 180 670 q 389 743 310 743 q 523 705 469 743 q 606 600 577 667 l 461 639 l 685 639 l 571 553 l 606 732 l 830 732 l 734 258 q 736 210 728 227 q 770 184 744 192 l 689 -11 q 591 22 635 -1 q 520 77 547 45 q 495 145 494 109 l 616 84 l 393 84 l 553 145 q 445 31 508 72 q 300 -11 381 -11 m 380 190 q 445 207 415 190 q 496 253 475 224 q 530 320 518 282 q 543 401 543 358 q 512 507 543 470 q 431 544 481 544 q 366 527 396 544 q 314 481 336 510 q 279 414 292 452 q 267 334 267 376 q 299 228 267 266 q 380 190 330 190 z "},"ã":{"ha":846,"x_min":36,"x_max":838,"o":"m 300 -11 q 164 26 224 -11 q 70 134 104 64 q 36 304 36 205 q 61 466 36 387 q 133 607 87 545 q 245 707 180 670 q 389 743 310 743 q 523 705 469 743 q 606 600 577 667 l 461 639 l 685 639 l 571 553 l 606 732 l 830 732 l 734 258 q 736 210 728 227 q 770 184 744 192 l 689 -11 q 591 22 635 -1 q 520 77 547 45 q 495 145 494 109 l 616 84 l 393 84 l 553 145 q 445 31 508 72 q 300 -11 381 -11 m 380 190 q 445 207 415 190 q 496 253 475 224 q 530 320 518 282 q 543 401 543 358 q 512 507 543 470 q 431 544 481 544 q 366 527 396 544 q 314 481 336 510 q 279 414 292 452 q 267 334 267 376 q 299 228 267 266 q 380 190 330 190 m 388 811 l 238 825 q 281 936 252 886 q 353 1015 311 986 q 445 1044 395 1044 q 507 1031 481 1044 q 552 1000 532 1017 q 588 969 571 983 q 623 956 604 956 q 664 981 648 956 q 688 1044 681 1007 l 838 1031 q 796 921 826 971 q 723 841 766 871 q 629 811 680 811 q 569 825 593 811 q 525 856 544 838 q 490 886 507 873 q 453 900 473 900 q 412 876 428 900 q 388 811 395 851 z "},"æ":{"ha":1301,"x_min":35,"x_max":1273,"o":"m 267 -11 q 99 71 163 -11 q 35 294 35 152 q 58 456 35 376 q 124 601 81 536 q 231 705 168 666 q 372 743 293 743 q 499 706 447 743 q 581 600 551 668 l 439 639 l 655 639 l 530 555 l 567 732 l 784 732 l 685 198 q 673 98 674 145 q 685 0 673 50 l 471 0 q 465 72 465 32 q 469 144 465 113 l 475 95 l 444 95 l 486 134 q 394 28 448 66 q 267 -11 339 -11 m 366 190 q 439 209 406 190 q 494 261 471 229 q 530 333 517 293 q 542 413 542 372 q 529 484 542 454 q 493 528 517 513 q 435 544 469 544 q 363 524 395 544 q 311 471 332 504 q 278 397 289 437 q 267 315 267 356 q 291 223 267 256 q 366 190 315 190 m 938 -11 q 756 29 830 -11 q 644 140 682 68 q 606 304 606 211 q 636 469 606 390 q 721 609 667 547 q 845 707 774 671 q 996 743 916 743 q 1139 706 1077 743 q 1237 603 1202 669 q 1273 447 1273 536 q 1264 366 1273 406 q 1241 289 1256 326 l 738 289 l 761 433 l 1072 433 q 1074 449 1073 440 q 1076 467 1076 458 q 1046 535 1076 511 q 962 559 1016 559 q 876 540 911 559 q 817 489 840 521 q 784 420 794 458 q 773 345 773 382 q 798 246 773 283 q 862 192 823 208 q 947 175 902 175 q 1036 189 996 175 q 1090 214 1076 203 l 1160 37 q 1062 2 1122 16 q 938 -11 1001 -11 z "},"ǽ":{"ha":1301,"x_min":35,"x_max":1273,"o":"m 267 -11 q 99 71 163 -11 q 35 294 35 152 q 58 456 35 376 q 124 601 81 536 q 231 705 168 666 q 372 743 293 743 q 499 706 447 743 q 581 600 551 668 l 439 639 l 655 639 l 530 555 l 567 732 l 784 732 l 685 198 q 673 98 674 145 q 685 0 673 50 l 471 0 q 465 72 465 32 q 469 144 465 113 l 475 95 l 444 95 l 486 134 q 394 28 448 66 q 267 -11 339 -11 m 366 190 q 439 209 406 190 q 494 261 471 229 q 530 333 517 293 q 542 413 542 372 q 529 484 542 454 q 493 528 517 513 q 435 544 469 544 q 363 524 395 544 q 311 471 332 504 q 278 397 289 437 q 267 315 267 356 q 291 223 267 256 q 366 190 315 190 m 938 -11 q 756 29 830 -11 q 644 140 682 68 q 606 304 606 211 q 636 469 606 390 q 721 609 667 547 q 845 707 774 671 q 996 743 916 743 q 1139 706 1077 743 q 1237 603 1202 669 q 1273 447 1273 536 q 1264 366 1273 406 q 1241 289 1256 326 l 738 289 l 761 433 l 1072 433 q 1074 449 1073 440 q 1076 467 1076 458 q 1046 535 1076 511 q 962 559 1016 559 q 876 540 911 559 q 817 489 840 521 q 784 420 794 458 q 773 345 773 382 q 798 246 773 283 q 862 192 823 208 q 947 175 902 175 q 1036 189 996 175 q 1090 214 1076 203 l 1160 37 q 1062 2 1122 16 q 938 -11 1001 -11 m 678 781 l 572 864 l 778 1128 l 911 1000 l 678 781 z "},"b":{"ha":844,"x_min":3,"x_max":808,"o":"m 3 0 l 212 1044 l 452 1044 l 382 689 l 402 689 l 349 612 l 258 183 l 275 92 l 248 92 l 230 0 l 3 0 m 453 -11 q 317 26 375 -11 q 226 129 258 62 q 194 287 194 196 q 220 450 194 370 q 295 597 247 531 q 408 704 343 664 q 549 743 473 743 q 675 709 616 743 q 771 606 734 675 q 808 431 808 536 q 783 270 808 349 q 711 128 758 191 q 599 27 665 64 q 453 -11 534 -11 m 404 189 q 476 208 444 189 q 531 257 508 226 q 565 327 553 288 q 577 407 577 366 q 549 506 577 469 q 464 543 520 543 q 392 525 423 543 q 338 474 360 506 q 304 404 316 443 q 293 323 293 364 q 320 225 293 262 q 404 189 348 189 z "},"c":{"ha":663,"x_min":38,"x_max":677,"o":"m 372 -8 q 205 30 281 -8 q 83 142 129 68 q 38 323 38 216 q 68 485 38 409 q 153 618 98 560 q 282 710 208 677 q 446 743 357 743 q 589 719 530 743 q 677 670 648 694 l 557 492 q 501 526 536 513 q 434 538 465 538 q 367 520 397 538 q 315 473 337 503 q 282 406 294 443 q 270 332 270 370 q 284 263 270 292 q 325 219 298 234 q 390 203 351 203 q 460 216 426 203 q 522 248 494 228 l 574 42 q 483 5 538 19 q 372 -8 428 -8 z "},"ć":{"ha":663,"x_min":38,"x_max":739,"o":"m 372 -8 q 205 30 281 -8 q 83 142 129 68 q 38 323 38 216 q 68 485 38 409 q 153 618 98 560 q 282 710 208 677 q 446 743 357 743 q 589 719 530 743 q 677 670 648 694 l 557 492 q 501 526 536 513 q 434 538 465 538 q 367 520 397 538 q 315 473 337 503 q 282 406 294 443 q 270 332 270 370 q 284 263 270 292 q 325 219 298 234 q 390 203 351 203 q 460 216 426 203 q 522 248 494 228 l 574 42 q 483 5 538 19 q 372 -8 428 -8 m 506 781 l 400 864 l 606 1128 l 739 1000 l 506 781 z "},"č":{"ha":663,"x_min":38,"x_max":807,"o":"m 372 -8 q 205 30 281 -8 q 83 142 129 68 q 38 323 38 216 q 68 485 38 409 q 153 618 98 560 q 282 710 208 677 q 446 743 357 743 q 589 719 530 743 q 677 670 648 694 l 557 492 q 501 526 536 513 q 434 538 465 538 q 367 520 397 538 q 315 473 337 503 q 282 406 294 443 q 270 332 270 370 q 284 263 270 292 q 325 219 298 234 q 390 203 351 203 q 460 216 426 203 q 522 248 494 228 l 574 42 q 483 5 538 19 q 372 -8 428 -8 m 474 770 l 254 981 l 354 1092 l 515 936 l 521 936 l 726 1092 l 807 981 l 518 770 l 474 770 z "},"ç":{"ha":663,"x_min":38,"x_max":677,"o":"m 372 -8 q 205 30 281 -8 q 83 142 129 68 q 38 323 38 216 q 68 485 38 409 q 153 618 98 560 q 282 710 208 677 q 446 743 357 743 q 589 719 530 743 q 677 670 648 694 l 557 492 q 501 526 536 513 q 434 538 465 538 q 367 520 397 538 q 315 473 337 503 q 282 406 294 443 q 270 332 270 370 q 284 263 270 292 q 325 219 298 234 q 390 203 351 203 q 460 216 426 203 q 522 248 494 228 l 574 42 q 483 5 538 19 q 372 -8 428 -8 m 154 -355 l 165 -241 q 276 -224 236 -243 q 321 -185 317 -205 q 304 -153 326 -163 q 232 -139 283 -143 l 300 0 l 406 0 l 342 -111 l 334 -61 q 403 -79 372 -61 q 450 -130 434 -96 q 456 -212 466 -163 q 412 -293 446 -260 q 314 -340 377 -325 q 154 -355 251 -356 z "},"ḉ":{"ha":663,"x_min":38,"x_max":739,"o":"m 372 -8 q 205 30 281 -8 q 83 142 129 68 q 38 323 38 216 q 68 485 38 409 q 153 618 98 560 q 282 710 208 677 q 446 743 357 743 q 589 719 530 743 q 677 670 648 694 l 557 492 q 501 526 536 513 q 434 538 465 538 q 367 520 397 538 q 315 473 337 503 q 282 406 294 443 q 270 332 270 370 q 284 263 270 292 q 325 219 298 234 q 390 203 351 203 q 460 216 426 203 q 522 248 494 228 l 574 42 q 483 5 538 19 q 372 -8 428 -8 m 154 -355 l 165 -241 q 276 -224 236 -243 q 321 -185 317 -205 q 304 -153 326 -163 q 232 -139 283 -143 l 300 0 l 406 0 l 342 -111 l 334 -61 q 403 -79 372 -61 q 450 -130 434 -96 q 456 -212 466 -163 q 412 -293 446 -260 q 314 -340 377 -325 q 154 -355 251 -356 m 506 781 l 400 864 l 606 1128 l 739 1000 l 506 781 z "},"ĉ":{"ha":663,"x_min":38,"x_max":794,"o":"m 372 -8 q 205 30 281 -8 q 83 142 129 68 q 38 323 38 216 q 68 485 38 409 q 153 618 98 560 q 282 710 208 677 q 446 743 357 743 q 589 719 530 743 q 677 670 648 694 l 557 492 q 501 526 536 513 q 434 538 465 538 q 367 520 397 538 q 315 473 337 503 q 282 406 294 443 q 270 332 270 370 q 284 263 270 292 q 325 219 298 234 q 390 203 351 203 q 460 216 426 203 q 522 248 494 228 l 574 42 q 483 5 538 19 q 372 -8 428 -8 m 322 770 l 241 880 l 530 1092 l 575 1092 l 794 880 l 694 770 l 533 925 l 528 925 l 322 770 z "},"ċ":{"ha":663,"x_min":38,"x_max":677,"o":"m 372 -8 q 205 30 281 -8 q 83 142 129 68 q 38 323 38 216 q 68 485 38 409 q 153 618 98 560 q 282 710 208 677 q 446 743 357 743 q 589 719 530 743 q 677 670 648 694 l 557 492 q 501 526 536 513 q 434 538 465 538 q 367 520 397 538 q 315 473 337 503 q 282 406 294 443 q 270 332 270 370 q 284 263 270 292 q 325 219 298 234 q 390 203 351 203 q 460 216 426 203 q 522 248 494 228 l 574 42 q 483 5 538 19 q 372 -8 428 -8 m 531 808 q 430 850 471 808 q 389 951 389 891 q 430 1052 389 1011 q 531 1093 471 1093 q 632 1052 591 1093 q 673 951 673 1011 q 632 850 673 891 q 531 808 591 808 z "},"d":{"ha":878,"x_min":35,"x_max":911,"o":"m 678 -8 q 606 24 637 6 q 553 65 574 42 q 528 119 533 89 l 564 90 l 481 90 l 524 172 l 612 589 l 556 661 l 595 661 l 671 1044 l 911 1044 l 754 256 q 756 211 747 224 q 793 186 765 197 l 678 -8 m 304 -11 q 167 26 228 -11 q 71 133 106 63 q 35 302 35 203 q 62 466 35 387 q 136 607 88 545 q 250 707 184 670 q 395 743 316 743 q 541 701 479 743 q 635 587 602 659 q 668 422 668 515 q 641 261 668 339 q 565 122 614 184 q 449 25 515 61 q 304 -11 383 -11 m 384 189 q 453 208 422 189 q 506 259 484 227 q 539 329 528 290 q 551 408 551 368 q 524 506 551 468 q 441 543 497 543 q 370 524 402 543 q 316 474 338 505 q 281 404 294 443 q 269 326 269 366 q 301 224 269 259 q 384 189 334 189 z "},"ď":{"ha":878,"x_min":35,"x_max":1195,"o":"m 678 -8 q 606 24 637 6 q 553 65 574 42 q 528 119 533 89 l 564 90 l 481 90 l 524 172 l 612 589 l 556 661 l 595 661 l 671 1044 l 911 1044 l 754 256 q 756 211 747 224 q 793 186 765 197 l 678 -8 m 304 -11 q 167 26 228 -11 q 71 133 106 63 q 35 302 35 203 q 62 466 35 387 q 136 607 88 545 q 250 707 184 670 q 395 743 316 743 q 541 701 479 743 q 635 587 602 659 q 668 422 668 515 q 641 261 668 339 q 565 122 614 184 q 449 25 515 61 q 304 -11 383 -11 m 384 189 q 453 208 422 189 q 506 259 484 227 q 539 329 528 290 q 551 408 551 368 q 524 506 551 468 q 441 543 497 543 q 370 524 402 543 q 316 474 338 505 q 281 404 294 443 q 269 326 269 366 q 301 224 269 259 q 384 189 334 189 m 930 686 l 1003 1044 l 1195 1044 l 1097 686 l 930 686 z "},"đ":{"ha":878,"x_min":35,"x_max":990,"o":"m 678 -8 q 606 24 637 6 q 553 65 574 42 q 528 119 533 89 l 564 90 l 481 90 l 524 172 l 612 589 l 556 661 l 595 661 l 671 1044 l 911 1044 l 754 256 q 756 211 747 224 q 793 186 765 197 l 678 -8 m 304 -11 q 167 26 228 -11 q 71 133 106 63 q 35 302 35 203 q 62 466 35 387 q 136 607 88 545 q 250 707 184 670 q 395 743 316 743 q 541 701 479 743 q 635 587 602 659 q 668 422 668 515 q 641 261 668 339 q 565 122 614 184 q 449 25 515 61 q 304 -11 383 -11 m 384 189 q 453 208 422 189 q 506 259 484 227 q 539 329 528 290 q 551 408 551 368 q 524 506 551 468 q 441 543 497 543 q 370 524 402 543 q 316 474 338 505 q 281 404 294 443 q 269 326 269 366 q 301 224 269 259 q 384 189 334 189 m 512 822 l 534 936 l 990 936 l 968 822 l 512 822 z "},"ḍ":{"ha":878,"x_min":35,"x_max":911,"o":"m 678 -8 q 606 24 637 6 q 553 65 574 42 q 528 119 533 89 l 564 90 l 481 90 l 524 172 l 612 589 l 556 661 l 595 661 l 671 1044 l 911 1044 l 754 256 q 756 211 747 224 q 793 186 765 197 l 678 -8 m 304 -11 q 167 26 228 -11 q 71 133 106 63 q 35 302 35 203 q 62 466 35 387 q 136 607 88 545 q 250 707 184 670 q 395 743 316 743 q 541 701 479 743 q 635 587 602 659 q 668 422 668 515 q 641 261 668 339 q 565 122 614 184 q 449 25 515 61 q 304 -11 383 -11 m 384 189 q 453 208 422 189 q 506 259 484 227 q 539 329 528 290 q 551 408 551 368 q 524 506 551 468 q 441 543 497 543 q 370 524 402 543 q 316 474 338 505 q 281 404 294 443 q 269 326 269 366 q 301 224 269 259 q 384 189 334 189 m 315 -355 q 214 -314 255 -355 q 173 -212 173 -273 q 214 -112 173 -153 q 315 -71 255 -71 q 416 -112 375 -71 q 458 -212 458 -153 q 416 -314 458 -273 q 315 -355 375 -355 z "},"ḏ":{"ha":878,"x_min":2,"x_max":911,"o":"m 678 -8 q 606 24 637 6 q 553 65 574 42 q 528 119 533 89 l 564 90 l 481 90 l 524 172 l 612 589 l 556 661 l 595 661 l 671 1044 l 911 1044 l 754 256 q 756 211 747 224 q 793 186 765 197 l 678 -8 m 304 -11 q 167 26 228 -11 q 71 133 106 63 q 35 302 35 203 q 62 466 35 387 q 136 607 88 545 q 250 707 184 670 q 395 743 316 743 q 541 701 479 743 q 635 587 602 659 q 668 422 668 515 q 641 261 668 339 q 565 122 614 184 q 449 25 515 61 q 304 -11 383 -11 m 384 189 q 453 208 422 189 q 506 259 484 227 q 539 329 528 290 q 551 408 551 368 q 524 506 551 468 q 441 543 497 543 q 370 524 402 543 q 316 474 338 505 q 281 404 294 443 q 269 326 269 366 q 301 224 269 259 q 384 189 334 189 m 2 -286 l 31 -142 l 629 -142 l 600 -286 l 2 -286 z "},"ǆ":{"ha":1574,"x_min":35,"x_max":1621,"o":"m 678 -8 q 606 24 637 6 q 553 65 574 42 q 528 119 533 89 l 564 90 l 481 90 l 524 172 l 612 589 l 556 661 l 595 661 l 671 1044 l 911 1044 l 754 256 q 756 211 747 224 q 793 186 765 197 l 678 -8 m 304 -11 q 167 26 228 -11 q 71 133 106 63 q 35 302 35 203 q 62 466 35 387 q 136 607 88 545 q 250 707 184 670 q 395 743 316 743 q 541 701 479 743 q 635 587 602 659 q 668 422 668 515 q 641 261 668 339 q 565 122 614 184 q 449 25 515 61 q 304 -11 383 -11 m 384 189 q 453 208 422 189 q 506 259 484 227 q 539 329 528 290 q 551 408 551 368 q 524 506 551 468 q 441 543 497 543 q 370 524 402 543 q 316 474 338 505 q 281 404 294 443 q 269 326 269 366 q 301 224 269 259 q 384 189 334 189 m 841 0 l 848 47 l 1212 519 l 1212 528 l 974 528 l 1015 732 l 1609 732 l 1599 684 l 1236 212 l 1236 206 l 1499 206 l 1458 0 l 841 0 m 1288 770 l 1068 981 l 1168 1092 l 1329 936 l 1335 936 l 1540 1092 l 1621 981 l 1332 770 l 1288 770 z "},"ð":{"ha":811,"x_min":33,"x_max":811,"o":"m 345 -11 q 177 32 246 -11 q 70 146 107 75 q 33 302 33 218 q 63 450 33 379 q 143 576 92 521 q 260 665 194 632 q 399 697 326 697 q 479 685 440 697 q 551 648 519 673 q 601 583 583 623 l 568 612 l 629 612 l 593 587 q 556 703 582 646 q 490 809 530 759 q 394 900 449 859 q 271 970 340 941 l 391 1147 q 612 983 524 1076 q 742 782 699 891 q 785 549 785 673 q 754 341 785 441 q 666 161 724 241 q 528 36 609 82 q 345 -11 446 -11 m 368 199 q 433 216 404 199 q 483 262 463 233 q 515 327 504 291 q 526 399 526 362 q 504 482 526 449 q 431 515 481 515 q 345 486 382 515 q 289 410 309 456 q 269 315 269 364 q 280 253 269 279 q 314 213 292 227 q 368 199 336 199 m 286 732 l 241 822 l 753 1147 l 811 1025 l 286 732 z "},"e":{"ha":761,"x_min":38,"x_max":736,"o":"m 389 -11 q 196 35 275 -11 q 78 156 118 80 q 38 322 38 232 q 68 483 38 407 q 151 617 98 559 q 277 710 205 676 q 433 743 349 743 q 586 708 517 743 q 695 609 654 673 q 736 458 736 545 q 731 400 736 433 q 718 337 726 368 q 700 289 709 307 l 208 289 l 236 433 l 522 433 q 525 449 524 441 q 526 465 526 458 q 502 532 526 505 q 427 560 478 560 q 347 540 382 560 q 288 488 312 520 q 251 416 264 455 q 239 340 239 378 q 283 223 239 267 q 397 180 328 180 q 481 193 437 180 q 545 220 525 205 l 621 39 q 507 1 570 13 q 389 -11 444 -11 z "},"é":{"ha":761,"x_min":38,"x_max":736,"o":"m 389 -11 q 196 35 275 -11 q 78 156 118 80 q 38 322 38 232 q 68 483 38 407 q 151 617 98 559 q 277 710 205 676 q 433 743 349 743 q 586 708 517 743 q 695 609 654 673 q 736 458 736 545 q 731 400 736 433 q 718 337 726 368 q 700 289 709 307 l 208 289 l 236 433 l 522 433 q 525 449 524 441 q 526 465 526 458 q 502 532 526 505 q 427 560 478 560 q 347 540 382 560 q 288 488 312 520 q 251 416 264 455 q 239 340 239 378 q 283 223 239 267 q 397 180 328 180 q 481 193 437 180 q 545 220 525 205 l 621 39 q 507 1 570 13 q 389 -11 444 -11 m 474 781 l 368 864 l 574 1128 l 707 1000 l 474 781 z "},"ĕ":{"ha":761,"x_min":38,"x_max":789,"o":"m 389 -11 q 196 35 275 -11 q 78 156 118 80 q 38 322 38 232 q 68 483 38 407 q 151 617 98 559 q 277 710 205 676 q 433 743 349 743 q 586 708 517 743 q 695 609 654 673 q 736 458 736 545 q 731 400 736 433 q 718 337 726 368 q 700 289 709 307 l 208 289 l 236 433 l 522 433 q 525 449 524 441 q 526 465 526 458 q 502 532 526 505 q 427 560 478 560 q 347 540 382 560 q 288 488 312 520 q 251 416 264 455 q 239 340 239 378 q 283 223 239 267 q 397 180 328 180 q 481 193 437 180 q 545 220 525 205 l 621 39 q 507 1 570 13 q 389 -11 444 -11 m 482 806 q 347 840 404 806 q 261 932 289 875 q 247 1055 234 989 l 389 1034 q 408 961 380 988 q 484 933 435 933 q 557 951 522 933 q 617 997 593 968 q 647 1055 641 1025 l 789 1034 q 730 916 776 967 q 620 835 685 864 q 482 806 555 806 z "},"ě":{"ha":761,"x_min":38,"x_max":775,"o":"m 389 -11 q 196 35 275 -11 q 78 156 118 80 q 38 322 38 232 q 68 483 38 407 q 151 617 98 559 q 277 710 205 676 q 433 743 349 743 q 586 708 517 743 q 695 609 654 673 q 736 458 736 545 q 731 400 736 433 q 718 337 726 368 q 700 289 709 307 l 208 289 l 236 433 l 522 433 q 525 449 524 441 q 526 465 526 458 q 502 532 526 505 q 427 560 478 560 q 347 540 382 560 q 288 488 312 520 q 251 416 264 455 q 239 340 239 378 q 283 223 239 267 q 397 180 328 180 q 481 193 437 180 q 545 220 525 205 l 621 39 q 507 1 570 13 q 389 -11 444 -11 m 442 770 l 222 981 l 322 1092 l 484 936 l 489 936 l 694 1092 l 775 981 l 486 770 l 442 770 z "},"ḝ":{"ha":761,"x_min":38,"x_max":789,"o":"m 389 -11 q 196 35 275 -11 q 78 156 118 80 q 38 322 38 232 q 68 483 38 407 q 151 617 98 559 q 277 710 205 676 q 433 743 349 743 q 586 708 517 743 q 695 609 654 673 q 736 458 736 545 q 731 400 736 433 q 718 337 726 368 q 700 289 709 307 l 208 289 l 236 433 l 522 433 q 525 449 524 441 q 526 465 526 458 q 502 532 526 505 q 427 560 478 560 q 347 540 382 560 q 288 488 312 520 q 251 416 264 455 q 239 340 239 378 q 283 223 239 267 q 397 180 328 180 q 481 193 437 180 q 545 220 525 205 l 621 39 q 507 1 570 13 q 389 -11 444 -11 m 155 -355 l 167 -241 q 278 -224 237 -243 q 322 -185 318 -205 q 306 -153 327 -163 q 233 -139 284 -143 l 301 0 l 407 0 l 343 -111 l 336 -61 q 404 -79 373 -61 q 451 -130 435 -96 q 457 -212 467 -163 q 413 -293 448 -260 q 315 -340 378 -325 q 155 -355 252 -356 m 482 806 q 347 840 404 806 q 261 932 289 875 q 247 1055 234 989 l 389 1034 q 408 961 380 988 q 484 933 435 933 q 557 951 522 933 q 617 997 593 968 q 647 1055 641 1025 l 789 1034 q 730 916 776 967 q 620 835 685 864 q 482 806 555 806 z "},"ê":{"ha":761,"x_min":38,"x_max":762,"o":"m 389 -11 q 196 35 275 -11 q 78 156 118 80 q 38 322 38 232 q 68 483 38 407 q 151 617 98 559 q 277 710 205 676 q 433 743 349 743 q 586 708 517 743 q 695 609 654 673 q 736 458 736 545 q 731 400 736 433 q 718 337 726 368 q 700 289 709 307 l 208 289 l 236 433 l 522 433 q 525 449 524 441 q 526 465 526 458 q 502 532 526 505 q 427 560 478 560 q 347 540 382 560 q 288 488 312 520 q 251 416 264 455 q 239 340 239 378 q 283 223 239 267 q 397 180 328 180 q 481 193 437 180 q 545 220 525 205 l 621 39 q 507 1 570 13 q 389 -11 444 -11 m 290 770 l 210 880 l 498 1092 l 543 1092 l 762 880 l 663 770 l 501 925 l 496 925 l 290 770 z "},"ế":{"ha":761,"x_min":38,"x_max":978,"o":"m 389 -11 q 196 35 275 -11 q 78 156 118 80 q 38 322 38 232 q 68 483 38 407 q 151 617 98 559 q 277 710 205 676 q 433 743 349 743 q 586 708 517 743 q 695 609 654 673 q 736 458 736 545 q 731 400 736 433 q 718 337 726 368 q 700 289 709 307 l 208 289 l 236 433 l 522 433 q 525 449 524 441 q 526 465 526 458 q 502 532 526 505 q 427 560 478 560 q 347 540 382 560 q 288 488 312 520 q 251 416 264 455 q 239 340 239 378 q 283 223 239 267 q 397 180 328 180 q 481 193 437 180 q 545 220 525 205 l 621 39 q 507 1 570 13 q 389 -11 444 -11 m 713 989 l 623 1061 l 893 1295 l 978 1145 l 713 989 m 301 783 l 210 892 l 492 1061 l 536 1061 l 760 892 l 643 783 l 490 908 l 493 908 l 301 783 z "},"ệ":{"ha":761,"x_min":38,"x_max":762,"o":"m 389 -11 q 196 35 275 -11 q 78 156 118 80 q 38 322 38 232 q 68 483 38 407 q 151 617 98 559 q 277 710 205 676 q 433 743 349 743 q 586 708 517 743 q 695 609 654 673 q 736 458 736 545 q 731 400 736 433 q 718 337 726 368 q 700 289 709 307 l 208 289 l 236 433 l 522 433 q 525 449 524 441 q 526 465 526 458 q 502 532 526 505 q 427 560 478 560 q 347 540 382 560 q 288 488 312 520 q 251 416 264 455 q 239 340 239 378 q 283 223 239 267 q 397 180 328 180 q 481 193 437 180 q 545 220 525 205 l 621 39 q 507 1 570 13 q 389 -11 444 -11 m 306 -355 q 204 -314 245 -355 q 163 -212 163 -273 q 204 -112 163 -153 q 306 -71 245 -71 q 407 -112 366 -71 q 448 -212 448 -153 q 407 -314 448 -273 q 306 -355 366 -355 m 290 770 l 210 880 l 498 1092 l 543 1092 l 762 880 l 663 770 l 501 925 l 496 925 l 290 770 z "},"ề":{"ha":761,"x_min":38,"x_max":762,"o":"m 389 -11 q 196 35 275 -11 q 78 156 118 80 q 38 322 38 232 q 68 483 38 407 q 151 617 98 559 q 277 710 205 676 q 433 743 349 743 q 586 708 517 743 q 695 609 654 673 q 736 458 736 545 q 731 400 736 433 q 718 337 726 368 q 700 289 709 307 l 208 289 l 236 433 l 522 433 q 525 449 524 441 q 526 465 526 458 q 502 532 526 505 q 427 560 478 560 q 347 540 382 560 q 288 488 312 520 q 251 416 264 455 q 239 340 239 378 q 283 223 239 267 q 397 180 328 180 q 481 193 437 180 q 545 220 525 205 l 621 39 q 507 1 570 13 q 389 -11 444 -11 m 266 986 l 71 1192 l 217 1308 l 381 1059 l 266 986 m 303 783 l 212 892 l 494 1061 l 538 1061 l 762 892 l 645 783 l 492 908 l 495 908 l 303 783 z "},"ể":{"ha":761,"x_min":38,"x_max":850,"o":"m 389 -11 q 196 35 275 -11 q 78 156 118 80 q 38 322 38 232 q 68 483 38 407 q 151 617 98 559 q 277 710 205 676 q 433 743 349 743 q 586 708 517 743 q 695 609 654 673 q 736 458 736 545 q 731 400 736 433 q 718 337 726 368 q 700 289 709 307 l 208 289 l 236 433 l 522 433 q 525 449 524 441 q 526 465 526 458 q 502 532 526 505 q 427 560 478 560 q 347 540 382 560 q 288 488 312 520 q 251 416 264 455 q 239 340 239 378 q 283 223 239 267 q 397 180 328 180 q 481 193 437 180 q 545 220 525 205 l 621 39 q 507 1 570 13 q 389 -11 444 -11 m 728 978 l 627 1060 q 675 1095 658 1078 q 694 1126 692 1113 q 689 1147 698 1139 q 650 1154 680 1154 q 605 1151 629 1154 q 563 1140 581 1147 l 581 1284 q 617 1293 598 1290 q 664 1296 637 1296 q 809 1254 767 1296 q 838 1140 850 1213 q 797 1045 829 1086 q 728 978 766 1004 m 301 783 l 210 892 l 492 1061 l 536 1061 l 760 892 l 643 783 l 490 908 l 493 908 l 301 783 z "},"ễ":{"ha":761,"x_min":38,"x_max":831,"o":"m 389 -11 q 196 35 275 -11 q 78 156 118 80 q 38 322 38 232 q 68 483 38 407 q 151 617 98 559 q 277 710 205 676 q 433 743 349 743 q 586 708 517 743 q 695 609 654 673 q 736 458 736 545 q 731 400 736 433 q 718 337 726 368 q 700 289 709 307 l 208 289 l 236 433 l 522 433 q 525 449 524 441 q 526 465 526 458 q 502 532 526 505 q 427 560 478 560 q 347 540 382 560 q 288 488 312 520 q 251 416 264 455 q 239 340 239 378 q 283 223 239 267 q 397 180 328 180 q 481 193 437 180 q 545 220 525 205 l 621 39 q 507 1 570 13 q 389 -11 444 -11 m 381 1075 l 231 1089 q 307 1236 251 1181 q 438 1292 363 1292 q 500 1279 475 1292 q 545 1250 526 1267 q 581 1221 564 1234 q 616 1208 597 1208 q 657 1240 641 1208 q 681 1308 674 1271 l 831 1295 q 789 1184 819 1235 q 716 1102 759 1133 q 623 1071 673 1071 q 562 1083 587 1071 q 518 1112 537 1096 q 483 1140 500 1128 q 446 1153 466 1153 q 405 1134 421 1153 q 381 1075 389 1115 m 302 783 l 210 892 l 492 1061 l 536 1061 l 760 892 l 644 783 l 491 908 l 494 908 l 302 783 z "},"ȅ":{"ha":761,"x_min":38,"x_max":736,"o":"m 389 -11 q 196 35 275 -11 q 78 156 118 80 q 38 322 38 232 q 68 483 38 407 q 151 617 98 559 q 277 710 205 676 q 433 743 349 743 q 586 708 517 743 q 695 609 654 673 q 736 458 736 545 q 731 400 736 433 q 718 337 726 368 q 700 289 709 307 l 208 289 l 236 433 l 522 433 q 525 449 524 441 q 526 465 526 458 q 502 532 526 505 q 427 560 478 560 q 347 540 382 560 q 288 488 312 520 q 251 416 264 455 q 239 340 239 378 q 283 223 239 267 q 397 180 328 180 q 481 193 437 180 q 545 220 525 205 l 621 39 q 507 1 570 13 q 389 -11 444 -11 m 313 791 l 200 1025 l 371 1100 l 436 819 l 313 791 m 576 791 l 464 1025 l 637 1100 l 701 819 l 576 791 z "},"ë":{"ha":761,"x_min":38,"x_max":798,"o":"m 389 -11 q 196 35 275 -11 q 78 156 118 80 q 38 322 38 232 q 68 483 38 407 q 151 617 98 559 q 277 710 205 676 q 433 743 349 743 q 586 708 517 743 q 695 609 654 673 q 736 458 736 545 q 731 400 736 433 q 718 337 726 368 q 700 289 709 307 l 208 289 l 236 433 l 522 433 q 525 449 524 441 q 526 465 526 458 q 502 532 526 505 q 427 560 478 560 q 347 540 382 560 q 288 488 312 520 q 251 416 264 455 q 239 340 239 378 q 283 223 239 267 q 397 180 328 180 q 481 193 437 180 q 545 220 525 205 l 621 39 q 507 1 570 13 q 389 -11 444 -11 m 671 819 q 580 856 617 819 q 543 947 543 893 q 580 1038 543 1001 q 671 1074 617 1074 q 762 1038 725 1074 q 798 947 798 1001 q 762 856 798 893 q 671 819 725 819 m 327 819 q 236 856 273 819 q 199 947 199 893 q 236 1038 199 1001 q 326 1074 273 1074 q 417 1038 380 1074 q 454 947 454 1001 q 417 856 454 893 q 327 819 380 819 z "},"ė":{"ha":761,"x_min":38,"x_max":736,"o":"m 389 -11 q 196 35 275 -11 q 78 156 118 80 q 38 322 38 232 q 68 483 38 407 q 151 617 98 559 q 277 710 205 676 q 433 743 349 743 q 586 708 517 743 q 695 609 654 673 q 736 458 736 545 q 731 400 736 433 q 718 337 726 368 q 700 289 709 307 l 208 289 l 236 433 l 522 433 q 525 449 524 441 q 526 465 526 458 q 502 532 526 505 q 427 560 478 560 q 347 540 382 560 q 288 488 312 520 q 251 416 264 455 q 239 340 239 378 q 283 223 239 267 q 397 180 328 180 q 481 193 437 180 q 545 220 525 205 l 621 39 q 507 1 570 13 q 389 -11 444 -11 m 499 808 q 398 850 439 808 q 357 951 357 891 q 398 1052 357 1011 q 499 1093 439 1093 q 600 1052 559 1093 q 642 951 642 1011 q 600 850 642 891 q 499 808 559 808 z "},"ẹ":{"ha":761,"x_min":38,"x_max":736,"o":"m 389 -11 q 196 35 275 -11 q 78 156 118 80 q 38 322 38 232 q 68 483 38 407 q 151 617 98 559 q 277 710 205 676 q 433 743 349 743 q 586 708 517 743 q 695 609 654 673 q 736 458 736 545 q 731 400 736 433 q 718 337 726 368 q 700 289 709 307 l 208 289 l 236 433 l 522 433 q 525 449 524 441 q 526 465 526 458 q 502 532 526 505 q 427 560 478 560 q 347 540 382 560 q 288 488 312 520 q 251 416 264 455 q 239 340 239 378 q 283 223 239 267 q 397 180 328 180 q 481 193 437 180 q 545 220 525 205 l 621 39 q 507 1 570 13 q 389 -11 444 -11 m 306 -355 q 204 -314 245 -355 q 163 -212 163 -273 q 204 -112 163 -153 q 306 -71 245 -71 q 407 -112 366 -71 q 448 -212 448 -153 q 407 -314 448 -273 q 306 -355 366 -355 z "},"è":{"ha":761,"x_min":38,"x_max":736,"o":"m 389 -11 q 196 35 275 -11 q 78 156 118 80 q 38 322 38 232 q 68 483 38 407 q 151 617 98 559 q 277 710 205 676 q 433 743 349 743 q 586 708 517 743 q 695 609 654 673 q 736 458 736 545 q 731 400 736 433 q 718 337 726 368 q 700 289 709 307 l 208 289 l 236 433 l 522 433 q 525 449 524 441 q 526 465 526 458 q 502 532 526 505 q 427 560 478 560 q 347 540 382 560 q 288 488 312 520 q 251 416 264 455 q 239 340 239 378 q 283 223 239 267 q 397 180 328 180 q 481 193 437 180 q 545 220 525 205 l 621 39 q 507 1 570 13 q 389 -11 444 -11 m 471 786 l 277 1006 l 424 1128 l 584 864 l 471 786 z "},"ẻ":{"ha":761,"x_min":38,"x_max":736,"o":"m 389 -11 q 196 35 275 -11 q 78 156 118 80 q 38 322 38 232 q 68 483 38 407 q 151 617 98 559 q 277 710 205 676 q 433 743 349 743 q 586 708 517 743 q 695 609 654 673 q 736 458 736 545 q 731 400 736 433 q 718 337 726 368 q 700 289 709 307 l 208 289 l 236 433 l 522 433 q 525 449 524 441 q 526 465 526 458 q 502 532 526 505 q 427 560 478 560 q 347 540 382 560 q 288 488 312 520 q 251 416 264 455 q 239 340 239 378 q 283 223 239 267 q 397 180 328 180 q 481 193 437 180 q 545 220 525 205 l 621 39 q 507 1 570 13 q 389 -11 444 -11 m 498 772 l 427 863 q 469 892 452 876 q 490 926 485 907 q 483 950 493 941 q 439 958 473 958 q 392 955 418 958 q 347 945 366 951 l 366 1089 q 406 1097 385 1095 q 454 1100 427 1100 q 603 1058 559 1100 q 633 946 646 1017 q 584 845 621 888 q 498 772 547 802 z "},"ȇ":{"ha":761,"x_min":38,"x_max":769,"o":"m 389 -11 q 196 35 275 -11 q 78 156 118 80 q 38 322 38 232 q 68 483 38 407 q 151 617 98 559 q 277 710 205 676 q 433 743 349 743 q 586 708 517 743 q 695 609 654 673 q 736 458 736 545 q 731 400 736 433 q 718 337 726 368 q 700 289 709 307 l 208 289 l 236 433 l 522 433 q 525 449 524 441 q 526 465 526 458 q 502 532 526 505 q 427 560 478 560 q 347 540 382 560 q 288 488 312 520 q 251 416 264 455 q 239 340 239 378 q 283 223 239 267 q 397 180 328 180 q 481 193 437 180 q 545 220 525 205 l 621 39 q 507 1 570 13 q 389 -11 444 -11 m 753 794 l 614 817 q 593 891 623 854 q 500 928 564 928 q 405 890 444 928 q 356 800 366 852 l 217 822 q 274 946 231 894 q 380 1027 317 998 q 514 1055 444 1055 q 652 1021 592 1055 q 740 927 711 986 q 753 794 769 868 z "},"ē":{"ha":761,"x_min":38,"x_max":804,"o":"m 389 -11 q 196 35 275 -11 q 78 156 118 80 q 38 322 38 232 q 68 483 38 407 q 151 617 98 559 q 277 710 205 676 q 433 743 349 743 q 586 708 517 743 q 695 609 654 673 q 736 458 736 545 q 731 400 736 433 q 718 337 726 368 q 700 289 709 307 l 208 289 l 236 433 l 522 433 q 525 449 524 441 q 526 465 526 458 q 502 532 526 505 q 427 560 478 560 q 347 540 382 560 q 288 488 312 520 q 251 416 264 455 q 239 340 239 378 q 283 223 239 267 q 397 180 328 180 q 481 193 437 180 q 545 220 525 205 l 621 39 q 507 1 570 13 q 389 -11 444 -11 m 178 842 l 207 986 l 804 986 l 775 842 l 178 842 z "},"ḗ":{"ha":761,"x_min":38,"x_max":804,"o":"m 389 -11 q 196 35 275 -11 q 78 156 118 80 q 38 322 38 232 q 68 483 38 407 q 151 617 98 559 q 277 710 205 676 q 433 743 349 743 q 586 708 517 743 q 695 609 654 673 q 736 458 736 545 q 731 400 736 433 q 718 337 726 368 q 700 289 709 307 l 208 289 l 236 433 l 522 433 q 525 449 524 441 q 526 465 526 458 q 502 532 526 505 q 427 560 478 560 q 347 540 382 560 q 288 488 312 520 q 251 416 264 455 q 239 340 239 378 q 283 223 239 267 q 397 180 328 180 q 481 193 437 180 q 545 220 525 205 l 621 39 q 507 1 570 13 q 389 -11 444 -11 m 178 842 l 207 986 l 804 986 l 775 842 l 178 842 m 528 1048 l 422 1132 l 627 1396 l 761 1267 l 528 1048 z "},"ḕ":{"ha":761,"x_min":38,"x_max":804,"o":"m 389 -11 q 196 35 275 -11 q 78 156 118 80 q 38 322 38 232 q 68 483 38 407 q 151 617 98 559 q 277 710 205 676 q 433 743 349 743 q 586 708 517 743 q 695 609 654 673 q 736 458 736 545 q 731 400 736 433 q 718 337 726 368 q 700 289 709 307 l 208 289 l 236 433 l 522 433 q 525 449 524 441 q 526 465 526 458 q 502 532 526 505 q 427 560 478 560 q 347 540 382 560 q 288 488 312 520 q 251 416 264 455 q 239 340 239 378 q 283 223 239 267 q 397 180 328 180 q 481 193 437 180 q 545 220 525 205 l 621 39 q 507 1 570 13 q 389 -11 444 -11 m 178 842 l 207 986 l 804 986 l 775 842 l 178 842 m 525 1054 l 330 1274 l 477 1396 l 637 1132 l 525 1054 z "},"ę":{"ha":761,"x_min":38,"x_max":736,"o":"m 389 -11 q 196 35 275 -11 q 78 156 118 80 q 38 322 38 232 q 68 483 38 407 q 151 617 98 559 q 277 710 205 676 q 433 743 349 743 q 586 708 517 743 q 695 609 654 673 q 736 458 736 545 q 731 400 736 433 q 718 337 726 368 q 700 289 709 307 l 208 289 l 236 433 l 522 433 q 525 449 524 441 q 526 465 526 458 q 502 532 526 505 q 427 560 478 560 q 347 540 382 560 q 288 488 312 520 q 251 416 264 455 q 239 340 239 378 q 283 223 239 267 q 397 180 328 180 q 481 193 437 180 q 545 220 525 205 l 621 39 q 507 1 570 13 q 389 -11 444 -11 m 459 -258 q 341 -211 380 -258 q 316 -93 302 -163 q 374 -1 327 -41 q 501 81 421 39 l 621 39 q 549 -2 584 20 q 490 -46 514 -24 q 462 -88 467 -68 q 468 -114 459 -103 q 504 -125 477 -125 q 551 -118 527 -125 q 586 -105 575 -111 l 570 -244 q 513 -255 547 -252 q 459 -258 478 -258 z "},"ẽ":{"ha":761,"x_min":38,"x_max":802,"o":"m 389 -11 q 196 35 275 -11 q 78 156 118 80 q 38 322 38 232 q 68 483 38 407 q 151 617 98 559 q 277 710 205 676 q 433 743 349 743 q 586 708 517 743 q 695 609 654 673 q 736 458 736 545 q 731 400 736 433 q 718 337 726 368 q 700 289 709 307 l 208 289 l 236 433 l 522 433 q 525 449 524 441 q 526 465 526 458 q 502 532 526 505 q 427 560 478 560 q 347 540 382 560 q 288 488 312 520 q 251 416 264 455 q 239 340 239 378 q 283 223 239 267 q 397 180 328 180 q 481 193 437 180 q 545 220 525 205 l 621 39 q 507 1 570 13 q 389 -11 444 -11 m 351 811 l 201 825 q 244 936 215 886 q 316 1015 274 986 q 408 1044 358 1044 q 470 1031 445 1044 q 515 1000 496 1017 q 551 969 534 983 q 586 956 568 956 q 628 981 611 956 q 651 1044 644 1007 l 802 1031 q 759 921 789 971 q 686 841 729 871 q 593 811 644 811 q 532 825 557 811 q 489 856 507 838 q 453 886 470 873 q 416 900 436 900 q 375 876 391 900 q 351 811 359 851 z "},"ə":{"ha":761,"x_min":24,"x_max":723,"o":"m 372 743 q 565 698 486 743 q 683 577 643 652 q 723 410 723 501 q 693 250 723 326 q 610 115 663 174 q 484 23 556 56 q 328 -11 412 -11 q 176 24 245 -11 q 65 123 106 59 q 24 275 24 188 q 30 332 24 300 q 43 395 35 365 q 61 444 52 426 l 553 444 l 525 300 l 239 300 q 236 283 237 292 q 235 267 235 275 q 259 200 235 228 q 334 172 283 172 q 414 192 379 172 q 473 245 449 212 q 510 316 497 277 q 522 392 522 355 q 477 509 522 467 q 363 552 433 552 q 280 539 324 552 q 216 513 236 527 l 140 693 q 254 731 192 720 q 372 743 317 743 z "},"f":{"ha":583,"x_min":-78,"x_max":708,"o":"m 8 -297 q -30 -295 -7 -297 q -78 -285 -53 -293 l -50 -82 q -32 -86 -39 -85 q -17 -87 -24 -87 q 49 -58 25 -87 q 82 20 73 -28 l 235 791 q 350 1004 262 928 q 566 1080 439 1080 q 636 1074 599 1080 q 708 1053 674 1067 l 623 850 q 604 860 615 857 q 579 863 593 863 q 511 837 542 863 q 471 764 480 812 l 317 -8 q 216 -221 290 -145 q 8 -297 142 -297 m 56 529 l 96 732 l 625 732 l 585 529 l 56 529 z "},"g":{"ha":861,"x_min":-23,"x_max":852,"o":"m 277 -297 q 149 -284 207 -297 q 48 -254 92 -272 q -23 -217 4 -235 l 58 -23 q 116 -60 81 -43 q 191 -87 150 -77 q 273 -98 231 -98 q 371 -81 324 -98 q 450 -32 418 -64 q 491 45 483 0 l 499 90 l 479 90 l 519 151 l 606 578 l 564 642 l 613 642 l 631 732 l 852 732 l 712 37 q 625 -156 688 -82 q 471 -263 562 -229 q 277 -297 381 -297 m 299 20 q 165 56 224 20 q 71 158 105 92 q 36 317 36 225 q 62 479 36 402 q 136 615 88 555 q 252 709 184 675 q 400 743 319 743 q 543 702 483 743 q 636 590 604 660 q 669 436 669 520 q 640 281 669 355 q 560 148 611 206 q 443 55 509 89 q 299 20 376 20 m 391 208 q 462 225 430 208 q 516 271 494 242 q 550 338 538 300 q 562 416 562 376 q 531 511 562 474 q 438 548 500 548 q 366 531 397 548 q 312 485 334 514 q 279 417 290 455 q 267 338 267 380 q 301 241 267 275 q 391 208 336 208 z "},"ǵ":{"ha":861,"x_min":-23,"x_max":852,"o":"m 277 -297 q 149 -284 207 -297 q 48 -254 92 -272 q -23 -217 4 -235 l 58 -23 q 116 -60 81 -43 q 191 -87 150 -77 q 273 -98 231 -98 q 371 -81 324 -98 q 450 -32 418 -64 q 491 45 483 0 l 499 90 l 479 90 l 519 151 l 606 578 l 564 642 l 613 642 l 631 732 l 852 732 l 712 37 q 625 -156 688 -82 q 471 -263 562 -229 q 277 -297 381 -297 m 299 20 q 165 56 224 20 q 71 158 105 92 q 36 317 36 225 q 62 479 36 402 q 136 615 88 555 q 252 709 184 675 q 400 743 319 743 q 543 702 483 743 q 636 590 604 660 q 669 436 669 520 q 640 281 669 355 q 560 148 611 206 q 443 55 509 89 q 299 20 376 20 m 391 208 q 462 225 430 208 q 516 271 494 242 q 550 338 538 300 q 562 416 562 376 q 531 511 562 474 q 438 548 500 548 q 366 531 397 548 q 312 485 334 514 q 279 417 290 455 q 267 338 267 380 q 301 241 267 275 q 391 208 336 208 m 499 781 l 393 864 l 599 1128 l 732 1000 l 499 781 z "},"ğ":{"ha":861,"x_min":-23,"x_max":852,"o":"m 277 -297 q 149 -284 207 -297 q 48 -254 92 -272 q -23 -217 4 -235 l 58 -23 q 116 -60 81 -43 q 191 -87 150 -77 q 273 -98 231 -98 q 371 -81 324 -98 q 450 -32 418 -64 q 491 45 483 0 l 499 90 l 479 90 l 519 151 l 606 578 l 564 642 l 613 642 l 631 732 l 852 732 l 712 37 q 625 -156 688 -82 q 471 -263 562 -229 q 277 -297 381 -297 m 299 20 q 165 56 224 20 q 71 158 105 92 q 36 317 36 225 q 62 479 36 402 q 136 615 88 555 q 252 709 184 675 q 400 743 319 743 q 543 702 483 743 q 636 590 604 660 q 669 436 669 520 q 640 281 669 355 q 560 148 611 206 q 443 55 509 89 q 299 20 376 20 m 391 208 q 462 225 430 208 q 516 271 494 242 q 550 338 538 300 q 562 416 562 376 q 531 511 562 474 q 438 548 500 548 q 366 531 397 548 q 312 485 334 514 q 279 417 290 455 q 267 338 267 380 q 301 241 267 275 q 391 208 336 208 m 507 806 q 372 840 429 806 q 287 932 314 875 q 272 1055 259 989 l 414 1034 q 433 961 406 988 q 509 933 460 933 q 583 951 547 933 q 642 997 618 968 q 672 1055 666 1025 l 814 1034 q 755 916 801 967 q 645 835 710 864 q 507 806 581 806 z "},"ǧ":{"ha":861,"x_min":-23,"x_max":852,"o":"m 277 -297 q 149 -284 207 -297 q 48 -254 92 -272 q -23 -217 4 -235 l 58 -23 q 116 -60 81 -43 q 191 -87 150 -77 q 273 -98 231 -98 q 371 -81 324 -98 q 450 -32 418 -64 q 491 45 483 0 l 499 90 l 479 90 l 519 151 l 606 578 l 564 642 l 613 642 l 631 732 l 852 732 l 712 37 q 625 -156 688 -82 q 471 -263 562 -229 q 277 -297 381 -297 m 299 20 q 165 56 224 20 q 71 158 105 92 q 36 317 36 225 q 62 479 36 402 q 136 615 88 555 q 252 709 184 675 q 400 743 319 743 q 543 702 483 743 q 636 590 604 660 q 669 436 669 520 q 640 281 669 355 q 560 148 611 206 q 443 55 509 89 q 299 20 376 20 m 391 208 q 462 225 430 208 q 516 271 494 242 q 550 338 538 300 q 562 416 562 376 q 531 511 562 474 q 438 548 500 548 q 366 531 397 548 q 312 485 334 514 q 279 417 290 455 q 267 338 267 380 q 301 241 267 275 q 391 208 336 208 m 467 770 l 248 981 l 347 1092 l 509 936 l 514 936 l 720 1092 l 800 981 l 511 770 l 467 770 z "},"ĝ":{"ha":861,"x_min":-23,"x_max":852,"o":"m 277 -297 q 149 -284 207 -297 q 48 -254 92 -272 q -23 -217 4 -235 l 58 -23 q 116 -60 81 -43 q 191 -87 150 -77 q 273 -98 231 -98 q 371 -81 324 -98 q 450 -32 418 -64 q 491 45 483 0 l 499 90 l 479 90 l 519 151 l 606 578 l 564 642 l 613 642 l 631 732 l 852 732 l 712 37 q 625 -156 688 -82 q 471 -263 562 -229 q 277 -297 381 -297 m 299 20 q 165 56 224 20 q 71 158 105 92 q 36 317 36 225 q 62 479 36 402 q 136 615 88 555 q 252 709 184 675 q 400 743 319 743 q 543 702 483 743 q 636 590 604 660 q 669 436 669 520 q 640 281 669 355 q 560 148 611 206 q 443 55 509 89 q 299 20 376 20 m 391 208 q 462 225 430 208 q 516 271 494 242 q 550 338 538 300 q 562 416 562 376 q 531 511 562 474 q 438 548 500 548 q 366 531 397 548 q 312 485 334 514 q 279 417 290 455 q 267 338 267 380 q 301 241 267 275 q 391 208 336 208 m 315 770 l 235 880 l 524 1092 l 568 1092 l 787 880 l 688 770 l 526 925 l 521 925 l 315 770 z "},"ģ":{"ha":861,"x_min":-23,"x_max":852,"o":"m 277 -297 q 149 -284 207 -297 q 48 -254 92 -272 q -23 -217 4 -235 l 58 -23 q 116 -60 81 -43 q 191 -87 150 -77 q 273 -98 231 -98 q 371 -81 324 -98 q 450 -32 418 -64 q 491 45 483 0 l 499 90 l 479 90 l 519 151 l 606 578 l 564 642 l 613 642 l 631 732 l 852 732 l 712 37 q 625 -156 688 -82 q 471 -263 562 -229 q 277 -297 381 -297 m 299 20 q 165 56 224 20 q 71 158 105 92 q 36 317 36 225 q 62 479 36 402 q 136 615 88 555 q 252 709 184 675 q 400 743 319 743 q 543 702 483 743 q 636 590 604 660 q 669 436 669 520 q 640 281 669 355 q 560 148 611 206 q 443 55 509 89 q 299 20 376 20 m 391 208 q 462 225 430 208 q 516 271 494 242 q 550 338 538 300 q 562 416 562 376 q 531 511 562 474 q 438 548 500 548 q 366 531 397 548 q 312 485 334 514 q 279 417 290 455 q 267 338 267 380 q 301 241 267 275 q 391 208 336 208 m 613 1147 l 650 1086 l 566 1040 q 536 1024 557 1035 q 497 993 515 1013 q 480 945 479 974 l 466 945 q 472 980 461 960 q 515 1000 484 1000 q 582 972 550 1000 q 614 901 614 943 q 584 833 614 860 q 513 806 554 806 q 440 836 473 806 q 408 924 408 866 q 440 1027 408 991 q 520 1092 473 1064 l 613 1147 z "},"ġ":{"ha":861,"x_min":-23,"x_max":852,"o":"m 277 -297 q 149 -284 207 -297 q 48 -254 92 -272 q -23 -217 4 -235 l 58 -23 q 116 -60 81 -43 q 191 -87 150 -77 q 273 -98 231 -98 q 371 -81 324 -98 q 450 -32 418 -64 q 491 45 483 0 l 499 90 l 479 90 l 519 151 l 606 578 l 564 642 l 613 642 l 631 732 l 852 732 l 712 37 q 625 -156 688 -82 q 471 -263 562 -229 q 277 -297 381 -297 m 299 20 q 165 56 224 20 q 71 158 105 92 q 36 317 36 225 q 62 479 36 402 q 136 615 88 555 q 252 709 184 675 q 400 743 319 743 q 543 702 483 743 q 636 590 604 660 q 669 436 669 520 q 640 281 669 355 q 560 148 611 206 q 443 55 509 89 q 299 20 376 20 m 391 208 q 462 225 430 208 q 516 271 494 242 q 550 338 538 300 q 562 416 562 376 q 531 511 562 474 q 438 548 500 548 q 366 531 397 548 q 312 485 334 514 q 279 417 290 455 q 267 338 267 380 q 301 241 267 275 q 391 208 336 208 m 524 808 q 423 850 464 808 q 382 951 382 891 q 423 1052 382 1011 q 524 1093 464 1093 q 625 1052 584 1093 q 667 951 667 1011 q 625 850 667 891 q 524 808 584 808 z "},"ḡ":{"ha":861,"x_min":-23,"x_max":852,"o":"m 277 -297 q 149 -284 207 -297 q 48 -254 92 -272 q -23 -217 4 -235 l 58 -23 q 116 -60 81 -43 q 191 -87 150 -77 q 273 -98 231 -98 q 371 -81 324 -98 q 450 -32 418 -64 q 491 45 483 0 l 499 90 l 479 90 l 519 151 l 606 578 l 564 642 l 613 642 l 631 732 l 852 732 l 712 37 q 625 -156 688 -82 q 471 -263 562 -229 q 277 -297 381 -297 m 299 20 q 165 56 224 20 q 71 158 105 92 q 36 317 36 225 q 62 479 36 402 q 136 615 88 555 q 252 709 184 675 q 400 743 319 743 q 543 702 483 743 q 636 590 604 660 q 669 436 669 520 q 640 281 669 355 q 560 148 611 206 q 443 55 509 89 q 299 20 376 20 m 391 208 q 462 225 430 208 q 516 271 494 242 q 550 338 538 300 q 562 416 562 376 q 531 511 562 474 q 438 548 500 548 q 366 531 397 548 q 312 485 334 514 q 279 417 290 455 q 267 338 267 380 q 301 241 267 275 q 391 208 336 208 m 203 842 l 232 986 l 829 986 l 800 842 l 203 842 z "},"h":{"ha":833,"x_min":3,"x_max":781,"o":"m 672 -12 q 554 14 605 -10 q 479 86 503 37 q 471 213 455 135 l 519 442 q 504 523 530 500 q 446 547 478 547 q 391 530 415 547 q 352 485 368 514 q 328 416 336 456 l 243 0 l 3 0 l 212 1044 l 452 1044 l 382 681 l 399 681 l 333 601 q 428 711 365 680 q 561 743 492 743 q 692 709 641 743 q 762 614 743 675 q 766 475 781 553 l 722 256 q 725 204 715 219 q 756 183 736 189 l 672 -12 z "},"ħ":{"ha":833,"x_min":3,"x_max":781,"o":"m 672 -12 q 554 14 605 -10 q 479 86 503 37 q 471 213 455 135 l 519 442 q 504 523 530 500 q 446 547 478 547 q 391 530 415 547 q 352 485 368 514 q 328 416 336 456 l 243 0 l 3 0 l 212 1044 l 452 1044 l 382 681 l 399 681 l 333 601 q 428 711 365 680 q 561 743 492 743 q 692 709 641 743 q 762 614 743 675 q 766 475 781 553 l 722 256 q 725 204 715 219 q 756 183 736 189 l 672 -12 m 58 822 l 81 936 l 536 936 l 514 822 l 58 822 z "},"ḫ":{"ha":833,"x_min":3,"x_max":781,"o":"m 672 -12 q 554 14 605 -10 q 479 86 503 37 q 471 213 455 135 l 519 442 q 504 523 530 500 q 446 547 478 547 q 391 530 415 547 q 352 485 368 514 q 328 416 336 456 l 243 0 l 3 0 l 212 1044 l 452 1044 l 382 681 l 399 681 l 333 601 q 428 711 365 680 q 561 743 492 743 q 692 709 641 743 q 762 614 743 675 q 766 475 781 553 l 722 256 q 725 204 715 219 q 756 183 736 189 l 672 -12 m 308 -319 q 172 -285 230 -319 q 87 -193 115 -250 q 73 -70 60 -136 l 214 -92 q 234 -164 206 -137 q 309 -192 261 -192 q 383 -174 348 -192 q 443 -129 418 -157 q 473 -70 467 -100 l 614 -92 q 556 -210 602 -158 q 446 -290 511 -261 q 308 -319 381 -319 z "},"ĥ":{"ha":833,"x_min":3,"x_max":781,"o":"m 672 -12 q 554 14 605 -10 q 479 86 503 37 q 471 213 455 135 l 519 442 q 504 523 530 500 q 446 547 478 547 q 391 530 415 547 q 352 485 368 514 q 328 416 336 456 l 243 0 l 3 0 l 212 1044 l 452 1044 l 382 681 l 399 681 l 333 601 q 428 711 365 680 q 561 743 492 743 q 692 709 641 743 q 762 614 743 675 q 766 475 781 553 l 722 256 q 725 204 715 219 q 756 183 736 189 l 672 -12 m 180 1094 l 88 1202 l 370 1375 l 414 1375 l 638 1202 l 522 1094 l 374 1219 l 369 1219 l 180 1094 z "},"ḥ":{"ha":833,"x_min":3,"x_max":781,"o":"m 672 -12 q 554 14 605 -10 q 479 86 503 37 q 471 213 455 135 l 519 442 q 504 523 530 500 q 446 547 478 547 q 391 530 415 547 q 352 485 368 514 q 328 416 336 456 l 243 0 l 3 0 l 212 1044 l 452 1044 l 382 681 l 399 681 l 333 601 q 428 711 365 680 q 561 743 492 743 q 692 709 641 743 q 762 614 743 675 q 766 475 781 553 l 722 256 q 725 204 715 219 q 756 183 736 189 l 672 -12 m 307 -355 q 205 -314 246 -355 q 164 -212 164 -273 q 205 -112 164 -153 q 307 -71 246 -71 q 408 -112 366 -71 q 449 -212 449 -153 q 408 -314 449 -273 q 307 -355 366 -355 z "},"i":{"ha":439,"x_min":43,"x_max":458,"o":"m 296 -11 q 141 28 199 -7 q 63 126 83 62 q 61 279 43 189 l 152 732 l 393 732 l 300 269 q 308 220 294 237 q 343 195 322 203 q 378 184 365 188 l 296 -11 m 316 808 q 215 850 256 808 q 174 951 174 891 q 215 1052 174 1011 q 316 1093 256 1093 q 417 1052 376 1093 q 458 951 458 1011 q 417 850 458 891 q 316 808 376 808 z "},"ı":{"ha":439,"x_min":43,"x_max":393,"o":"m 296 -11 q 141 28 199 -7 q 63 126 83 62 q 61 279 43 189 l 152 732 l 393 732 l 300 269 q 308 220 294 237 q 343 195 322 203 q 378 184 365 188 l 296 -11 z "},"í":{"ha":439,"x_min":43,"x_max":524,"o":"m 296 -11 q 141 28 199 -7 q 63 126 83 62 q 61 279 43 189 l 152 732 l 393 732 l 300 269 q 308 220 294 237 q 343 195 322 203 q 378 184 365 188 l 296 -11 m 291 781 l 185 864 l 391 1128 l 524 1000 l 291 781 z "},"ĭ":{"ha":439,"x_min":43,"x_max":606,"o":"m 296 -11 q 141 28 199 -7 q 63 126 83 62 q 61 279 43 189 l 152 732 l 393 732 l 300 269 q 308 220 294 237 q 343 195 322 203 q 378 184 365 188 l 296 -11 m 299 806 q 163 840 221 806 q 78 932 106 875 q 64 1055 51 989 l 205 1034 q 225 961 197 988 q 300 933 252 933 q 374 951 339 933 q 434 997 410 968 q 464 1055 458 1025 l 606 1034 q 547 916 593 967 q 437 835 502 864 q 299 806 372 806 z "},"ǐ":{"ha":519,"x_min":79,"x_max":632,"o":"m 336 -11 q 181 28 239 -7 q 103 126 123 62 q 101 279 83 189 l 192 732 l 433 732 l 340 269 q 348 220 334 237 q 384 195 362 203 q 418 184 405 188 l 336 -11 m 299 770 l 79 981 l 179 1092 l 340 936 l 346 936 l 551 1092 l 632 981 l 343 770 l 299 770 z "},"î":{"ha":439,"x_min":26,"x_max":579,"o":"m 296 -11 q 141 28 199 -7 q 63 126 83 62 q 61 279 43 189 l 152 732 l 393 732 l 300 269 q 308 220 294 237 q 343 195 322 203 q 378 184 365 188 l 296 -11 m 107 770 l 26 880 l 315 1092 l 360 1092 l 579 880 l 479 770 l 318 925 l 313 925 l 107 770 z "},"ȉ":{"ha":439,"x_min":17,"x_max":517,"o":"m 296 -11 q 141 28 199 -7 q 63 126 83 62 q 61 279 43 189 l 152 732 l 393 732 l 300 269 q 308 220 294 237 q 343 195 322 203 q 378 184 365 188 l 296 -11 m 130 791 l 17 1025 l 188 1100 l 253 819 l 130 791 m 393 791 l 281 1025 l 454 1100 l 517 819 l 393 791 z "},"ï":{"ha":439,"x_min":16,"x_max":615,"o":"m 296 -11 q 141 28 199 -7 q 63 126 83 62 q 61 279 43 189 l 152 732 l 393 732 l 300 269 q 308 220 294 237 q 343 195 322 203 q 378 184 365 188 l 296 -11 m 488 819 q 397 856 434 819 q 360 947 360 893 q 397 1038 360 1001 q 488 1074 434 1074 q 578 1038 542 1074 q 615 947 615 1001 q 578 856 615 893 q 488 819 542 819 m 144 819 q 53 856 90 819 q 16 947 16 893 q 53 1038 16 1001 q 143 1074 90 1074 q 234 1038 197 1074 q 271 947 271 1001 q 234 856 271 893 q 144 819 197 819 z "},"ḯ":{"ha":439,"x_min":16,"x_max":615,"o":"m 296 -11 q 141 28 199 -7 q 63 126 83 62 q 61 279 43 189 l 152 732 l 393 732 l 300 269 q 308 220 294 237 q 343 195 322 203 q 378 184 365 188 l 296 -11 m 488 819 q 397 856 434 819 q 360 947 360 893 q 397 1038 360 1001 q 488 1074 434 1074 q 578 1038 542 1074 q 615 947 615 1001 q 578 856 615 893 q 488 819 542 819 m 144 819 q 53 856 90 819 q 16 947 16 893 q 53 1038 16 1001 q 143 1074 90 1074 q 234 1038 197 1074 q 271 947 271 1001 q 234 856 271 893 q 144 819 197 819 m 350 1079 l 244 1162 l 450 1426 l 583 1298 l 350 1079 z "},"ị":{"ha":439,"x_min":-35,"x_max":458,"o":"m 296 -11 q 141 28 199 -7 q 63 126 83 62 q 61 279 43 189 l 152 732 l 393 732 l 300 269 q 308 220 294 237 q 343 195 322 203 q 378 184 365 188 l 296 -11 m 316 808 q 215 850 256 808 q 174 951 174 891 q 215 1052 174 1011 q 316 1093 256 1093 q 417 1052 376 1093 q 458 951 458 1011 q 417 850 458 891 q 316 808 376 808 m 107 -355 q 6 -314 47 -355 q -35 -212 -35 -273 q 6 -112 -35 -153 q 107 -71 47 -71 q 208 -112 167 -71 q 250 -212 250 -153 q 208 -314 250 -273 q 107 -355 167 -355 z "},"ì":{"ha":439,"x_min":43,"x_max":401,"o":"m 296 -11 q 141 28 199 -7 q 63 126 83 62 q 61 279 43 189 l 152 732 l 393 732 l 300 269 q 308 220 294 237 q 343 195 322 203 q 378 184 365 188 l 296 -11 m 288 786 l 94 1006 l 241 1128 l 401 864 l 288 786 z "},"ỉ":{"ha":439,"x_min":43,"x_max":463,"o":"m 296 -11 q 141 28 199 -7 q 63 126 83 62 q 61 279 43 189 l 152 732 l 393 732 l 300 269 q 308 220 294 237 q 343 195 322 203 q 378 184 365 188 l 296 -11 m 315 772 l 243 863 q 286 892 269 876 q 307 926 302 907 q 300 950 310 941 q 256 958 290 958 q 209 955 235 958 q 163 945 183 951 l 182 1089 q 222 1097 201 1095 q 271 1100 243 1100 q 419 1058 376 1100 q 450 946 463 1017 q 401 845 438 888 q 315 772 363 802 z "},"ȋ":{"ha":439,"x_min":34,"x_max":586,"o":"m 296 -11 q 141 28 199 -7 q 63 126 83 62 q 61 279 43 189 l 152 732 l 393 732 l 300 269 q 308 220 294 237 q 343 195 322 203 q 378 184 365 188 l 296 -11 m 570 794 l 431 817 q 410 891 439 854 q 317 928 381 928 q 222 890 261 928 q 173 800 183 852 l 34 822 q 91 946 47 894 q 197 1027 134 998 q 331 1055 260 1055 q 469 1021 409 1055 q 557 927 528 986 q 570 794 586 868 z "},"ī":{"ha":439,"x_min":36,"x_max":568,"o":"m 296 -11 q 141 28 199 -7 q 63 126 83 62 q 61 279 43 189 l 152 732 l 393 732 l 300 269 q 308 220 294 237 q 343 195 322 203 q 378 184 365 188 l 296 -11 m 36 842 l 61 986 l 568 986 l 544 842 l 36 842 z "},"į":{"ha":439,"x_min":43,"x_max":458,"o":"m 296 -11 q 141 28 199 -7 q 63 126 83 62 q 61 279 43 189 l 152 732 l 393 732 l 300 269 q 308 220 294 237 q 343 195 322 203 q 378 184 365 188 l 296 -11 m 316 808 q 215 850 256 808 q 174 951 174 891 q 215 1052 174 1011 q 316 1093 256 1093 q 417 1052 376 1093 q 458 951 458 1011 q 417 850 458 891 q 316 808 376 808 m 227 -297 q 100 -250 144 -297 q 71 -134 56 -203 q 108 -47 80 -88 q 168 25 136 -6 q 218 69 199 56 l 296 -11 q 262 -45 278 -26 q 235 -83 246 -64 q 221 -117 224 -102 q 225 -144 218 -134 q 258 -154 233 -154 q 297 -149 276 -154 q 346 -135 319 -144 l 325 -283 q 279 -293 308 -290 q 227 -297 250 -297 z "},"ĩ":{"ha":439,"x_min":18,"x_max":618,"o":"m 296 -11 q 141 28 199 -7 q 63 126 83 62 q 61 279 43 189 l 152 732 l 393 732 l 300 269 q 308 220 294 237 q 343 195 322 203 q 378 184 365 188 l 296 -11 m 168 811 l 18 825 q 61 936 32 886 q 133 1015 91 986 q 225 1044 175 1044 q 287 1031 262 1044 q 332 1000 313 1017 q 368 969 351 983 q 403 956 385 956 q 445 981 428 956 q 468 1044 461 1007 l 618 1031 q 576 921 606 971 q 503 841 546 871 q 410 811 460 811 q 349 825 374 811 q 306 856 324 838 q 270 886 287 873 q 233 900 253 900 q 192 876 208 900 q 168 811 176 851 z "},"j":{"ha":415,"x_min":-167,"x_max":471,"o":"m -53 -302 q -110 -299 -82 -302 q -167 -289 -138 -295 l -123 -84 q -98 -89 -115 -88 q -75 -90 -81 -90 q -11 -65 -35 -90 q 19 -14 14 -41 l 167 732 l 408 732 l 258 -20 q 201 -169 241 -105 q 97 -267 161 -232 q -53 -302 34 -302 m 328 808 q 227 850 268 808 q 186 951 186 891 q 227 1052 186 1011 q 328 1093 268 1093 q 429 1052 388 1093 q 471 951 471 1011 q 429 850 471 891 q 328 808 388 808 z "},"ȷ":{"ha":415,"x_min":-167,"x_max":408,"o":"m -53 -302 q -110 -299 -82 -302 q -167 -289 -138 -295 l -123 -84 q -98 -89 -115 -88 q -75 -90 -81 -90 q -11 -65 -35 -90 q 19 -14 14 -41 l 167 732 l 408 732 l 258 -20 q 201 -169 241 -105 q 97 -267 161 -232 q -53 -302 34 -302 z "},"ĵ":{"ha":467,"x_min":-167,"x_max":591,"o":"m -53 -302 q -110 -299 -82 -302 q -167 -289 -138 -295 l -123 -84 q -98 -89 -115 -88 q -75 -90 -81 -90 q -11 -65 -35 -90 q 19 -14 14 -41 l 167 732 l 408 732 l 258 -20 q 201 -169 241 -105 q 97 -267 161 -232 q -53 -302 34 -302 m 119 770 l 39 880 l 328 1092 l 372 1092 l 591 880 l 492 770 l 330 925 l 325 925 l 119 770 z "},"k":{"ha":813,"x_min":3,"x_max":876,"o":"m 3 0 l 212 1044 l 453 1044 l 332 439 l 398 439 l 328 411 l 592 732 l 876 732 l 497 309 l 484 442 l 734 0 l 485 0 l 300 349 l 376 300 l 304 300 l 243 0 l 3 0 z "},"ķ":{"ha":813,"x_min":3,"x_max":876,"o":"m 3 0 l 212 1044 l 453 1044 l 332 439 l 398 439 l 328 411 l 592 732 l 876 732 l 497 309 l 484 442 l 734 0 l 485 0 l 300 349 l 376 300 l 304 300 l 243 0 l 3 0 m 218 -400 l 181 -339 l 265 -292 q 296 -276 275 -287 q 334 -246 317 -265 q 351 -197 352 -227 l 366 -197 q 360 -233 371 -212 q 317 -253 349 -253 q 249 -224 281 -253 q 217 -153 217 -196 q 247 -85 217 -113 q 318 -58 277 -58 q 391 -89 359 -58 q 424 -177 424 -119 q 391 -280 424 -243 q 311 -345 358 -317 l 218 -400 z "},"ĸ":{"ha":816,"x_min":3,"x_max":878,"o":"m 3 0 l 151 732 l 393 732 l 336 448 l 382 448 l 300 411 l 587 732 l 878 732 l 460 315 l 485 453 l 737 0 l 465 0 l 290 345 l 352 309 l 307 309 l 245 0 l 3 0 z "},"l":{"ha":447,"x_min":33,"x_max":454,"o":"m 218 -11 q 110 16 153 -11 q 50 92 66 42 q 47 212 33 142 l 211 1044 l 454 1044 l 294 245 q 330 193 283 193 q 351 195 339 193 q 372 201 363 197 l 338 11 q 278 -6 313 -1 q 218 -11 242 -11 z "},"ĺ":{"ha":447,"x_min":33,"x_max":582,"o":"m 218 -11 q 110 16 153 -11 q 50 92 66 42 q 47 212 33 142 l 211 1044 l 454 1044 l 294 245 q 330 193 283 193 q 351 195 339 193 q 372 201 363 197 l 338 11 q 278 -6 313 -1 q 218 -11 242 -11 m 349 1093 l 243 1176 l 448 1440 l 582 1312 l 349 1093 z "},"ľ":{"ha":578,"x_min":33,"x_max":737,"o":"m 218 -11 q 110 16 153 -11 q 50 92 66 42 q 47 212 33 142 l 211 1044 l 454 1044 l 294 245 q 330 193 283 193 q 351 195 339 193 q 372 201 363 197 l 338 11 q 278 -6 313 -1 q 218 -11 242 -11 m 472 686 l 545 1044 l 737 1044 l 639 686 l 472 686 z "},"ļ":{"ha":447,"x_min":-14,"x_max":454,"o":"m 218 -11 q 110 16 153 -11 q 50 92 66 42 q 47 212 33 142 l 211 1044 l 454 1044 l 294 245 q 330 193 283 193 q 351 195 339 193 q 372 201 363 197 l 338 11 q 278 -6 313 -1 q 218 -11 242 -11 m 23 -400 l -14 -339 l 70 -292 q 100 -276 79 -287 q 139 -246 121 -265 q 156 -197 157 -227 l 170 -197 q 164 -233 176 -212 q 121 -253 153 -253 q 54 -224 86 -253 q 22 -153 22 -196 q 52 -85 22 -113 q 123 -58 82 -58 q 196 -89 163 -58 q 229 -177 229 -119 q 196 -280 229 -243 q 116 -345 163 -317 l 23 -400 z "}}}
